<svg width="233" height="596" viewBox="0 0 233 596" fill="none" xmlns="http://www.w3.org/2000/svg">
<g opacity="0.18">
<path d="M227.593 69.4453L17.0156 112.848L109.448 561.303L320.025 517.901L227.593 69.4453Z" fill="#CF2E26"/>
<path d="M320.038 552.495L123.11 593.084C117.913 594.155 112.829 591.025 111.81 586.078L26.6178 172.751C25.5982 167.804 28.9675 162.932 34.2273 161.848L231.154 121.259C236.352 120.187 241.435 123.317 242.455 128.264L327.647 541.592C328.666 546.538 325.297 551.411 320.038 552.495Z" fill="#E6332A"/>
<path d="M226.312 139.881L46.1034 177.024L128.017 574.448L308.226 537.304L226.312 139.881Z" fill="#CF2E26"/>
<path d="M108.138 22.2627C58.0451 32.5875 20.1362 63.7044 11.0345 98.0878L11.2224 98.0491L14.7586 115.206C15.1845 117.272 17.1483 118.565 19.2146 118.139L227.6 75.1879C229.667 74.762 230.959 72.7985 230.533 70.7321L226.997 53.5752L227.185 53.5365C205.367 25.5913 158.231 11.938 108.138 22.2627Z" fill="#E6332A"/>
<path d="M30.3902 97.2967C40.5305 71.1199 72.9822 48.0468 111.804 40.0451C150.626 32.0435 189.556 40.4038 209.221 60.4374L30.3902 97.2967Z" fill="#CF2E26"/>
<path d="M197.432 89.6962L52.7889 119.509L58.2482 145.995L202.891 116.183L197.432 89.6962Z" fill="#F6F6F6"/>
<path d="M103.62 185.927L73.5646 192.122L89.5938 269.891L119.649 263.696L103.62 185.927Z" fill="#2E2E2D"/>
<path d="M138.121 178.816L108.066 185.01L124.095 262.779L154.151 256.585L138.121 178.816Z" fill="#2E2E2D"/>
<path d="M172.561 171.717L142.505 177.912L158.534 255.681L188.59 249.486L172.561 171.717Z" fill="#2E2E2D"/>
<path d="M207.06 164.606L177.005 170.801L193.034 248.57L223.09 242.376L207.06 164.606Z" fill="#2E2E2D"/>
<path d="M120.486 267.766L90.4308 273.961L106.46 351.73L136.516 345.535L120.486 267.766Z" fill="#2E2E2D"/>
<path d="M154.989 260.655L124.934 266.85L140.963 344.619L171.018 338.424L154.989 260.655Z" fill="#2E2E2D"/>
<path d="M189.428 253.557L159.373 259.752L175.402 337.521L205.458 331.326L189.428 253.557Z" fill="#2E2E2D"/>
<path d="M223.928 246.446L193.872 252.641L209.902 330.41L239.957 324.215L223.928 246.446Z" fill="#2E2E2D"/>
<path d="M137.341 349.542L107.286 355.737L123.315 433.506L153.37 427.311L137.341 349.542Z" fill="#2E2E2D"/>
<path d="M171.845 342.431L141.79 348.626L157.819 426.395L187.874 420.2L171.845 342.431Z" fill="#2E2E2D"/>
<path d="M206.283 335.333L176.228 341.528L192.257 419.297L222.312 413.102L206.283 335.333Z" fill="#2E2E2D"/>
<path d="M240.783 328.222L210.727 334.417L226.756 412.186L256.812 405.991L240.783 328.222Z" fill="#2E2E2D"/>
<path d="M154.21 431.381L124.155 437.576L140.184 515.345L170.239 509.15L154.21 431.381Z" fill="#2E2E2D"/>
<path d="M188.713 424.27L158.657 430.464L174.686 508.233L204.742 502.038L188.713 424.27Z" fill="#2E2E2D"/>
<path d="M223.151 417.171L193.095 423.366L209.125 501.135L239.18 494.94L223.151 417.171Z" fill="#2E2E2D"/>
<path d="M257.652 410.061L227.596 416.255L243.625 494.024L273.681 487.829L257.652 410.061Z" fill="#2E2E2D"/>
<path d="M276.52 501.606L143.022 529.121L148.688 556.609L282.185 529.094L276.52 501.606Z" fill="#E6332A"/>
<path d="M101.107 353.943C101.907 357.825 99.2469 361.703 95.1768 362.542C91.1068 363.381 87.1429 360.934 86.3298 356.989C85.5297 353.107 88.1901 349.229 92.2601 348.39C96.3301 347.551 100.307 350.061 101.107 353.943Z" fill="#F9B233"/>
<path d="M83.7466 70.5027C84.1247 72.9706 85.9578 75.5301 87.6102 77.2131C90.9815 81.2181 108.089 71.4257 106.266 66.3834C105.693 64.8697 104.945 63.4572 104.111 62.2584C108.965 60.4745 113.947 58.9908 119.019 57.9454C124.116 57.0253 129.254 56.619 134.444 56.4632C134.089 57.9072 133.898 59.5131 133.908 61.143C134.04 66.5337 153.478 69.316 155.204 64.3909C156.132 62.2414 156.879 59.2152 156.376 56.7732C155.242 51.589 150.707 47.9544 145.64 47.7584C136.708 46.858 126.367 47.3576 117.298 48.9656C108.269 50.7614 98.5082 54.0787 90.4829 58.2133C85.8053 60.2218 82.913 65.1914 83.7466 70.5027ZM137.963 59.9155C139.805 59.6665 142.238 59.7525 144.735 60.1516C147.848 60.685 150.649 61.609 152.248 62.7155C153.003 63.2126 153.445 63.7743 153.385 64.1132C153.203 65.1298 149.471 66.0294 143.924 65.084C140.811 64.5506 138.01 63.6266 136.411 62.5201C135.656 62.023 135.214 61.4614 135.274 61.1225C135.335 60.7836 136.059 60.1775 137.963 59.9155ZM95.865 69.4411C100.163 66.858 103.845 66.0339 104.902 66.7298C104.977 66.7796 104.99 66.8422 105.066 66.8919C105.572 67.7666 103.271 70.852 98.448 73.739C94.1499 76.3221 90.4685 77.1462 89.4112 76.4503C89.3357 76.4005 89.3228 76.3379 89.2473 76.2882C88.7406 75.4135 91.0422 72.3281 95.865 69.4411Z" fill="#E6332A"/>
</g>
</svg>
