<svg width="431" height="40" viewBox="0 0 431 40" fill="none" xmlns="http://www.w3.org/2000/svg">
<path d="M416.233 25.4502C415.715 25.4502 415.247 25.1264 415.173 24.6812C414.853 22.5362 415.543 20.4316 417.169 18.7317C418.771 17.0319 421.087 15.9392 423.699 15.6761C425.227 15.5142 426.706 15.8582 427.913 16.6272C429.121 17.3962 429.884 18.5092 430.082 19.7638C430.205 20.5328 429.934 21.3018 429.367 21.9088C428.776 22.5159 427.938 22.9207 427.001 23.0016C426.41 23.0623 425.892 22.7183 425.819 22.2529C425.745 21.7672 426.164 21.3422 426.73 21.2815C427.1 21.2411 427.445 21.0792 427.667 20.8363C427.888 20.5935 428.012 20.2899 427.962 19.9662C427.839 19.1769 427.346 18.4889 426.607 18.0032C425.843 17.5176 424.907 17.295 423.946 17.3962C421.9 17.5985 420.077 18.4485 418.82 19.784C417.564 21.1196 416.997 22.779 417.268 24.4586C417.342 24.9443 416.923 25.3693 416.356 25.43C416.307 25.4502 416.257 25.4502 416.233 25.4502Z" fill="#B93538"/>
<path d="M236.717 39.9998C231.542 39.9998 226.441 38.8463 221.882 36.5798C219.221 35.2645 216.88 33.6253 214.909 31.7433C207.935 38.2999 197.117 41.4568 186.423 39.2915C175.457 37.0655 168.754 27.9389 171.465 18.9338C172.401 15.8174 174.767 13.1867 178.118 11.5273C181.47 9.86792 185.412 9.38225 189.207 10.1512C191.942 10.6976 194.259 12.1141 195.713 14.0973C197.167 16.0805 197.61 18.4076 196.92 20.6539C195.91 24.0333 191.721 26.1177 187.581 25.2677C187.014 25.1463 186.669 24.6809 186.817 24.2154C186.965 23.75 187.532 23.4667 188.098 23.5881C189.552 23.8917 191.055 23.6893 192.337 23.062C193.618 22.4346 194.505 21.4228 194.875 20.2289C195.417 18.4279 195.072 16.5661 193.914 14.9877C192.756 13.4093 190.907 12.276 188.714 11.8308C185.462 11.163 182.11 11.588 179.227 13.0046C176.369 14.4211 174.348 16.6673 173.535 19.3385C171.095 27.4128 177.133 35.5882 186.94 37.5916C196.994 39.6355 207.122 36.6001 213.578 30.3471C211.36 27.8782 209.734 25.0451 208.822 21.9895C208.699 21.6657 205.249 12.3975 213.652 1.57105L214.44 0.559239L215.377 1.49011C215.771 1.89483 225.061 11.2845 221.34 22.0097C220.256 25.1261 218.531 27.9389 216.313 30.3471C218.186 32.1886 220.453 33.7872 223.041 35.0621C229.152 38.0975 236.322 38.9879 243.247 37.5714C253.079 35.568 259.092 27.3925 256.652 19.3183C255.839 16.6471 253.818 14.4009 250.96 12.9843C248.101 11.5678 244.725 11.1428 241.473 11.8106C239.279 12.2558 237.431 13.3688 236.273 14.9675C235.115 16.5459 234.77 18.4076 235.312 20.2087C236.051 22.6573 239.082 24.175 242.089 23.5679C242.655 23.4465 243.222 23.7298 243.37 24.1952C243.518 24.6607 243.173 25.1261 242.606 25.2475C238.491 26.0772 234.302 24.0131 233.267 20.6336C232.602 18.3874 233.02 16.0602 234.474 14.0771C235.928 12.0939 238.245 10.6976 240.98 10.131C244.775 9.36202 248.717 9.84769 252.069 11.5071C255.42 13.1664 257.786 15.7972 258.722 18.9136C261.433 27.9187 254.73 37.0453 243.764 39.2712C241.374 39.7569 239.033 39.9998 236.717 39.9998ZM214.588 3.61491C207.763 13.2878 210.794 21.4431 210.818 21.524C211.631 24.2357 213.036 26.7247 214.909 28.9305C216.806 26.7652 218.309 24.2964 219.246 21.5443C222.006 13.6319 216.781 6.24562 214.588 3.61491Z" fill="#B93538"/>
<path d="M416.234 25.4502L258.107 25.4502C257.515 25.4502 257.047 25.0657 257.047 24.58C257.047 24.0944 257.515 23.7099 258.107 23.7099L416.234 23.7099C416.825 23.7099 417.293 24.0944 417.293 24.58C417.293 25.0657 416.801 25.4502 416.234 25.4502Z" fill="#B93538"/>
<path d="M172.007 25.4502L12.9188 25.4502L13.0667 24.4789C13.3131 22.8195 12.7217 21.1601 11.4157 19.8245C10.085 18.4889 8.23686 17.639 6.16693 17.4164C5.2059 17.3152 4.26955 17.5378 3.50565 18.0235C2.74175 18.5091 2.24886 19.2174 2.1503 19.9864C2.10101 20.2899 2.19957 20.6137 2.44598 20.8566C2.66776 21.0994 3.01276 21.2613 3.38239 21.3018C3.9738 21.3625 4.36806 21.7874 4.29413 22.2731C4.2202 22.7588 3.70277 23.0825 3.11136 23.0218C2.17497 22.9207 1.33717 22.5362 0.745758 21.9291C0.154358 21.322 -0.0920863 20.553 0.0311285 19.784C0.228257 18.5294 0.992173 17.4366 2.19963 16.6474C3.40707 15.8784 4.91022 15.5344 6.41338 15.6963C9.02542 15.9594 11.3664 17.0521 13.0421 18.7317C14.4713 20.1888 15.2351 21.9291 15.2351 23.7099L172.007 23.7099C172.598 23.7099 173.067 24.0944 173.067 24.58C173.067 25.0657 172.574 25.4502 172.007 25.4502Z" fill="#B93538"/>
</svg>
