<svg width="175" height="20" viewBox="0 0 175 20" fill="none" xmlns="http://www.w3.org/2000/svg">
<path d="M168.913 12.3C168.703 12.3 168.513 12.1401 168.483 11.9201C168.353 10.8601 168.633 9.82005 169.293 8.98005C169.943 8.14005 170.883 7.60005 171.943 7.47005C172.563 7.39005 173.163 7.56005 173.653 7.94005C174.143 8.32005 174.453 8.87005 174.533 9.49005C174.583 9.87005 174.473 10.25 174.243 10.55C174.003 10.85 173.663 11.05 173.283 11.09C173.043 11.12 172.833 10.9501 172.803 10.7201C172.773 10.4801 172.943 10.2701 173.173 10.2401C173.323 10.2201 173.463 10.14 173.553 10.02C173.643 9.90005 173.693 9.75005 173.673 9.59005C173.623 9.20005 173.423 8.86005 173.123 8.62005C172.813 8.38005 172.433 8.27005 172.043 8.32005C171.213 8.42005 170.473 8.84005 169.963 9.50005C169.453 10.1601 169.223 10.9801 169.333 11.8101C169.363 12.0501 169.193 12.2601 168.963 12.2901C168.943 12.3001 168.923 12.3 168.913 12.3Z" fill="#B93538"/>
<path d="M96.0626 19.49C93.9626 19.49 91.8926 18.92 90.0426 17.8C88.9626 17.15 88.0126 16.34 87.2126 15.41C84.3826 18.65 79.9926 20.21 75.6526 19.14C71.2026 18.04 68.4826 13.53 69.5826 9.07999C69.9626 7.53999 70.9226 6.23999 72.2826 5.41999C73.6426 4.59999 75.2426 4.35999 76.7826 4.73999C77.8926 5.00999 78.8326 5.70999 79.4226 6.68998C80.0126 7.66998 80.1926 8.81999 79.9126 9.92999C79.5026 11.6 77.8026 12.63 76.1226 12.21C75.8926 12.15 75.7526 11.92 75.8126 11.69C75.8726 11.46 76.1026 11.32 76.3326 11.38C76.9226 11.53 77.5326 11.43 78.0526 11.12C78.5726 10.81 78.9326 10.31 79.0826 9.71999C79.3026 8.82999 79.1626 7.90999 78.6926 7.12999C78.2226 6.34999 77.4726 5.78999 76.5826 5.56999C75.2626 5.23999 73.9026 5.44999 72.7326 6.14999C71.5726 6.84999 70.7526 7.95999 70.4226 9.27999C69.4326 13.27 71.8826 17.31 75.8626 18.3C79.9426 19.31 84.0526 17.81 86.6726 14.72C85.7726 13.5 85.1126 12.1 84.7426 10.59C84.6926 10.43 83.2926 5.84999 86.7026 0.499991L87.0226 -9.22173e-06L87.4026 0.45999C87.5626 0.659991 91.3326 5.29999 89.8226 10.6C89.3826 12.14 88.6826 13.53 87.7826 14.72C88.5426 15.63 89.4626 16.42 90.5126 17.05C92.9926 18.55 95.9026 18.99 98.7126 18.29C102.703 17.3 105.143 13.26 104.153 9.26999C103.823 7.94999 103.003 6.83999 101.843 6.13999C100.683 5.43999 99.3126 5.22999 97.9926 5.55999C97.1026 5.77999 96.3526 6.32999 95.8826 7.11999C95.4126 7.89999 95.2726 8.81999 95.4926 9.70999C95.7926 10.92 97.0226 11.67 98.2426 11.37C98.4726 11.31 98.7026 11.45 98.7626 11.68C98.8226 11.91 98.6826 12.14 98.4526 12.2C96.7826 12.61 95.0826 11.59 94.6626 9.91999C94.3926 8.80999 94.5626 7.65999 95.1526 6.67999C95.7426 5.69999 96.6826 5.00999 97.7926 4.72999C99.3326 4.34999 100.933 4.58999 102.293 5.40999C103.653 6.22999 104.613 7.52999 104.993 9.06999C106.093 13.52 103.373 18.03 98.9226 19.13C97.9526 19.37 97.0026 19.49 96.0626 19.49ZM87.0826 1.50999C84.3126 6.28999 85.5426 10.32 85.5526 10.36C85.8826 11.7 86.4526 12.93 87.2126 14.02C87.9826 12.95 88.5926 11.73 88.9726 10.37C90.0926 6.45999 87.9726 2.80998 87.0826 1.50999Z" fill="#B93538"/>
<path d="M168.913 12.3L104.743 12.3C104.503 12.3 104.313 12.11 104.313 11.87C104.313 11.63 104.503 11.44 104.743 11.44L168.913 11.44C169.153 11.44 169.343 11.63 169.343 11.87C169.343 12.11 169.143 12.3 168.913 12.3Z" fill="#B93538"/>
<path d="M69.8024 12.3L5.2424 12.3L5.30243 11.82C5.40243 11 5.16241 10.18 4.63242 9.52004C4.09242 8.86004 3.34241 8.44005 2.50241 8.33005C2.11241 8.28005 1.73242 8.39004 1.42242 8.63004C1.11243 8.87004 0.912407 9.22005 0.872406 9.60005C0.85241 9.75005 0.892403 9.91005 0.992401 10.03C1.0824 10.15 1.2224 10.23 1.37241 10.25C1.6124 10.28 1.7724 10.49 1.7424 10.73C1.7124 10.97 1.50242 11.13 1.26242 11.1C0.882424 11.05 0.542427 10.86 0.302429 10.56C0.0624315 10.26 -0.0375822 9.88005 0.0124209 9.50005C0.0924228 8.88005 0.402428 8.34004 0.892426 7.95004C1.38242 7.57004 1.99242 7.40004 2.60242 7.48004C3.66241 7.61004 4.61242 8.15004 5.29242 8.98004C5.87242 9.70004 6.1824 10.56 6.1824 11.44L69.8024 11.44C70.0424 11.44 70.2324 11.63 70.2324 11.87C70.2324 12.11 70.0324 12.3 69.8024 12.3Z" fill="#B93538"/>
</svg>
