<svg width="113" height="113" viewBox="0 0 113 113" fill="none" xmlns="http://www.w3.org/2000/svg">
<path d="M85.0732 86.8129L40.1209 86.8129H17.7941C14.72 86.8129 11.8391 87.4277 9.41499 88.5695C4.0397 91.0815 0.983147 96.2284 1.93173 102.219C2.38846 105.082 3.79377 107.734 6.21793 109.403C7.30704 110.159 8.53668 110.686 9.85416 110.949C11.1189 111.213 12.454 111.23 13.8066 110.949C15.897 110.527 17.636 109.298 18.7252 107.647C19.8143 105.995 20.2886 103.922 19.867 101.815C19.5332 100.181 18.5846 98.8458 17.2847 97.9851C16.0024 97.1243 14.3863 96.773 12.7526 97.1067C11.5054 97.3527 10.469 98.108 9.80145 99.0917C9.13393 100.075 8.87044 101.323 9.11636 102.587C9.30959 103.536 9.87171 104.326 10.6271 104.836C10.9081 105.029 11.2243 105.17 11.5581 105.275C11.4175 104.941 11.3297 104.59 11.3297 104.204C11.3297 102.763 12.4891 101.604 13.9295 101.604C15.37 101.604 16.5294 102.763 16.5294 104.204C16.5294 105.293 15.8618 106.224 14.9133 106.61L14.8079 106.663C14.4565 106.856 14.0701 106.979 13.6309 107.067C12.1905 107.365 10.7852 107.032 9.66093 106.294C8.53668 105.556 7.6935 104.362 7.39487 102.921C7.04354 101.182 7.43 99.4782 8.34345 98.108C9.2569 96.7378 10.6798 95.719 12.4188 95.3677C14.5268 94.9461 16.5996 95.4028 18.2684 96.5095C19.9197 97.6162 21.1669 99.3552 21.5885 101.463C22.1155 104.028 21.5358 106.575 20.2007 108.595C18.8481 110.615 16.7402 112.144 14.1579 112.653C12.5769 112.969 10.996 112.952 9.50282 112.653C7.95699 112.337 6.49899 111.704 5.21664 110.826C2.3709 108.859 0.702095 105.767 0.192673 102.464C-0.878876 95.6839 2.59926 89.7991 8.65965 86.9534C11.3297 85.7062 14.4741 85.0387 17.7941 85.0387H40.1209L85.0732 85.0387L85.0732 40.104V17.7947C85.0732 14.4747 85.7407 11.3479 86.9879 8.66023C89.8337 2.58228 95.7184 -0.878288 102.499 0.19326C105.801 0.720253 108.893 2.37149 110.861 5.21724C111.739 6.49958 112.371 7.95759 112.687 9.50343C112.986 10.9966 113.004 12.5775 112.687 14.1585C112.16 16.7408 110.65 18.8487 108.63 20.2013C106.61 21.5364 104.062 22.1161 101.48 21.5891C99.3722 21.1675 97.6331 19.9203 96.5265 18.269C95.4198 16.6178 94.9631 14.5274 95.3846 12.4194C95.736 10.6804 96.7548 9.25749 98.125 8.34404C99.4952 7.44816 101.199 7.0617 102.938 7.41302C104.379 7.71165 105.556 8.55484 106.311 9.67908C107.066 10.8033 107.382 12.2262 107.084 13.6491C106.996 14.0707 106.855 14.4571 106.68 14.826L106.627 14.9314C106.241 15.88 105.31 16.5475 104.221 16.5475C102.78 16.5475 101.621 15.3881 101.621 13.9477C101.621 12.5073 102.78 11.3479 104.221 11.3479C104.607 11.3479 104.958 11.4357 105.292 11.5763C105.187 11.2425 105.046 10.9263 104.853 10.6452C104.343 9.88988 103.553 9.32776 102.604 9.13453C101.34 8.8886 100.11 9.1521 99.1087 9.81962C98.125 10.4696 97.3696 11.506 97.1237 12.7708C96.7899 14.4044 97.1588 16.0205 98.002 17.3029C98.8628 18.5852 100.198 19.5514 101.831 19.8676C103.939 20.2892 106.012 19.8324 107.664 18.7258C109.315 17.6191 110.562 15.8976 110.984 13.8072C111.265 12.4546 111.247 11.1195 110.984 9.85474C110.72 8.53727 110.175 7.30762 109.438 6.21851C107.769 3.79436 105.116 2.37148 102.253 1.93232C96.2454 0.983734 91.116 4.04029 88.604 9.41559C87.4622 11.8573 86.8474 14.7206 86.8474 17.7947V40.104L86.8474 85.0562H101.427H102.306V85.9345L102.306 101.393V102.271H101.427L85.9691 102.271H85.0908V101.393V86.8129H85.0732ZM86.8298 86.8129V100.515H100.532V86.8129H86.8298ZM94.559 45.8657V42.0187C94.559 41.1404 94.5239 40.2445 94.9806 39.454C95.2441 40.2796 96.0346 40.8945 96.948 40.8945C98.0899 40.8945 99.0209 39.9634 99.0209 38.8041C99.0209 38.119 98.6871 37.5217 98.1777 37.1353C97.475 36.6083 96.4913 36.5556 95.6306 36.8191C94.2253 37.2582 93.3821 38.2595 92.9956 39.6648C92.7673 40.5256 92.7848 41.2985 92.7848 42.1417V45.8482L92.7848 78.2054H94.5415L94.5415 45.8657H94.559ZM45.8827 94.5421L78.2223 94.5421V92.7854L45.8827 92.7854H42.1762C41.3155 92.7854 40.5601 92.7678 39.6994 92.9962C38.2941 93.3651 37.2928 94.2259 36.8536 95.6136C36.5725 96.4919 36.6428 97.4581 37.1698 98.1607C37.5563 98.6701 38.1535 99.0039 38.8386 99.0039C39.9804 99.0039 40.9114 98.0729 40.9114 96.9311C40.9114 96.0001 40.3142 95.2271 39.471 94.9461C40.2615 94.4894 41.1574 94.5245 42.0357 94.5245H45.8827V94.5421Z" fill="#B93538"/>
</svg>
