<svg width="37" height="37" viewBox="0 0 37 37" fill="none" xmlns="http://www.w3.org/2000/svg">
<mask id="path-1-inside-1" fill="white">
<path d="M37 18.5C37 28.7173 28.7173 37 18.5 37C8.28273 37 0 28.7173 0 18.5C0 8.28273 8.28273 0 18.5 0C28.7173 0 37 8.28273 37 18.5Z"/>
</mask>
<path d="M36 18.5C36 28.165 28.165 36 18.5 36V38C29.2696 38 38 29.2696 38 18.5H36ZM18.5 36C8.83502 36 1 28.165 1 18.5H-1C-1 29.2696 7.73045 38 18.5 38V36ZM1 18.5C1 8.83502 8.83502 1 18.5 1V-1C7.73045 -1 -1 7.73045 -1 18.5H1ZM18.5 1C28.165 1 36 8.83502 36 18.5H38C38 7.73045 29.2696 -1 18.5 -1V1Z" fill="#B93538" mask="url(#path-1-inside-1)"/>
<path d="M27.01 22.9817C25.78 22.9817 24.59 22.7662 23.48 22.3783C23.3061 22.3148 23.1191 22.3054 22.9405 22.3511C22.7618 22.3968 22.5988 22.4959 22.47 22.6369L20.9 24.7595C18.07 23.3049 15.42 20.5574 14.01 17.4004L15.96 15.6118C16.23 15.3101 16.31 14.8899 16.2 14.5128C15.83 13.3168 15.64 12.0346 15.64 10.7093C15.64 10.1274 15.19 9.64258 14.65 9.64258H11.19C10.65 9.64258 10 9.90117 10 10.7093C10 20.719 17.73 29.0371 27.01 29.0371C27.72 29.0371 28 28.3583 28 27.7657V24.0484C28 23.4665 27.55 22.9817 27.01 22.9817Z" fill="#B93538"/>
</svg>
