<svg width="276" height="587" viewBox="0 0 276 587" fill="none" xmlns="http://www.w3.org/2000/svg">
<g opacity="0.18">
<path d="M371.646 557.101L282.278 275.084L269.463 279.148L357.54 557.101H371.646Z" fill="#B2B2B2"/>
<path d="M194.489 557.101L282.566 279.148L269.751 275.084L180.383 557.101H194.489Z" fill="#B2B2B2"/>
<path d="M276.014 492.025C157.097 492.025 60.3652 395.293 60.3652 276.375C60.3652 157.458 157.097 60.7263 276.014 60.7263C394.932 60.7263 491.663 157.458 491.663 276.375C491.663 395.293 394.932 492.025 276.014 492.025ZM276.014 64.0735C158.961 64.0735 63.7123 159.322 63.7123 276.375C63.7123 393.428 158.961 488.677 276.014 488.677C393.067 488.677 488.316 393.428 488.316 276.375C488.316 159.275 393.067 64.0735 276.014 64.0735Z" fill="#B2B2B2"/>
<path d="M276.014 523.296C139.834 523.296 29.0929 412.507 29.0929 276.375C29.0929 140.196 139.882 29.4546 276.014 29.4546C412.193 29.4546 522.934 140.244 522.934 276.375C522.934 412.507 412.193 523.296 276.014 523.296ZM276.014 36.1489C143.564 36.1489 35.7871 143.926 35.7871 276.375C35.7871 408.825 143.564 516.602 276.014 516.602C408.463 516.602 516.24 408.825 516.24 276.375C516.24 143.878 408.463 36.1489 276.014 36.1489Z" fill="#B2B2B2"/>
<path d="M323.078 35.9451L275.185 276.318L276.826 276.645L324.72 36.2721L323.078 35.9451Z" fill="#B2B2B2"/>
<path d="M368.815 49.5832L275.185 276.083L276.732 276.723L370.361 50.2226L368.815 49.5832Z" fill="#B2B2B2"/>
<path d="M411.446 72.0594L275.463 275.986L276.855 276.914L412.838 72.9878L411.446 72.0594Z" fill="#B2B2B2"/>
<path d="M448.71 102.424L275.397 275.737L276.581 276.92L449.894 103.607L448.71 102.424Z" fill="#B2B2B2"/>
<path d="M479.451 139.502L275.525 275.485L276.454 276.878L480.38 140.894L479.451 139.502Z" fill="#B2B2B2"/>
<path d="M502.243 181.951L275.718 275.58L276.357 277.127L502.882 183.497L502.243 181.951Z" fill="#B2B2B2"/>
<path d="M516.128 227.668L275.755 275.537L276.081 277.178L516.455 229.309L516.128 227.668Z" fill="#B2B2B2"/>
<path d="M276.197 275.537L275.871 277.178L516.268 324.998L516.595 323.357L276.197 275.537Z" fill="#B2B2B2"/>
<path d="M276.372 275.575L275.732 277.121L502.183 370.922L502.823 369.376L276.372 275.575Z" fill="#B2B2B2"/>
<path d="M276.574 275.609L275.645 277L479.448 413.18L480.378 411.788L276.574 275.609Z" fill="#B2B2B2"/>
<path d="M276.59 275.766L275.406 276.95L448.719 450.262L449.903 449.079L276.59 275.766Z" fill="#B2B2B2"/>
<path d="M276.81 275.91L275.418 276.839L411.598 480.643L412.989 479.713L276.81 275.91Z" fill="#B2B2B2"/>
<path d="M276.836 276.006L275.29 276.646L369.091 503.097L370.637 502.457L276.836 276.006Z" fill="#B2B2B2"/>
<path d="M276.849 276.187L275.208 276.514L323.028 516.911L324.669 516.585L276.849 276.187Z" fill="#B2B2B2"/>
<path d="M276.826 276.375H275.152V521.479H276.826V276.375Z" fill="#B2B2B2"/>
<path d="M275.253 276.347L227.359 516.72L229.001 517.047L276.894 276.674L275.253 276.347Z" fill="#B2B2B2"/>
<path d="M275.236 276.043L181.557 502.543L183.104 503.183L276.782 276.683L275.236 276.043Z" fill="#B2B2B2"/>
<path d="M275.225 275.701L139.241 479.628L140.634 480.556L276.617 276.63L275.225 275.701Z" fill="#B2B2B2"/>
<path d="M275.357 275.772L102.044 449.085L103.228 450.268L276.54 276.955L275.357 275.772Z" fill="#B2B2B2"/>
<path d="M275.573 275.845L71.6222 411.779L72.5504 413.172L276.501 277.238L275.573 275.845Z" fill="#B2B2B2"/>
<path d="M275.642 275.557L49.1664 369.26L49.8062 370.807L276.282 277.103L275.642 275.557Z" fill="#B2B2B2"/>
<path d="M275.825 275.397L35.452 323.29L35.779 324.932L276.152 277.038L275.825 275.397Z" fill="#B2B2B2"/>
<path d="M276.013 275.515H30.9089V277.188H276.013V275.515Z" fill="#B2B2B2"/>
<path d="M35.8142 227.71L35.4877 229.351L275.885 277.171L276.212 275.529L35.8142 227.71Z" fill="#B2B2B2"/>
<path d="M49.9568 181.822L49.3163 183.368L275.768 277.169L276.408 275.623L49.9568 181.822Z" fill="#B2B2B2"/>
<path d="M72.7481 139.492L71.8182 140.883L275.622 277.063L276.552 275.671L72.7481 139.492Z" fill="#B2B2B2"/>
<path d="M103.255 102.464L102.072 103.647L275.385 276.96L276.568 275.777L103.255 102.464Z" fill="#B2B2B2"/>
<path d="M140.597 72.0965L139.206 73.0264L275.385 276.83L276.777 275.9L140.597 72.0965Z" fill="#B2B2B2"/>
<path d="M183.045 49.5773L181.499 50.2178L275.3 276.669L276.846 276.029L183.045 49.5773Z" fill="#B2B2B2"/>
<path d="M229.035 35.8214L227.393 36.1479L275.213 276.545L276.854 276.219L229.035 35.8214Z" fill="#B2B2B2"/>
<path d="M276.826 31.2239H275.152V276.327H276.826V31.2239Z" fill="#B2B2B2"/>
<path d="M302.887 276.375C302.887 291.198 290.885 303.248 276.014 303.248C261.144 303.248 249.142 291.246 249.142 276.375C249.142 261.552 261.144 249.503 276.014 249.503C290.885 249.503 302.887 261.505 302.887 276.375Z" fill="#DADADA"/>
<path d="M316.704 67.7553L274.961 34.0929L277.065 31.4631L318.808 65.1255L316.704 67.7553Z" fill="#B2B2B2"/>
<path d="M235.323 67.7553L233.219 65.1255L274.962 31.4631L277.066 34.0929L235.323 67.7553Z" fill="#B2B2B2"/>
<path d="M182.667 48.2444L181.653 51.4341L233.692 67.9796L234.706 64.7899L182.667 48.2444Z" fill="#B2B2B2"/>
<path d="M180.746 49.1434L155.688 97.6605L158.662 99.1965L183.72 50.6794L180.746 49.1434Z" fill="#B2B2B2"/>
<path d="M156.962 96.8559L102.547 101.443L102.829 104.778L157.243 100.191L156.962 96.8559Z" fill="#B2B2B2"/>
<path d="M101 102.762L96.4133 157.177L99.7488 157.458L104.336 103.044L101 102.762Z" fill="#B2B2B2"/>
<path d="M97.3138 155.963L48.7968 181.022L50.3328 183.996L98.8498 158.937L97.3138 155.963Z" fill="#B2B2B2"/>
<path d="M51.2364 182.076L48.0465 183.09L64.5975 235.13L67.7873 234.115L51.2364 182.076Z" fill="#B2B2B2"/>
<path d="M77.2517 193.235L34.6102 227.347L36.7012 229.961L79.3427 195.849L77.2517 193.235Z" fill="#B2B2B2"/>
<path d="M73.92 139.886L70.5938 140.258L76.6604 194.525L79.9867 194.153L73.92 139.886Z" fill="#B2B2B2"/>
<path d="M124.316 123.341L71.8053 138.497L72.7335 141.713L125.244 126.557L124.316 123.341Z" fill="#B2B2B2"/>
<path d="M138.277 72.0328L123.121 124.544L126.337 125.472L141.492 72.961L138.277 72.0328Z" fill="#B2B2B2"/>
<path d="M140.016 70.9213L139.644 74.2476L193.911 80.3142L194.283 76.988L140.016 70.9213Z" fill="#B2B2B2"/>
<path d="M226.935 34.8374L192.823 77.4789L195.436 79.5699L229.548 36.9284L226.935 34.8374Z" fill="#B2B2B2"/>
<path d="M272.81 63.8345L227.337 37.3924L229.058 34.4757L274.531 60.9657L272.81 63.8345Z" fill="#B2B2B2"/>
<path d="M64.8717 233.551L29.6511 275.281L32.209 277.44L67.4296 235.71L64.8717 233.551Z" fill="#B2B2B2"/>
<path d="M37.0029 227.633L34.0735 229.252L60.5093 277.085L63.4388 275.466L37.0029 227.633Z" fill="#B2B2B2"/>
<path d="M277.066 522.005L274.962 519.375L316.705 485.713L318.809 488.343L277.066 522.005Z" fill="#B2B2B2"/>
<path d="M274.96 522.005L233.217 488.343L235.321 485.713L277.064 519.375L274.96 522.005Z" fill="#B2B2B2"/>
<path d="M233.696 485.377L181.651 501.901L182.664 505.091L234.708 488.568L233.696 485.377Z" fill="#B2B2B2"/>
<path d="M158.613 454.389L155.64 455.926L180.72 504.432L183.693 502.895L158.613 454.389Z" fill="#B2B2B2"/>
<path d="M102.736 448.778L102.454 452.113L156.863 456.722L157.145 453.387L102.736 448.778Z" fill="#B2B2B2"/>
<path d="M99.6526 395.853L96.3175 396.135L100.926 450.544L104.261 450.262L99.6526 395.853Z" fill="#B2B2B2"/>
<path d="M50.359 369.385L48.8217 372.358L97.3277 397.438L98.8651 394.465L50.359 369.385Z" fill="#B2B2B2"/>
<path d="M64.4259 318.321L47.9022 370.366L51.0923 371.379L67.6159 319.334L64.4259 318.321Z" fill="#B2B2B2"/>
<path d="M36.7018 323.681L34.6125 326.297L77.2758 360.381L79.3651 357.766L36.7018 323.681Z" fill="#B2B2B2"/>
<path d="M76.6608 358.82L70.5778 413.087L73.9042 413.46L79.9872 359.193L76.6608 358.82Z" fill="#B2B2B2"/>
<path d="M72.7086 411.709L71.7817 414.925L124.298 430.059L125.225 426.842L72.7086 411.709Z" fill="#B2B2B2"/>
<path d="M126.342 427.96L123.125 428.887L138.259 481.403L141.475 480.477L126.342 427.96Z" fill="#B2B2B2"/>
<path d="M193.982 473.123L139.714 479.201L140.087 482.527L194.354 476.449L193.982 473.123Z" fill="#B2B2B2"/>
<path d="M195.444 473.922L192.829 476.011L226.914 518.675L229.529 516.585L195.444 473.922Z" fill="#B2B2B2"/>
<path d="M229.056 518.992L227.335 516.076L272.808 489.634L274.529 492.55L229.056 518.992Z" fill="#B2B2B2"/>
<path d="M32.2943 276.027L29.7354 278.185L64.9396 319.931L67.4985 317.773L32.2943 276.027Z" fill="#B2B2B2"/>
<path d="M60.5724 276.225L34.1038 324.041L37.0322 325.662L63.5008 277.846L60.5724 276.225Z" fill="#B2B2B2"/>
<path d="M412.192 555.954H139.833V586.795H412.192V555.954Z" fill="#B2B2B2"/>
<path d="M290.93 14.6796C290.93 22.8083 284.379 29.3591 276.251 29.3591C268.122 29.3591 261.571 22.8083 261.571 14.6796C261.571 6.55091 268.122 0.000258242 276.251 0.000258242C284.332 -0.0475575 290.93 6.55091 290.93 14.6796Z" fill="#878787"/>
<path d="M275.007 1.7699C268.6 2.3915 263.579 7.60331 263.293 14.0584H275.007V1.7699Z" fill="#F9B233"/>
<path d="M225.855 34.0924C233.963 34.0924 240.535 27.5203 240.535 19.4131C240.535 11.3059 233.963 4.73364 225.855 4.73364C217.748 4.73364 211.176 11.3059 211.176 19.4131C211.176 27.5203 217.748 34.0924 225.855 34.0924Z" fill="#878787"/>
<path d="M227.146 18.8394H238.813C238.526 12.3843 233.506 7.17251 227.146 6.5509V18.8394Z" fill="#F9B233"/>
<path d="M224.612 6.5509C218.205 7.17251 213.184 12.3843 212.897 18.8394H224.612V6.5509Z" fill="#F9B233"/>
<path d="M190.901 34.6667C190.901 42.7953 184.35 49.346 176.221 49.346C168.092 49.346 161.542 42.7953 161.542 34.6667C161.542 26.538 168.092 19.9872 176.221 19.9872C184.35 19.9872 190.901 26.538 190.901 34.6667Z" fill="#878787"/>
<path d="M177.511 34.093H189.178C188.891 27.6379 183.871 22.426 177.511 21.8044V34.093Z" fill="#F9B233"/>
<path d="M174.977 21.8044C168.57 22.426 163.549 27.6379 163.262 34.093H174.977V21.8044Z" fill="#F9B233"/>
<path d="M145.191 59.4834C145.191 67.6121 138.64 74.1629 130.511 74.1629C122.382 74.1629 115.832 67.6121 115.832 59.4834C115.832 51.3547 122.382 44.8041 130.511 44.8041C138.64 44.8041 145.191 51.3547 145.191 59.4834Z" fill="#878787"/>
<path d="M131.802 58.9095H143.469C143.182 52.4544 138.162 47.2426 131.802 46.621V58.9095Z" fill="#F9B233"/>
<path d="M129.317 46.5731C122.909 47.1947 117.889 52.4067 117.602 58.8618H129.317V46.5731Z" fill="#F9B233"/>
<path d="M105.981 91.1369C105.981 99.2656 99.4305 105.816 91.3018 105.816C83.1731 105.816 76.6223 99.2656 76.6223 91.1369C76.6223 83.0082 83.1731 76.4574 91.3018 76.4574C99.3827 76.4574 105.981 83.056 105.981 91.1369Z" fill="#878787"/>
<path d="M92.5917 90.563H104.259C103.972 84.1078 98.9512 78.896 92.5917 78.2744V90.563Z" fill="#F9B233"/>
<path d="M90.0575 78.2744C83.6502 78.896 78.6297 84.1078 78.3428 90.563H90.0575V78.2744Z" fill="#F9B233"/>
<path d="M71.6004 131.876C72.0308 139.957 65.7669 146.89 57.686 147.273C49.6052 147.703 42.6719 141.439 42.2893 133.358C41.859 125.277 48.1229 118.344 56.2038 117.961C64.2846 117.531 71.2179 123.795 71.6004 131.876Z" fill="#878787"/>
<path d="M58.2103 131.972L69.8294 131.398C69.2078 124.991 63.9481 120.018 57.5886 119.731L58.2103 131.972Z" fill="#F9B233"/>
<path d="M55.0569 119.827C48.6974 120.735 43.9637 126.234 43.9637 132.689L55.6785 132.115L55.0569 119.827Z" fill="#F9B233"/>
<path d="M48.5045 177.062C48.9348 185.143 42.6709 192.076 34.5901 192.459C26.5092 192.889 19.5759 186.625 19.1934 178.545C18.7631 170.464 25.0269 163.53 33.1078 163.148C41.1887 162.718 48.0741 168.981 48.5045 177.062Z" fill="#878787"/>
<path d="M35.0683 177.158L46.6875 176.584C46.0659 170.177 40.8062 165.204 34.4467 164.917L35.0683 177.158Z" fill="#F9B233"/>
<path d="M31.9613 165.012C25.6018 165.969 20.868 171.42 20.868 177.875L32.583 177.301L31.9613 165.012Z" fill="#F9B233"/>
<path d="M33.7802 225.451C34.2106 233.532 27.9467 240.465 19.8658 240.848C11.785 241.278 4.85168 235.014 4.46916 226.934C4.03881 218.853 10.3027 211.919 18.3836 211.537C26.5122 211.107 33.3977 217.323 33.7802 225.451Z" fill="#878787"/>
<path d="M20.3922 225.499L32.0116 224.925C31.39 218.518 26.1302 213.545 19.7708 213.258L20.3922 225.499Z" fill="#F9B233"/>
<path d="M17.2823 213.354C10.9228 214.262 6.18896 219.761 6.18896 226.216L17.9039 225.642L17.2823 213.354Z" fill="#F9B233"/>
<path d="M29.332 276.376C29.7623 284.457 23.4985 291.39 15.4176 291.772C7.33673 292.203 0.40344 285.939 0.0209135 277.858C-0.409428 269.777 5.85445 262.844 13.9353 262.461C22.0162 262.031 28.9017 268.295 29.332 276.376Z" fill="#878787"/>
<path d="M15.8955 276.472L27.5149 275.898C26.8933 269.491 21.6335 264.518 15.274 264.231L15.8955 276.472Z" fill="#F9B233"/>
<path d="M12.7887 264.326C6.42923 265.283 1.69543 270.734 1.69543 277.189L13.4104 276.615L12.7887 264.326Z" fill="#F9B233"/>
<path d="M34.1607 325.578C34.5911 333.659 28.3272 340.592 20.2463 340.975C12.1655 341.405 5.23217 335.141 4.84965 327.06C4.41931 318.979 10.6832 312.046 18.7641 311.663C26.8449 311.233 33.7304 317.497 34.1607 325.578Z" fill="#878787"/>
<path d="M20.773 325.673L32.3922 325.1C31.7706 318.692 26.5109 313.72 20.1514 313.433L20.773 325.673Z" fill="#F9B233"/>
<path d="M17.6165 313.529C11.257 314.485 6.52319 319.936 6.52319 326.391L18.2381 325.817L17.6165 313.529Z" fill="#F9B233"/>
<path d="M49.4627 376.31C49.8931 384.391 43.6292 391.324 35.5483 391.707C27.4675 392.137 20.5342 385.873 20.1517 377.792C19.7213 369.711 25.9852 362.778 34.0661 362.396C42.1947 362.013 49.0802 368.229 49.4627 376.31Z" fill="#878787"/>
<path d="M36.0746 376.406L47.6939 375.832C47.0723 369.425 41.8126 364.452 35.4531 364.165L36.0746 376.406Z" fill="#F9B233"/>
<path d="M32.9646 364.261C26.6051 365.217 21.8713 370.668 21.8713 377.123L33.5863 376.55L32.9646 364.261Z" fill="#F9B233"/>
<path d="M73.7992 421.544C74.2295 429.625 67.9656 436.558 59.8848 436.94C51.8039 437.371 44.8706 431.107 44.4881 423.026C44.0577 414.945 50.3216 408.012 58.4025 407.629C66.4833 407.199 73.3688 413.415 73.7992 421.544Z" fill="#878787"/>
<path d="M60.4123 421.64L72.0315 421.066C71.4099 414.658 66.1501 409.686 59.7906 409.399L60.4123 421.64Z" fill="#F9B233"/>
<path d="M57.2558 409.446C50.8963 410.403 46.1625 415.854 46.1625 422.309L57.8772 421.735L57.2558 409.446Z" fill="#F9B233"/>
<path d="M105.837 460.753C106.267 468.834 100.003 475.767 91.9224 476.149C83.8415 476.58 76.9082 470.316 76.5257 462.235C76.0953 454.154 82.3592 447.221 90.4401 446.838C98.5209 446.456 105.406 452.672 105.837 460.753Z" fill="#878787"/>
<path d="M92.4002 460.849L104.02 460.275C103.398 453.868 98.1382 448.895 91.7787 448.608L92.4002 460.849Z" fill="#F9B233"/>
<path d="M89.2934 448.704C82.9339 449.612 78.2001 455.111 78.2001 461.566L89.915 460.992L89.2934 448.704Z" fill="#F9B233"/>
<path d="M145.764 493.268C146.194 501.349 139.931 508.282 131.85 508.665C123.769 509.095 116.836 502.831 116.453 494.75C116.023 486.669 122.287 479.736 130.367 479.354C138.448 478.923 145.382 485.187 145.764 493.268Z" fill="#878787"/>
<path d="M132.376 493.364L143.995 492.79C143.374 486.382 138.114 481.41 131.755 481.123L132.376 493.364Z" fill="#F9B233"/>
<path d="M129.22 481.218C122.86 482.127 118.126 487.626 118.126 494.081L129.841 493.507L129.22 481.218Z" fill="#F9B233"/>
<path d="M190.185 516.793C190.615 524.874 184.351 531.807 176.271 532.19C168.19 532.62 161.256 526.356 160.874 518.275C160.444 510.194 166.707 503.261 174.788 502.878C182.917 502.448 189.802 508.712 190.185 516.793Z" fill="#878787"/>
<path d="M176.797 516.889L188.416 516.315C187.795 509.908 182.535 504.935 176.176 504.648L176.797 516.889Z" fill="#F9B233"/>
<path d="M173.688 504.744C167.328 505.7 162.595 511.151 162.595 517.606L174.31 517.032L173.688 504.744Z" fill="#F9B233"/>
<path d="M240.487 532.333C240.918 540.414 234.654 547.347 226.573 547.73C218.492 548.16 211.559 541.896 211.176 533.815C210.746 525.734 217.01 518.801 225.091 518.419C233.219 518.036 240.105 524.252 240.487 532.333Z" fill="#878787"/>
<path d="M227.097 532.429L238.717 531.855C238.095 525.448 232.835 520.475 226.476 520.188L227.097 532.429Z" fill="#F9B233"/>
<path d="M223.943 520.284C217.584 521.24 212.85 526.691 212.85 533.146L224.565 532.572L223.943 520.284Z" fill="#F9B233"/>
<path d="M261.238 14.6796C261.238 22.8083 267.789 29.3591 275.918 29.3591C284.046 29.3591 290.597 22.8083 290.597 14.6796C290.597 6.55091 284.046 0.000258242 275.918 0.000258242C267.789 -0.0475575 261.238 6.55091 261.238 14.6796Z" fill="#878787"/>
<path d="M274.626 14.0584H262.958C263.245 7.60331 268.266 2.3915 274.626 1.7699V14.0584Z" fill="#F9B233"/>
<path d="M262.434 536.684C262.434 544.813 268.984 551.364 277.113 551.364C285.242 551.364 291.792 544.813 291.792 536.684C291.792 528.556 285.242 522.005 277.113 522.005C269.032 522.005 262.434 528.604 262.434 536.684Z" fill="#878787"/>
<path d="M275.821 536.111H264.154C264.441 529.656 269.461 524.444 275.821 523.822V536.111Z" fill="#F9B233"/>
<path d="M290.788 276.375C290.788 284.552 284.142 291.15 276.013 291.15C267.885 291.15 261.238 284.504 261.238 276.375C261.238 268.199 267.885 261.6 276.013 261.6C284.142 261.6 290.788 268.199 290.788 276.375Z" fill="#EDEDED"/>
</g>
</svg>
