<svg width="211" height="853" viewBox="0 0 211 853" fill="none" xmlns="http://www.w3.org/2000/svg">
<g opacity="0.18">
<path d="M151.924 262.866L27.7852 238.225L-88.7411 825.26L35.3975 849.902L151.924 262.866Z" fill="#CA9E67"/>
<path d="M149.641 306.857L13.0928 279.752L-14.878 420.663L121.671 447.768L149.641 306.857Z" fill="#B08A5A"/>
<path d="M132.073 194.9L72.0907 182.993L27.785 238.225L151.924 262.866L132.073 194.9Z" fill="#647375"/>
<path d="M131.341 41.4509C120.249 77.4384 102.965 109.968 80.3223 139.559L141.019 151.607C132.197 113.543 128.151 76.6224 131.341 41.4509Z" fill="#647375"/>
<path d="M140.688 151.503L80.7061 139.596L72.0916 182.994L132.074 194.9L140.688 151.503Z" fill="#CA9E67"/>
<path d="M138.038 50.0507L121.905 46.8483L120.98 51.5115L137.113 54.7139L138.038 50.0507Z" fill="#647375"/>
<path d="M128.556 55.4781C127.653 55.2989 127.05 54.3975 127.23 53.4949L134.657 16.0766C134.836 15.1741 135.738 14.5712 136.64 14.7504C137.543 14.9295 138.146 15.831 137.967 16.7335L130.539 54.1518C130.36 55.0544 129.458 55.6572 128.556 55.4781Z" fill="#647375"/>
<path d="M138.637 27.1465C138.167 29.5157 135.876 31.0153 133.544 30.5525C131.175 30.0822 129.675 27.7911 130.138 25.4595C130.608 23.0903 132.899 21.5907 135.231 22.0535C137.563 22.5163 139.107 24.7773 138.637 27.1465Z" fill="#647375"/>
<path d="M55.5822 748.214L-68.5564 723.573L-72.0499 741.173L52.0886 765.814L55.5822 748.214Z" fill="#B08A5A"/>
<path d="M76.9989 640.321L-47.1396 615.68L-50.6332 633.28L73.5054 657.921L76.9989 640.321Z" fill="#B08A5A"/>
<path d="M98.4157 532.429L-25.7229 507.788L-29.2164 525.387L94.9221 550.029L98.4157 532.429Z" fill="#B08A5A"/>
<path opacity="0.3" d="M9.4943 432.771C7.35073 432.346 5.31507 433.74 4.89704 435.846L-71.0802 818.603C-71.5057 820.747 -70.1117 822.783 -68.0057 823.201C-65.8622 823.626 -63.8265 822.232 -63.4085 820.126L12.5613 437.406C13.0244 435.27 11.6379 433.197 9.4943 432.771Z" fill="#1D1D1B"/>
<path opacity="0.3" d="M26.4923 436.146C24.3488 435.72 22.3131 437.114 21.8951 439.22L-54.0821 821.977C-54.5076 824.121 -53.1136 826.157 -51.0077 826.575C-48.8641 827 -46.8284 825.606 -46.4104 823.5L29.5593 440.78C30.0224 438.644 28.6359 436.571 26.4923 436.146Z" fill="#1D1D1B"/>
<path opacity="0.3" d="M43.4904 439.52C41.3468 439.094 39.3112 440.488 38.8931 442.594L-37.0841 825.352C-37.5096 827.495 -36.1156 829.531 -34.0096 829.949C-31.8661 830.374 -29.8304 828.98 -29.4124 826.874L46.5574 444.155C47.0205 442.018 45.634 439.945 43.4904 439.52Z" fill="#1D1D1B"/>
<path opacity="0.3" d="M60.4887 442.894C58.3451 442.468 56.3095 443.862 55.8914 445.968L-20.0858 828.726C-20.5113 830.869 -19.1173 832.905 -17.0113 833.323C-14.9054 833.741 -12.8321 832.355 -12.4141 830.249L63.5557 447.529C64.0188 445.393 62.6322 443.319 60.4887 442.894Z" fill="#1D1D1B"/>
<path opacity="0.3" d="M77.4867 446.268C75.3432 445.842 73.3075 447.236 72.8895 449.342L-3.08773 832.1C-3.51323 834.243 -2.11925 836.279 -0.0132953 836.697C2.09266 837.115 4.16594 835.729 4.58397 833.623L80.5537 450.903C81.0168 448.767 79.6303 446.693 77.4867 446.268Z" fill="#1D1D1B"/>
<path opacity="0.3" d="M94.485 449.642C92.3414 449.217 90.3058 450.61 89.8878 452.716L13.9106 835.474C13.4851 837.618 14.879 839.653 16.985 840.071C19.1285 840.497 21.1642 839.103 21.5823 836.997L97.552 454.277C98.0151 452.141 96.6286 450.068 94.485 449.642Z" fill="#1D1D1B"/>
<path opacity="0.3" d="M11.583 394.684C9.17623 394.207 7.2359 393.939 7.21351 394.051L3.07052 414.923C3.04813 415.036 4.98127 415.537 7.35047 416.007C9.75727 416.485 11.6976 416.753 11.72 416.64L15.863 395.768C15.8928 395.618 13.9522 395.155 11.583 394.684Z" fill="#1D1D1B"/>
<path opacity="0.3" d="M30.6873 398.477C28.2805 397.999 26.3402 397.731 26.3178 397.844L22.1748 418.715C22.1524 418.828 24.0855 419.329 26.4547 419.799C28.8615 420.277 30.8018 420.545 30.8242 420.432L34.9672 399.561C34.9971 399.41 33.0941 398.954 30.6873 398.477Z" fill="#1D1D1B"/>
<path opacity="0.3" d="M49.7915 402.269C47.3847 401.791 45.4444 401.523 45.422 401.636L41.279 422.507C41.2566 422.62 43.1898 423.121 45.559 423.592C47.9282 424.062 49.9061 424.337 49.9285 424.224L54.0715 403.353C54.1013 403.202 52.1983 402.746 49.7915 402.269Z" fill="#1D1D1B"/>
<path opacity="0.3" d="M68.896 406.061C66.4892 405.583 64.5489 405.315 64.5265 405.428L60.3835 426.3C60.3611 426.412 62.2942 426.913 64.6634 427.384C67.0702 427.862 69.0106 428.129 69.033 428.017L73.176 407.145C73.2434 407.002 71.3028 406.539 68.896 406.061Z" fill="#1D1D1B"/>
<path opacity="0.3" d="M88.0369 409.86C85.6301 409.383 83.6898 409.115 83.6674 409.228L79.5244 430.099C79.502 430.212 81.4351 430.713 83.8043 431.183C86.1735 431.654 88.1515 431.929 88.1739 431.816L92.3168 410.945C92.3467 410.794 90.4061 410.331 88.0369 409.86Z" fill="#1D1D1B"/>
<path opacity="0.3" d="M107.141 413.653C104.735 413.175 102.794 412.907 102.772 413.02L98.6289 433.891C98.6065 434.004 100.54 434.505 102.909 434.975C105.316 435.453 107.256 435.721 107.278 435.608L111.421 414.737C111.451 414.586 109.511 414.123 107.141 413.653Z" fill="#1D1D1B"/>
<path opacity="0.3" d="M44.1655 251.209C41.9843 250.777 40.1568 250.531 40.1344 250.644L35.8496 272.23C35.8272 272.343 37.5723 272.806 39.7911 273.247C42.0099 273.687 43.7997 273.925 43.8221 273.812L48.107 252.226C48.1293 252.114 46.3843 251.65 44.1655 251.209Z" fill="#1D1D1B"/>
<path opacity="0.3" d="M61.6909 254.688C59.5097 254.255 57.6822 254.01 57.6598 254.123L53.375 275.709C53.3526 275.821 55.0977 276.285 57.3165 276.726C59.5352 277.166 61.3251 277.404 61.3475 277.291L65.6323 255.705C65.6547 255.592 63.9096 255.129 61.6909 254.688Z" fill="#1D1D1B"/>
<path opacity="0.3" d="M79.2141 258.167C77.0329 257.734 75.2054 257.488 75.183 257.601L70.8982 279.187C70.8758 279.3 72.6209 279.763 74.8397 280.204C77.0584 280.644 78.8483 280.882 78.8707 280.77L83.1555 259.184C83.1779 259.071 81.4328 258.607 79.2141 258.167Z" fill="#1D1D1B"/>
<path opacity="0.3" d="M96.7392 261.645C94.558 261.212 92.7305 260.967 92.7081 261.08L88.4233 282.666C88.4009 282.779 90.146 283.242 92.3648 283.683C94.546 284.116 96.3735 284.361 96.3959 284.248L100.681 262.662C100.703 262.549 98.958 262.086 96.7392 261.645Z" fill="#1D1D1B"/>
<path opacity="0.3" d="M114.264 265.124C112.083 264.691 110.256 264.446 110.233 264.558L105.948 286.144C105.926 286.257 107.671 286.721 109.89 287.161C112.071 287.594 113.899 287.84 113.921 287.727L118.206 266.141C118.228 266.028 116.446 265.557 114.264 265.124Z" fill="#1D1D1B"/>
<path opacity="0.3" d="M131.788 268.602C129.607 268.169 127.779 267.924 127.757 268.037L123.472 289.623C123.45 289.736 125.195 290.199 127.413 290.64C129.595 291.073 131.422 291.318 131.444 291.205L135.729 269.619C135.752 269.507 133.969 269.035 131.788 268.602Z" fill="#1D1D1B"/>
<path opacity="0.3" d="M87.6389 144.842C86.5107 144.618 85.5783 144.589 85.541 144.777L78.5464 180.015C78.5091 180.203 79.3818 180.532 80.51 180.756C81.6381 180.98 82.5706 181.009 82.6079 180.821L89.6024 145.584C89.6398 145.396 88.7671 145.066 87.6389 144.842Z" fill="#1D1D1B"/>
<path opacity="0.3" d="M96.552 146.611C95.4238 146.387 94.4914 146.358 94.4541 146.547L87.4595 181.784C87.4222 181.972 88.2949 182.301 89.4231 182.525C90.5512 182.749 91.4836 182.778 91.521 182.59L98.5155 147.353C98.5529 147.165 97.6802 146.835 96.552 146.611Z" fill="#1D1D1B"/>
<path opacity="0.3" d="M105.502 148.388C104.374 148.164 103.441 148.135 103.404 148.323L96.4094 183.56C96.3721 183.748 97.2448 184.078 98.373 184.302C99.5012 184.526 100.434 184.554 100.471 184.366L107.465 149.129C107.465 148.934 106.593 148.604 105.502 148.388Z" fill="#1D1D1B"/>
<path opacity="0.3" d="M114.415 150.157C113.287 149.933 112.354 149.904 112.317 150.092L105.323 185.33C105.285 185.518 106.158 185.847 107.286 186.071C108.414 186.295 109.347 186.324 109.384 186.136L116.379 150.899C116.416 150.711 115.543 150.381 114.415 150.157Z" fill="#1D1D1B"/>
<path opacity="0.3" d="M123.328 151.926C122.2 151.702 121.268 151.674 121.23 151.862L114.236 187.099C114.199 187.287 115.071 187.616 116.199 187.84C117.328 188.064 118.26 188.093 118.297 187.905L125.292 152.668C125.329 152.48 124.457 152.15 123.328 151.926Z" fill="#1D1D1B"/>
<path opacity="0.3" d="M132.278 153.703C131.15 153.479 130.217 153.45 130.18 153.638L123.186 188.875C123.148 189.063 124.021 189.393 125.149 189.617C126.277 189.841 127.21 189.87 127.247 189.682L134.242 154.444C134.241 154.249 133.369 153.919 132.278 153.703Z" fill="#1D1D1B"/>
<path d="M131.171 315.034L26.9639 294.349L9.19007 383.89L113.397 404.575L131.171 315.034Z" fill="#D8B084"/>
<path d="M115.176 407.234L6.56849 385.676L25.2231 291.697L133.868 313.263L115.213 407.242L115.176 407.234ZM11.8493 382.112L111.657 401.923L128.557 316.782L28.7497 296.971L11.8493 382.112Z" fill="#CA9E67"/>
<path d="M156.891 301.846L8.27026 272.345L5.79194 284.831L154.412 314.332L156.891 301.846Z" fill="#B08A5A"/>
<path d="M156.398 257.266L25.7539 231.334L23.2756 243.819L153.92 269.752L156.398 257.266Z" fill="#B08A5A"/>
<path d="M146.176 139.614L80.1768 126.513L77.6984 138.999L143.698 152.1L146.176 139.614Z" fill="#B08A5A"/>
<path d="M37.6677 197.307L25.7538 231.333L35.7195 233.312L37.6677 197.307Z" fill="#CA9E67"/>
<path d="M89.6643 99.3937L80.1767 126.514L88.1116 128.089L89.6643 99.3937Z" fill="#CA9E67"/>
<path d="M147.728 110.919L138.241 138.039L146.176 139.615L147.728 110.919Z" fill="#CA9E67"/>
<path d="M18.9526 244.524L8.27045 272.345L18.2361 274.323L18.9526 244.524Z" fill="#CA9E67"/>
<path d="M156.591 271.845L145.872 299.659L155.837 301.637L156.591 271.845Z" fill="#CA9E67"/>
<path d="M158.384 221.269L146.471 255.296L156.399 257.266L158.384 221.269Z" fill="#CA9E67"/>
<path opacity="0.5" d="M66.0341 232.215L58.024 230.625L60.5172 218.064C60.9502 215.883 63.0685 214.466 65.2497 214.899L65.3249 214.914C67.5061 215.347 68.9227 217.466 68.4898 219.647L65.9965 232.207L66.0341 232.215Z" fill="#1D1D1B"/>
<path opacity="0.5" d="M86.3046 236.238L78.2945 234.648L80.7877 222.088C81.2207 219.907 83.339 218.49 85.5202 218.923L85.5954 218.938C87.7766 219.371 89.1932 221.489 88.7603 223.67L86.267 236.231L86.3046 236.238Z" fill="#1D1D1B"/>
<path opacity="0.5" d="M106.573 240.262L98.5628 238.672L101.056 226.111C101.489 223.93 103.607 222.513 105.789 222.946L105.864 222.961C108.045 223.394 109.462 225.513 109.029 227.694L106.535 240.254L106.573 240.262Z" fill="#1D1D1B"/>
<path opacity="0.5" d="M126.843 244.285L118.833 242.695L121.327 230.135C121.76 227.954 123.878 226.537 126.059 226.97L126.134 226.985C128.315 227.418 129.732 229.536 129.299 231.717L126.806 244.278L126.843 244.285Z" fill="#1D1D1B"/>
<path opacity="0.5" d="M80.8315 210.839L72.8213 209.249L75.3146 196.689C75.7475 194.508 77.8659 193.091 80.0471 193.524L80.1223 193.539C82.3034 193.972 83.7201 196.09 83.2871 198.271L80.7939 210.832L80.8315 210.839Z" fill="#1D1D1B"/>
<path opacity="0.5" d="M101.102 214.863L93.0918 213.273L95.5851 200.713C96.018 198.531 98.1364 197.115 100.318 197.548L100.393 197.563C102.574 197.996 103.991 200.114 103.558 202.295L101.064 214.856L101.102 214.863Z" fill="#1D1D1B"/>
<path opacity="0.5" d="M121.371 218.886L113.36 217.296L115.854 204.736C116.287 202.555 118.405 201.138 120.586 201.571L120.661 201.586C122.842 202.019 124.259 204.137 123.826 206.318L121.333 218.879L121.371 218.886Z" fill="#1D1D1B"/>
<path opacity="0.5" d="M104.493 126.884L99.7922 125.951L101.248 118.618C101.502 117.339 102.764 116.495 104.042 116.749L104.08 116.757C105.359 117.01 106.202 118.272 105.949 119.551L104.493 126.884Z" fill="#1D1D1B"/>
<path opacity="0.5" d="M113.596 109.186L108.895 108.253L110.351 100.92C110.605 99.6414 111.867 98.7975 113.146 99.0513L113.183 99.0587C114.462 99.3125 115.306 100.575 115.052 101.853L113.596 109.186Z" fill="#1D1D1B"/>
<path opacity="0.5" d="M126.569 111.762L121.869 110.828L123.324 103.495C123.578 102.217 124.84 101.373 126.119 101.626L126.156 101.634C127.435 101.888 128.279 103.15 128.025 104.428L126.569 111.762Z" fill="#1D1D1B"/>
<path opacity="0.5" d="M116.339 129.236L111.638 128.303L113.094 120.969C113.347 119.691 114.609 118.847 115.888 119.101L115.926 119.108C117.204 119.362 118.048 120.624 117.794 121.902L116.339 129.236Z" fill="#1D1D1B"/>
<path opacity="0.5" d="M124.132 89.9749L119.431 89.0418L120.887 81.7086C121.141 80.4299 122.403 79.586 123.681 79.8398L123.719 79.8472C124.997 80.101 125.841 81.363 125.588 82.6417L124.132 89.9749Z" fill="#1D1D1B"/>
<path opacity="0.5" d="M128.223 131.595L123.522 130.662L124.978 123.328C125.231 122.05 126.493 121.206 127.772 121.46L127.81 121.467C129.088 121.721 129.932 122.983 129.678 124.261L128.223 131.595Z" fill="#1D1D1B"/>
<path d="M62.3583 388.971C84.187 393.304 105.395 379.121 109.728 357.293C114.061 335.464 99.8781 314.256 78.0494 309.923C56.2208 305.59 35.0126 319.773 30.6796 341.601C26.3466 363.43 40.5297 384.638 62.3583 388.971Z" fill="white"/>
<path d="M63.9114 381.149C46.4244 377.678 35.0309 360.641 38.5021 343.154C41.9732 325.667 59.0101 314.274 76.4971 317.745C93.984 321.216 105.378 338.253 101.906 355.74C98.4352 373.227 81.3983 384.62 63.9114 381.149ZM76.0567 319.964C59.8107 316.739 43.9456 327.349 40.7208 343.594C37.496 359.84 48.1058 375.705 64.3518 378.93C80.5977 382.155 96.4628 371.545 99.6876 355.299C102.912 339.053 92.3402 323.196 76.0567 319.964Z" fill="#C6C6C6"/>
<path d="M66.0898 370.168C54.6951 367.906 47.2502 356.774 49.512 345.379C51.7739 333.984 62.9064 326.539 74.3012 328.801C85.6959 331.063 93.1409 342.196 90.879 353.59C88.6172 364.985 77.5222 372.437 66.0898 370.168ZM73.8682 330.982C63.6769 328.959 53.7162 335.621 51.6932 345.812C49.6702 356.003 56.3315 365.964 66.5228 367.987C76.7141 370.01 86.6749 363.349 88.6978 353.157C90.7208 342.966 84.0595 333.005 73.8682 330.982Z" fill="#C6C6C6"/>
<path d="M96.1027 318.52L82.6638 333.863L84.3654 335.353L97.8042 320.01L96.1027 318.52Z" fill="#C6C6C6"/>
<path d="M108.314 335.701L89.0015 342.261L89.729 344.403L109.042 337.843L108.314 335.701Z" fill="#C6C6C6"/>
<path d="M110.276 356.698L90.2698 352.726L89.8294 354.945L109.836 358.916L110.276 356.698Z" fill="#C6C6C6"/>
<path d="M86.1514 362.466L84.6606 364.168L100.001 377.61L101.491 375.909L86.1514 362.466Z" fill="#C6C6C6"/>
<path d="M77.7415 368.75L75.5999 369.478L82.164 388.79L84.3057 388.062L77.7415 368.75Z" fill="#C6C6C6"/>
<path d="M67.2869 370.054L65.0681 369.614L61.0968 389.62L63.3156 390.061L67.2869 370.054Z" fill="#C6C6C6"/>
<path d="M55.8841 364.427L42.4417 379.767L44.1429 381.258L57.5853 365.918L55.8841 364.427Z" fill="#C6C6C6"/>
<path d="M50.5115 355.347L31.2002 361.911L31.9282 364.053L51.2395 357.489L50.5115 355.347Z" fill="#C6C6C6"/>
<path d="M50.4075 344.814L30.4009 340.842L29.9605 343.061L49.967 347.032L50.4075 344.814Z" fill="#C6C6C6"/>
<path d="M40.2166 322.191L38.7258 323.892L54.0659 337.335L55.5567 335.633L40.2166 322.191Z" fill="#C6C6C6"/>
<path d="M58.0994 310.948L55.9578 311.676L62.5219 330.987L64.6636 330.259L58.0994 310.948Z" fill="#C6C6C6"/>
<path d="M79.1785 310.147L76.9597 309.706L72.9884 329.713L75.2072 330.153L79.1785 310.147Z" fill="#C6C6C6"/>
<path d="M61.9184 391.19C38.9033 386.622 23.8929 364.176 28.4613 341.161C33.0298 318.146 55.4753 303.136 78.4904 307.704C101.505 312.273 116.516 334.718 111.947 357.733C107.379 380.748 84.9335 395.759 61.9184 391.19ZM77.6095 312.142C57.0388 308.059 36.9822 321.472 32.8989 342.042C28.8156 362.613 42.2211 382.707 62.7918 386.79C83.3625 390.874 103.419 377.461 107.51 356.852C111.631 336.289 98.1802 316.225 77.6095 312.142Z" fill="#7B6A58"/>
<path d="M81.609 359.529L79.1235 361.811L45.4106 322.128L81.609 359.529Z" fill="#7B6A58"/>
<path d="M78.4372 354.639C79.4313 355.735 79.3359 357.397 78.2396 358.391C77.1432 359.385 75.4813 359.29 74.4872 358.193C73.4931 357.097 73.5885 355.435 74.6848 354.441C75.7737 353.485 77.4807 353.55 78.4372 354.639Z" fill="#7B6A58"/>
<path d="M63.6651 356.592L61.6161 353.918L93.2773 331.864L63.6651 356.592Z" fill="#7B6A58"/>
<path d="M85.2309 341.094C84.1719 341.9 82.6452 341.715 81.8016 340.648C80.9955 339.589 81.1813 338.062 82.2478 337.219C83.3068 336.413 84.8334 336.598 85.6771 337.665C86.4832 338.724 86.2974 340.251 85.2309 341.094Z" fill="#7B6A58"/>
</g>
</svg>
