<svg width="145" height="145" viewBox="0 0 145 145" fill="none" xmlns="http://www.w3.org/2000/svg">
<g opacity="0.08">
<path d="M138.512 74.0997L143.518 71.2094L138.512 68.319L143.247 65.0031L138.008 62.559L142.437 58.8443L137.003 56.865L141.092 52.7784L135.508 51.2826L139.224 46.8552L133.531 45.849L136.846 41.1158L131.086 40.6096L133.979 35.6037H128.196L130.64 30.3642L124.88 30.8683L126.859 25.4368L121.165 26.4388L122.661 20.8564L117.077 22.3522L118.081 16.6604L112.649 18.6355L113.153 12.8775L107.912 15.3195L107.914 9.5388L102.906 12.4292L102.404 6.67117L97.6665 9.98712L96.6645 4.29318L92.235 8.00994L90.7392 2.4255L86.6505 6.51208L84.6754 1.08053L80.9566 5.508L78.5146 0.270648L75.1986 5.00596L72.3083 0L69.4179 5.00596L66.1019 0.270648L63.6599 5.51006L59.9431 1.08053L57.966 6.51415L53.8773 2.4255L52.3815 8.00994L47.9541 4.29318L46.95 9.98712L42.2147 6.67117L41.7106 12.4312L36.7025 9.5388V15.3195L31.4631 12.8775L31.9672 18.6355L26.5357 16.6583L27.5397 22.3522L21.9553 20.8564L23.4511 26.4409L17.7592 25.4368L19.7364 30.8683L13.9764 30.3642L16.4205 35.6037H10.6377L13.5301 40.6117L7.77004 41.1137L11.086 45.849L5.39206 46.8531L9.10882 51.2826L3.52438 52.7784L7.61303 56.8671L2.1794 58.8443L6.60894 62.559L1.36952 65.0031L6.10483 68.319L1.09888 71.2094L6.10483 74.0997L1.36952 77.4157L6.60894 79.8598L2.1794 83.5745L7.61303 85.5517L3.52438 89.6403L9.10882 91.1361L5.39206 95.5636L11.086 96.5676L7.77004 101.303L13.5301 101.807L10.6377 106.815H16.4205L13.9764 112.055L19.7364 111.55L17.7572 116.982L23.4511 115.978L21.9553 121.562L27.5397 120.067L26.5357 125.76L31.9672 123.781L31.4631 129.541L36.7046 127.097L36.7025 132.88L41.7106 129.988L42.2126 135.748L46.95 132.432L47.952 138.126L52.3815 134.409L53.8773 139.993L57.966 135.905L59.9431 141.338L63.6599 136.909L66.1019 142.148L69.4179 137.413L72.3083 142.419L75.1986 137.413L78.5146 142.148L80.9587 136.909L84.6734 141.338L86.6505 135.905L90.7392 139.993L92.235 134.409L96.6624 138.126L97.6686 132.432L102.402 135.748L102.906 129.988L107.914 132.88V127.097L113.153 129.541L112.649 123.781L118.081 125.76L117.077 120.067L122.661 121.562L121.165 115.978L126.859 116.982L124.882 111.55L130.64 112.055L128.198 106.813L133.979 106.815L131.088 101.807L136.846 101.305L133.531 96.5676L139.224 95.5656L135.508 91.1361L141.092 89.6403L137.003 85.5517L142.437 83.5745L138.008 79.8577L143.247 77.4157L138.512 74.0997Z" fill="#E1DDBE"/>
<path d="M108.694 108.769C128.704 88.7588 128.704 56.3162 108.694 36.3062C88.6839 16.2962 56.2413 16.2962 36.2313 36.3062C16.2213 56.3162 16.2213 88.7588 36.2313 108.769C56.2413 128.779 88.6839 128.779 108.694 108.769Z" fill="#CB4D5E"/>
<path d="M98.4149 97.3169C112.834 82.8981 112.834 59.5208 98.4149 45.1021C83.9962 30.6834 60.6189 30.6834 46.2002 45.1021C31.7814 59.5208 31.7814 82.8981 46.2002 97.3169C60.6189 111.736 83.9962 111.736 98.4149 97.3169Z" fill="#E1DDBE"/>
<path d="M67.0605 10.1402V17.3753C68.7877 17.208 70.5377 17.1212 72.3082 17.1212C74.0788 17.1212 75.8287 17.2101 77.5559 17.3753V10.1402C75.8246 9.99347 74.0767 9.91496 72.3082 9.91496C70.5397 9.91289 68.7898 9.99347 67.0605 10.1402Z" fill="#3B4063"/>
<path d="M54.4768 12.5657L55.9809 19.6418C57.6357 19.1191 59.3299 18.6708 61.0612 18.301C62.7925 17.9332 64.5238 17.6543 66.2469 17.4581L64.7428 10.382C63.0198 10.5989 61.2926 10.884 59.5613 11.2518C57.8341 11.6195 56.1399 12.0616 54.4768 12.5657Z" fill="#3B4063"/>
<path d="M42.6736 17.5528L45.6156 24.162C47.1258 23.3067 48.6898 22.5154 50.3075 21.7943C51.9252 21.0733 53.5594 20.4432 55.206 19.8915L52.264 13.2823C50.6236 13.8526 48.9935 14.491 47.3779 15.2099C45.7623 15.931 44.1962 16.7161 42.6736 17.5528Z" fill="#3B4063"/>
<path d="M32.1658 24.8873L36.4176 30.7403C37.7172 29.5895 39.0807 28.4904 40.5145 27.4491C41.9484 26.4078 43.4152 25.4513 44.911 24.5691L40.6592 18.7161C39.1737 19.6148 37.711 20.5796 36.2792 21.6188C34.8495 22.658 33.4798 23.7509 32.1658 24.8873Z" fill="#3B4063"/>
<path d="M23.4121 34.2463L28.7879 39.087C29.8209 37.6925 30.9262 36.333 32.11 35.017C33.2959 33.7009 34.5314 32.4592 35.8103 31.2857L30.4345 26.4451C29.168 27.633 27.9387 28.8809 26.7549 30.1949C25.5732 31.5089 24.4616 32.8621 23.4121 34.2463Z" fill="#3B4063"/>
<path d="M16.7966 45.219L23.0629 48.8366C23.7818 47.2582 24.5814 45.6983 25.4677 44.1633C26.354 42.6303 27.3044 41.1572 28.3126 39.7441L22.0464 36.1265C21.0547 37.552 20.1105 39.0272 19.2263 40.5581C18.3399 42.0931 17.5342 43.6468 16.7966 45.219Z" fill="#3B4063"/>
<path d="M12.6047 57.3298L19.4846 59.5652C19.8606 57.8711 20.3172 56.179 20.8647 54.4952C21.4122 52.8114 22.0361 51.1731 22.7282 49.5822L15.8484 47.3468C15.1749 48.948 14.5571 50.5863 14.0117 52.2681C13.4663 53.9498 13.0014 55.6377 12.6047 57.3298Z" fill="#3B4063"/>
<path d="M11.0244 70.0463L18.2183 70.8024C18.2327 69.067 18.3298 67.3171 18.5137 65.5568C18.6997 63.7966 18.9682 62.0632 19.3153 60.3629L12.1194 59.6067C11.793 61.3132 11.5306 63.0445 11.3467 64.8027C11.1628 66.5609 11.0595 68.3087 11.0244 70.0463Z" fill="#3B4063"/>
<path d="M12.1213 82.812L19.3152 82.0558C18.9681 80.3555 18.6995 78.6241 18.5136 76.8618C18.3276 75.1016 18.2326 73.3517 18.2182 71.6162L11.0222 72.3724C11.0573 74.1078 11.1606 75.8577 11.3466 77.6159C11.5325 79.3741 11.7949 81.1075 12.1213 82.812Z" fill="#3B4063"/>
<path d="M15.8503 95.0718L22.7302 92.8364C22.0381 91.2456 21.4141 89.6072 20.8666 87.9234C20.3191 86.2396 19.8625 84.5475 19.4865 82.8534L12.6067 85.0888C13.0013 86.7788 13.4682 88.4688 14.0136 90.1506C14.5591 91.8323 15.1747 93.4727 15.8503 95.0718Z" fill="#3B4063"/>
<path d="M22.0442 106.29L28.3083 102.673C27.3001 101.259 26.3498 99.7885 25.4634 98.2534C24.5792 96.7204 23.7796 95.1606 23.0586 93.5822L16.7944 97.1997C17.532 98.772 18.3398 100.326 19.222 101.859C20.1083 103.39 21.0525 104.865 22.0442 106.29Z" fill="#3B4063"/>
<path d="M30.4367 115.974L35.8125 111.133C34.5336 109.962 33.2961 108.72 32.1122 107.404C30.9284 106.088 29.821 104.729 28.7901 103.334L23.4143 108.175C24.4638 109.559 25.5754 110.912 26.7592 112.226C27.9409 113.538 29.1702 114.786 30.4367 115.974Z" fill="#3B4063"/>
<path d="M40.6592 123.701L44.911 117.848C43.4152 116.967 41.9484 116.009 40.5145 114.968C39.0828 113.926 37.7172 112.827 36.4176 111.676L32.1658 117.529C33.4798 118.666 34.8495 119.759 36.2792 120.798C37.711 121.839 39.1716 122.802 40.6592 123.701Z" fill="#3B4063"/>
<path d="M52.264 129.134L55.206 122.525C53.5615 121.976 51.9273 121.343 50.3075 120.622C48.6898 119.901 47.1258 119.11 45.6156 118.255L42.6736 124.864C44.1942 125.701 45.7602 126.486 47.3758 127.205C48.9935 127.926 50.6236 128.564 52.264 129.134Z" fill="#3B4063"/>
<path d="M64.7449 132.037L66.249 124.961C64.5259 124.765 62.7946 124.488 61.0612 124.118C59.3299 123.75 57.6357 123.3 55.9809 122.779L54.4768 129.855C56.1379 130.357 57.8341 130.799 59.5633 131.167C61.2947 131.533 63.0218 131.82 64.7449 132.037Z" fill="#3B4063"/>
<path d="M77.5584 132.281V125.046C75.8312 125.213 74.0812 125.3 72.3107 125.3C70.5401 125.3 68.7902 125.213 67.063 125.046V132.281C68.7943 132.428 70.5422 132.506 72.3107 132.506C74.0771 132.506 75.827 132.425 77.5584 132.281Z" fill="#3B4063"/>
<path d="M90.1402 129.853L88.6362 122.777C86.9813 123.3 85.2871 123.748 83.5558 124.118C81.8245 124.486 80.0932 124.765 78.3701 124.961L79.8742 132.037C81.5972 131.82 83.3244 131.535 85.0537 131.167C86.7829 130.8 88.4771 130.357 90.1402 129.853Z" fill="#3B4063"/>
<path d="M101.943 124.866L98.9994 118.257C97.4891 119.112 95.9272 119.903 94.3075 120.624C92.6898 121.345 91.0556 121.975 89.4089 122.527L92.3509 129.136C93.9914 128.566 95.6214 127.928 97.2371 127.209C98.8548 126.488 100.423 125.703 101.943 124.866Z" fill="#3B4063"/>
<path d="M112.451 117.532L108.197 111.679C106.898 112.829 105.534 113.928 104.1 114.97C102.669 116.011 101.2 116.968 99.7061 117.85L103.958 123.703C105.445 122.804 106.906 121.839 108.336 120.8C109.768 119.761 111.137 118.666 112.451 117.532Z" fill="#3B4063"/>
<path d="M121.205 108.173L115.829 103.332C114.796 104.726 113.693 106.086 112.507 107.402C111.321 108.718 110.086 109.96 108.807 111.131L114.182 115.972C115.449 114.784 116.678 113.536 117.862 112.222C119.044 110.91 120.155 109.557 121.205 108.173Z" fill="#3B4063"/>
<path d="M127.822 97.1997L121.556 93.5822C120.837 95.1606 120.038 96.7204 119.151 98.2555C118.265 99.7885 117.315 101.262 116.306 102.673L122.573 106.29C123.564 104.865 124.508 103.39 125.393 101.859C126.277 100.326 127.083 98.7699 127.822 97.1997Z" fill="#3B4063"/>
<path d="M132.012 85.0888L125.13 82.8534C124.754 84.5475 124.298 86.2375 123.75 87.9234C123.203 89.6072 122.579 91.2456 121.887 92.8364L128.767 95.0718C129.44 93.4707 130.056 91.8323 130.603 90.1506C131.151 88.4688 131.618 86.7809 132.012 85.0888Z" fill="#3B4063"/>
<path d="M133.593 72.3724L126.397 71.6162C126.382 73.3517 126.285 75.0995 126.101 76.8618C125.915 78.6221 125.647 80.3534 125.3 82.0537L132.493 82.8099C132.82 81.1054 133.082 79.372 133.266 77.6139C133.454 75.8577 133.557 74.1099 133.593 72.3724Z" fill="#3B4063"/>
<path d="M132.495 59.6067L125.3 60.3629C125.645 62.0632 125.915 63.7945 126.101 65.5547C126.287 67.315 126.382 69.0649 126.397 70.8004L133.59 70.0442C133.555 68.3087 133.452 66.5588 133.266 64.8007C133.084 63.0445 132.822 61.3112 132.495 59.6067Z" fill="#3B4063"/>
<path d="M128.769 47.3448L121.889 49.5823C122.581 51.1732 123.205 52.8095 123.752 54.4953C124.3 56.1791 124.756 57.8712 125.132 59.5653L132.012 57.3299C131.618 55.6399 131.151 53.9499 130.605 52.2682C130.058 50.5864 129.442 48.946 128.769 47.3448Z" fill="#3B4063"/>
<path d="M122.573 36.1287L116.306 39.7463C117.315 41.1573 118.265 42.6304 119.151 44.1634C120.036 45.6964 120.837 47.2562 121.556 48.8347L127.82 45.2171C127.083 43.6448 126.275 42.0912 125.391 40.5603C124.508 39.0314 123.564 37.5542 122.573 36.1287Z" fill="#3B4063"/>
<path d="M114.18 26.4451L108.805 31.2878C110.084 32.4592 111.319 33.7009 112.505 35.019C113.691 36.3351 114.796 37.6945 115.829 39.0891L121.205 34.2484C120.155 32.8642 119.044 31.5109 117.86 30.197C116.678 28.8809 115.447 27.633 114.18 26.4451Z" fill="#3B4063"/>
<path d="M103.96 18.7161L99.7078 24.5691C101.201 25.4492 102.67 26.4078 104.102 27.4491C105.534 28.4904 106.9 29.5895 108.199 30.7382L112.451 24.8852C111.137 23.7489 109.767 22.658 108.338 21.6188C106.906 20.5796 105.445 19.6168 103.96 18.7161Z" fill="#3B4063"/>
<path d="M92.3529 13.2848L89.4109 19.894C91.0554 20.4435 92.6897 21.0757 94.3094 21.7968C95.9271 22.5178 97.4911 23.3091 99.0013 24.1624L101.943 17.5532C100.423 16.7144 98.8567 15.9314 97.2411 15.2124C95.6255 14.4934 93.9933 13.855 92.3529 13.2848Z" fill="#3B4063"/>
<path d="M79.872 10.382L78.3679 17.4581C80.091 17.6543 81.8202 17.9312 83.5536 18.301C85.2849 18.6687 86.9791 19.1191 88.634 19.6398L90.138 12.5637C88.4769 12.0596 86.7807 11.6195 85.0515 11.2518C83.3222 10.8861 81.595 10.5989 79.872 10.382Z" fill="#3B4063"/>
<path d="M72.3084 10.8258L73.3042 12.648L75.1244 13.6439L73.3042 14.6397L72.3084 16.4598L71.3126 14.6397L69.4924 13.6439L71.3126 12.648L72.3084 10.8258Z" fill="#E1DDBE"/>
<path d="M59.7535 12.1461L61.1068 13.7204L63.0964 14.3154L61.5221 15.6687L60.925 17.6562L59.5738 16.0819L57.5842 15.4869L59.1585 14.1336L59.7535 12.1461Z" fill="#E1DDBE"/>
<path d="M47.75 16.0469L49.3987 17.3051L51.4688 17.4745L50.2106 19.1252L50.0412 21.1933L48.3905 19.9351L46.3203 19.7657L47.5806 18.115L47.75 16.0469Z" fill="#E1DDBE"/>
<path d="M36.8166 22.3585L38.6925 23.2469L40.7503 22.9825L39.8639 24.8584L40.1284 26.9162L38.2524 26.0298L36.1926 26.2922L37.081 24.4163L36.8166 22.3585Z" fill="#E1DDBE"/>
<path d="M27.4346 30.8063L29.4551 31.2836L31.4137 30.5956L30.9344 32.6161L31.6224 34.5747L29.6018 34.0975L27.6432 34.7834L28.1226 32.7628L27.4346 30.8063Z" fill="#E1DDBE"/>
<path d="M20.0159 41.0187L22.0901 41.0662L23.8628 39.9857L23.8153 42.0621L24.8958 43.8347L22.8195 43.7872L21.0468 44.8656L21.0943 42.7914L20.0159 41.0187Z" fill="#E1DDBE"/>
<path d="M14.8818 52.5512L16.921 52.1648L18.4313 50.7413L18.8155 52.7805L20.239 54.2907L18.1999 54.675L16.6896 56.0985L16.3053 54.0594L14.8818 52.5512Z" fill="#E1DDBE"/>
<path d="M12.2578 64.8977L14.173 64.0981L15.3527 62.3895L16.1523 64.3068L17.8588 65.4865L15.9457 66.286L14.7639 67.9926L13.9643 66.0794L12.2578 64.8977Z" fill="#E1DDBE"/>
<path d="M12.2578 77.5213L13.9643 76.3395L14.7639 74.4264L15.9436 76.1329L17.8588 76.9325L16.1523 78.1142L15.3527 80.0274L14.1709 78.3208L12.2578 77.5213Z" fill="#E1DDBE"/>
<path d="M14.8818 89.8675L16.3053 88.3593L16.6896 86.3202L18.1999 87.7437L20.239 88.128L18.8155 89.6382L18.4313 91.6774L16.921 90.2539L14.8818 89.8675Z" fill="#E1DDBE"/>
<path d="M20.0159 101.4L21.0943 99.6274L21.0468 97.5531L22.8195 98.6316L24.8958 98.584L23.8153 100.357L23.8628 102.431L22.0901 101.353L20.0159 101.4Z" fill="#E1DDBE"/>
<path d="M27.4346 111.612L28.1226 109.656L27.6432 107.635L29.6018 108.321L31.6224 107.844L30.9344 109.803L31.4137 111.821L29.4551 111.135L27.4346 111.612Z" fill="#E1DDBE"/>
<path d="M36.8166 120.06L37.081 118L36.1926 116.127L38.2524 116.391L40.1284 115.503L39.8639 117.56L40.7503 119.436L38.6925 119.172L36.8166 120.06Z" fill="#E1DDBE"/>
<path d="M47.75 126.372L47.5806 124.304L46.3203 122.653L48.3905 122.484L50.0412 121.226L50.2086 123.294L51.4668 124.944L49.3987 125.114L47.75 126.372Z" fill="#E1DDBE"/>
<path d="M59.7535 130.273L59.1585 128.285L57.5842 126.932L59.5738 126.337L60.925 124.763L61.5221 126.75L63.0943 128.103L61.1068 128.698L59.7535 130.273Z" fill="#E1DDBE"/>
<path d="M72.3084 131.593L71.3126 129.771L69.4924 128.777L71.3126 127.779L72.3084 125.959L73.3042 127.779L75.1244 128.775L73.3042 129.773L72.3084 131.593Z" fill="#E1DDBE"/>
<path d="M84.8637 130.273L83.5105 128.698L81.5229 128.103L83.0952 126.75L83.6923 124.763L85.0434 126.337L87.033 126.932L85.4587 128.285L84.8637 130.273Z" fill="#E1DDBE"/>
<path d="M96.8692 126.372L95.2185 125.114L93.1504 124.944L94.4086 123.294L94.578 121.226L96.2267 122.484L98.2968 122.653L97.0386 124.304L96.8692 126.372Z" fill="#E1DDBE"/>
<path d="M107.801 120.06L105.925 119.172L103.867 119.438L104.754 117.56L104.489 115.503L106.365 116.391L108.425 116.127L107.536 118.003L107.801 120.06Z" fill="#E1DDBE"/>
<path d="M117.182 111.615L115.162 111.135L113.205 111.823L113.683 109.803L112.995 107.844L115.015 108.321L116.974 107.635L116.497 109.656L117.182 111.615Z" fill="#E1DDBE"/>
<path d="M124.601 101.4L122.527 101.353L120.755 102.433L120.802 100.357L119.724 98.584L121.798 98.6316L123.571 97.5531L123.523 99.6274L124.601 101.4Z" fill="#E1DDBE"/>
<path d="M129.736 89.8696L127.696 90.2539L126.188 91.6774L125.802 89.6382L124.378 88.128L126.418 87.7437L127.928 86.3202L128.312 88.3593L129.736 89.8696Z" fill="#E1DDBE"/>
<path d="M132.362 77.5213L130.446 78.3208L129.267 80.0294L128.465 78.1142L126.759 76.9325L128.674 76.1329L129.853 74.4264L130.655 76.3395L132.362 77.5213Z" fill="#E1DDBE"/>
<path d="M132.362 64.8977L130.653 66.0774L129.856 67.9926L128.674 66.286L126.759 65.4865L128.465 64.3068L129.265 62.3916L130.446 64.0981L132.362 64.8977Z" fill="#E1DDBE"/>
<path d="M129.736 52.5512L128.312 54.0594L127.928 56.0985L126.418 54.675L124.378 54.2907L125.802 52.7805L126.186 50.7413L127.696 52.1648L129.736 52.5512Z" fill="#E1DDBE"/>
<path d="M124.601 41.0187L123.523 42.7914L123.573 44.8657L121.798 43.7872L119.724 43.8347L120.802 42.0621L120.755 39.9878L122.527 41.0663L124.601 41.0187Z" fill="#E1DDBE"/>
<path d="M117.183 30.8064L116.495 32.765L116.974 34.7835L115.015 34.0976L112.997 34.5749L113.683 32.6163L113.203 30.5978L115.162 31.2837L117.183 30.8064Z" fill="#E1DDBE"/>
<path d="M107.801 22.3585L107.536 24.4183L108.425 26.2922L106.365 26.0278L104.489 26.9162L104.756 24.8584L103.867 22.9825L105.925 23.2469L107.801 22.3585Z" fill="#E1DDBE"/>
<path d="M96.8692 16.0469L97.0366 18.115L98.2968 19.7657L96.2288 19.9351L94.578 21.1933L94.4086 19.1252L93.1504 17.4745L95.2185 17.3051L96.8692 16.0469Z" fill="#E1DDBE"/>
<path d="M84.8637 12.1461L85.4587 14.1336L87.033 15.4869L85.0455 16.0819L83.6923 17.6562L83.0973 15.6687L81.5229 14.3154L83.5105 13.7204L84.8637 12.1461Z" fill="#E1DDBE"/>
<path d="M40.7397 100.512L38.4732 102.421C38.1096 102.726 37.9237 102.997 37.9113 103.235C37.8989 103.47 37.9898 103.702 38.1819 103.929C38.3265 104.1 38.4877 104.226 38.6695 104.311C38.8492 104.394 39.0393 104.421 39.2356 104.39C39.4319 104.359 39.686 104.212 39.998 103.947L41.8512 102.386C41.971 102.284 42.0412 102.212 42.0598 102.171C42.0784 102.129 42.0309 102.041 41.9194 101.908L41.7169 101.667L41.8863 101.524L42.8305 102.644L42.661 102.786L42.5226 102.621C42.4131 102.491 42.3284 102.423 42.2747 102.419C42.2189 102.414 42.1239 102.47 41.9875 102.584L40.1715 104.115C39.9422 104.309 39.7211 104.458 39.5104 104.559C39.2996 104.66 39.0455 104.673 38.748 104.596C38.4505 104.52 38.1344 104.282 37.7997 103.885C37.6241 103.677 37.4753 103.452 37.3576 103.214C37.2378 102.976 37.1882 102.743 37.2026 102.514C37.2192 102.284 37.277 102.1 37.3782 101.96C37.4795 101.819 37.6158 101.677 37.7873 101.532L40.0227 99.6501L39.6343 99.1894L39.8037 99.0448L41.3202 100.846L41.1508 100.991L40.7397 100.512Z" fill="#E1DDBE"/>
<path d="M45.0579 104.716L44.6529 107.943L45.9525 106.458C46.0888 106.301 46.1632 106.185 46.1735 106.113C46.1838 106.038 46.1239 105.943 45.9896 105.828L45.8264 105.687L45.9731 105.52L47.0226 106.437L46.876 106.604L46.7541 106.499C46.6239 106.385 46.5247 106.334 46.4566 106.344C46.3884 106.354 46.3037 106.42 46.2004 106.538L43.5455 109.575L43.3596 109.412L43.9691 104.586L41.7874 107.082C41.6655 107.22 41.6014 107.323 41.5973 107.387C41.5911 107.451 41.6551 107.542 41.7874 107.658L41.9878 107.834L41.8411 108.001L40.7461 107.044L40.8928 106.877L41.0291 106.997C41.1676 107.119 41.2709 107.168 41.339 107.146C41.4072 107.123 41.5291 107.011 41.7027 106.813L43.7873 104.427C43.9009 104.297 43.9608 104.204 43.9649 104.148C43.9691 104.092 43.9112 104.012 43.7914 103.908L43.6034 103.743L43.7501 103.576L45.0579 104.716Z" fill="#E1DDBE"/>
<path d="M49.5036 108.385L47.2103 111.838L47.7289 112.183L47.605 112.369L45.6484 111.069L45.7724 110.883L46.2744 111.216L48.5677 107.763L48.0657 107.431L48.1896 107.245L50.1462 108.544L50.0243 108.73L49.5036 108.385Z" fill="#E1DDBE"/>
<path d="M51.4355 109.338L54.8444 111.015L54.2081 112.373L54.0201 112.282C54.2432 111.443 54.1172 110.908 53.6399 110.672L53.5449 110.625L51.7164 114.344L52.3404 114.649L52.2412 114.848L49.9893 113.74L50.0884 113.542L50.7082 113.848L52.5387 110.129L52.4457 110.084C51.9685 109.848 51.4665 110.075 50.9355 110.763L50.7475 110.67L51.4355 109.338Z" fill="#E1DDBE"/>
<path d="M57.8255 112.329L57.2346 114.178L57.3751 114.224C57.8296 114.368 58.1747 114.195 58.4102 113.703L58.6209 113.771L58.0507 115.558L57.84 115.49C57.9742 114.943 57.7966 114.592 57.3069 114.437L57.1664 114.391L56.5632 116.28L57.309 116.517C57.968 116.728 58.5279 116.457 58.9907 115.707L59.2159 115.78L58.6664 117.184L54.8711 115.974L54.9393 115.763L55.493 115.941L56.7532 111.993L56.1995 111.815L56.2677 111.602L59.9287 112.771L59.5981 114.009L59.3853 113.941C59.3791 113.484 59.2965 113.158 59.1333 112.964C58.9701 112.769 58.7242 112.619 58.3895 112.513L57.8255 112.329Z" fill="#E1DDBE"/>
<path d="M61.5114 117.62L62.2014 113.534L61.6353 113.439L61.6725 113.22L63.9679 113.608C64.6311 113.72 65.1207 114.019 65.4368 114.505C65.7529 114.99 65.8562 115.554 65.7488 116.195C65.693 116.527 65.5814 116.831 65.4141 117.104C65.2467 117.376 65.0195 117.612 64.7344 117.81C64.4492 118.009 64.1724 118.12 63.9017 118.145C63.6332 118.17 63.3109 118.151 62.9349 118.087L60.9102 117.746L60.9473 117.527L61.5114 117.62ZM63.3088 113.722L62.6188 117.808L62.9762 117.868C63.5237 117.961 63.8811 117.856 64.0484 117.554C64.2158 117.252 64.3666 116.713 64.4968 115.936C64.6001 115.329 64.6373 114.885 64.6125 114.608C64.5877 114.331 64.5112 114.137 64.3831 114.032C64.255 113.924 64.0836 113.852 63.8646 113.815L63.3088 113.722Z" fill="#E1DDBE"/>
<path d="M72.4465 114.509L72.5354 118.651L73.1159 118.639L73.1201 118.862L70.8144 118.911L70.8103 118.688L71.4115 118.676L71.3226 114.534L70.7214 114.546L70.7173 114.323L73.023 114.273L73.0271 114.496L72.4465 114.509ZM73.401 115.819L75.3576 118.591L75.8906 118.581L75.8947 118.804L73.4837 118.856L73.4796 118.632L74.0415 118.62L72.5292 116.459L74.0188 114.868C74.1407 114.738 74.2027 114.643 74.2006 114.583C74.1985 114.509 74.1097 114.472 73.932 114.476L73.6242 114.482L73.62 114.259L75.372 114.222L75.3762 114.445L75.2026 114.449C74.9981 114.453 74.8369 114.484 74.7212 114.54C74.6055 114.596 74.4361 114.742 74.2109 114.978L73.401 115.819Z" fill="#E1DDBE"/>
<path d="M78.8806 114.104L79.3516 118.221L79.9714 118.151L79.9962 118.372L77.6637 118.639L77.6389 118.418L78.2381 118.349L77.767 114.232L77.1679 114.3L77.1431 114.079L79.4756 113.812L79.5004 114.034L78.8806 114.104Z" fill="#E1DDBE"/>
<path d="M82.6051 113.249L84.9707 115.482L84.5389 113.554C84.4935 113.352 84.4439 113.224 84.3902 113.172C84.3365 113.12 84.2228 113.112 84.0513 113.151L83.8406 113.199L83.791 112.982L85.1505 112.678L85.2 112.895L85.043 112.93C84.8736 112.968 84.7745 113.017 84.7435 113.079C84.7125 113.139 84.7145 113.246 84.7497 113.401L85.6318 117.339L85.3901 117.393L81.8552 114.05L82.5803 117.286C82.6217 117.467 82.665 117.579 82.7146 117.62C82.7642 117.664 82.8737 117.666 83.0452 117.626L83.3055 117.569L83.3551 117.786L81.9357 118.104L81.8862 117.887L82.0638 117.848C82.2436 117.806 82.3448 117.752 82.3675 117.684C82.3903 117.616 82.3717 117.453 82.3138 117.195L81.6196 114.104C81.5804 113.934 81.5411 113.831 81.4998 113.796C81.4564 113.761 81.3593 113.759 81.2023 113.794L80.9585 113.85L80.9089 113.633L82.6051 113.249Z" fill="#E1DDBE"/>
<path d="M91.2764 113.674L91.5925 114.505C91.2723 115.168 90.8198 115.608 90.2372 115.831C89.667 116.048 89.1092 116.015 88.5617 115.734C88.0142 115.451 87.6237 115.003 87.3902 114.389C87.1526 113.767 87.1568 113.168 87.4006 112.592C87.6444 112.015 88.0307 111.627 88.5575 111.426C88.948 111.278 89.353 111.274 89.7744 111.412C89.8178 111.311 89.8674 111.181 89.9211 111.028L90.136 110.945L90.6215 112.222L90.4066 112.302C89.8777 111.61 89.2868 111.389 88.636 111.637C88.417 111.722 88.26 111.836 88.1691 111.984C88.0782 112.131 88.0534 112.313 88.0989 112.526C88.1443 112.738 88.2828 113.154 88.5162 113.767C88.7435 114.362 88.915 114.804 89.0307 115.096C89.1484 115.387 89.291 115.571 89.4645 115.651C89.636 115.73 89.8467 115.722 90.0967 115.627C90.293 115.552 90.4231 115.463 90.4872 115.362C90.5512 115.261 90.5719 115.151 90.5492 115.034C90.5265 114.916 90.4707 114.74 90.3839 114.511L90.2186 114.079L89.6422 114.298L89.5637 114.09L91.5305 113.34L91.609 113.548L91.2764 113.674Z" fill="#E1DDBE"/>
<path d="M94.4478 113.664L92.3714 110.077L91.8735 110.364L91.762 110.172L93.7763 109.007C94.3589 108.67 94.9271 108.588 95.4808 108.761C96.0345 108.935 96.4745 109.303 96.7989 109.864C96.9683 110.158 97.0758 110.462 97.1191 110.778C97.1646 111.094 97.1398 111.42 97.0468 111.755C96.9539 112.09 96.8113 112.352 96.6192 112.544C96.427 112.734 96.1667 112.926 95.8382 113.116L94.0614 114.145L93.9499 113.953L94.4478 113.664ZM93.3445 109.515L95.4209 113.102L95.7349 112.92C96.2142 112.643 96.4229 112.333 96.3609 111.995C96.2969 111.656 96.0675 111.145 95.6729 110.464C95.3651 109.931 95.111 109.565 94.9147 109.367C94.7184 109.168 94.5366 109.069 94.3713 109.069C94.204 109.069 94.0263 109.123 93.8342 109.234L93.3445 109.515Z" fill="#E1DDBE"/>
<path d="M98.4187 108.749C97.9828 108.218 97.7824 107.656 97.8196 107.061C97.8567 106.466 98.0943 105.987 98.5323 105.627C98.9393 105.292 99.4352 105.152 100.016 105.206C100.598 105.259 101.129 105.577 101.611 106.162C102.061 106.71 102.27 107.274 102.239 107.854C102.206 108.435 101.97 108.906 101.532 109.265C101.057 109.656 100.528 109.796 99.9414 109.691C99.3546 109.586 98.8484 109.272 98.4187 108.749ZM100.621 106.966C100.175 106.422 99.8711 106.073 99.7079 105.916C99.5447 105.761 99.3794 105.664 99.2079 105.627C99.0364 105.59 98.8567 105.65 98.6646 105.809C98.5013 105.943 98.4084 106.092 98.3836 106.255C98.3567 106.42 98.4104 106.606 98.5406 106.813C98.6728 107.022 98.9621 107.4 99.4125 107.947C99.8587 108.491 100.164 108.842 100.328 108.999C100.493 109.158 100.66 109.253 100.834 109.286C101.007 109.319 101.187 109.257 101.373 109.104C101.528 108.976 101.621 108.831 101.65 108.666C101.679 108.503 101.627 108.315 101.497 108.106C101.369 107.9 101.078 107.52 100.621 106.966Z" fill="#E1DDBE"/>
<path d="M102.491 101.96L105.055 103.063L103.627 100.661L104.815 99.3032L104.983 99.4499L104.594 99.8941L107.714 102.623L108.102 102.179L108.27 102.326L106.747 104.067L106.58 103.921L106.976 103.466L104.043 100.9L106.268 104.615L106.164 104.733L102.138 102.999L104.757 105.291C104.902 105.417 105.012 105.483 105.09 105.487C105.166 105.491 105.278 105.41 105.421 105.247L105.526 105.125L105.693 105.272L104.683 106.427L104.516 106.28L104.7 106.069C104.817 105.935 104.865 105.834 104.846 105.766C104.828 105.698 104.749 105.605 104.613 105.485L101.832 103.051L101.394 103.551L101.227 103.404L102.491 101.96Z" fill="#E1DDBE"/>
<path d="M114.447 77.4197L118.736 77.8597L118.821 77.0354L119.042 77.0581L118.759 79.8121L118.538 79.7894L118.629 78.9113L114.645 78.5023L114.555 79.3803L114.333 79.3576L114.387 78.8411C114.41 78.6118 114.424 78.3225 114.431 77.9754L114.433 77.5416L114.447 77.4197Z" fill="#E1DDBE"/>
<path d="M116.862 72.9944H116.877C116.945 72.5667 117.096 72.2547 117.329 72.0564C117.563 71.858 117.819 71.763 118.102 71.7692C118.453 71.7775 118.738 71.9159 118.961 72.1865C119.182 72.4572 119.288 72.8394 119.277 73.3352C119.267 73.8518 119.137 74.2422 118.891 74.5067C118.645 74.7711 118.35 74.9013 118.009 74.893C117.408 74.8806 117.025 74.4778 116.864 73.6844H116.85C116.627 74.3579 116.257 74.6885 115.736 74.6761C115.418 74.6699 115.149 74.5294 114.935 74.2588C114.72 73.986 114.616 73.6431 114.625 73.2278C114.633 72.8063 114.759 72.4696 115.003 72.2217C115.247 71.9717 115.515 71.8519 115.813 71.858C116.335 71.8663 116.687 72.2465 116.862 72.9944ZM116.769 73.3001C116.773 73.1307 116.695 73.0274 116.534 72.9861C116.373 72.9468 116.092 72.922 115.693 72.9138C115.309 72.9055 115.071 72.9303 114.976 72.9902C114.881 73.0501 114.831 73.139 114.829 73.2567C114.827 73.3724 114.875 73.4654 114.974 73.5336C115.073 73.6018 115.342 73.641 115.782 73.6493C116.137 73.6575 116.391 73.6369 116.54 73.5873C116.691 73.5398 116.767 73.4447 116.769 73.3001ZM119.048 73.3414C119.052 73.1886 118.99 73.0729 118.864 72.9923C118.738 72.9117 118.443 72.8663 117.98 72.8559C117.571 72.8477 117.304 72.8807 117.176 72.9592C117.048 73.0357 116.984 73.1555 116.98 73.3187C116.976 73.5129 117.056 73.639 117.222 73.6968C117.387 73.7547 117.664 73.7877 118.054 73.796C118.451 73.8042 118.715 73.7732 118.846 73.7009C118.978 73.6286 119.044 73.5088 119.048 73.3414Z" fill="#E1DDBE"/>
<path d="M114.478 68.5712C114.447 68.1435 114.639 67.7613 115.057 67.4266C115.474 67.0919 116.023 66.8977 116.703 66.8481C117.038 66.8233 117.408 66.8688 117.817 66.9824C118.224 67.096 118.54 67.2717 118.759 67.5072C118.98 67.7448 119.1 67.9886 119.118 68.2406C119.149 68.658 118.949 69.036 118.515 69.3811C118.081 69.724 117.546 69.9203 116.906 69.9657C116.273 70.0133 115.718 69.9017 115.24 69.631C114.765 69.3604 114.511 69.0071 114.478 68.5712ZM118.897 68.2716C118.887 68.1353 118.802 68.0361 118.641 67.9762C118.48 67.9163 117.974 67.9101 117.125 67.9596L116.18 68.0092C115.668 68.0464 115.29 68.1105 115.048 68.1993C114.805 68.2881 114.689 68.408 114.701 68.5608C114.714 68.7427 114.885 68.8501 115.216 68.8811C115.546 68.9121 116.135 68.8976 116.986 68.8336C117.639 68.786 118.096 68.7303 118.354 68.6724C118.612 68.6125 118.769 68.5547 118.825 68.4968C118.881 68.439 118.903 68.3646 118.897 68.2716Z" fill="#E1DDBE"/>
<path d="M113.852 63.3977L118.1 62.6602L117.957 61.8441L118.176 61.8069L118.65 64.534L118.431 64.5712L118.28 63.7014L114.336 64.3873L114.487 65.2571L114.268 65.2943L114.179 64.782C114.139 64.5547 114.075 64.2737 113.987 63.9369L113.873 63.5196L113.852 63.3977Z" fill="#E1DDBE"/>
<path d="M50.8613 36.7916L47.7808 39.1055L47.6465 38.9278L48.1445 38.5539L45.6549 35.2421L45.157 35.616L45.0227 35.4383L46.9648 33.9777L47.0991 34.1553L46.5516 34.5665L49.0411 37.8804L49.3882 37.62C49.5824 37.4754 49.7167 37.3577 49.7931 37.2688C49.8696 37.18 49.9274 37.0436 49.9667 36.8618C50.0059 36.68 50.008 36.4858 49.9729 36.2792C49.9398 36.0726 49.884 35.8577 49.8097 35.6325L49.9791 35.5044L50.8613 36.7916Z" fill="#E1DDBE"/>
<path d="M55.0078 31.8189C54.7578 31.1784 54.7412 30.5813 54.9623 30.0276C55.1813 29.4739 55.5552 29.0917 56.0841 28.8851C56.5759 28.693 57.0882 28.7137 57.6254 28.943C58.1626 29.1744 58.5696 29.6413 58.8443 30.3479C59.1026 31.009 59.1274 31.6102 58.9167 32.1515C58.7059 32.6928 58.3361 33.0668 57.8072 33.2754C57.2349 33.4985 56.6874 33.4696 56.1627 33.1866C55.64 32.9035 55.2536 32.4469 55.0078 31.8189ZM57.6543 30.8065C57.3981 30.1516 57.2184 29.726 57.111 29.5256C57.0056 29.3273 56.8775 29.1826 56.7267 29.0959C56.5759 29.007 56.3837 29.0091 56.1523 29.1C55.956 29.1764 55.8218 29.288 55.7453 29.4368C55.6689 29.5855 55.6627 29.7777 55.7226 30.0173C55.7825 30.2549 55.9416 30.7053 56.1998 31.3664C56.456 32.0213 56.6378 32.449 56.7432 32.6515C56.8506 32.854 56.9808 32.9965 57.1357 33.0812C57.2907 33.1659 57.4808 33.1639 57.706 33.075C57.8919 33.0027 58.0262 32.8911 58.1047 32.7445C58.1832 32.5978 58.1935 32.4036 58.1336 32.166C58.0758 31.9263 57.9146 31.4718 57.6543 30.8065Z" fill="#E1DDBE"/>
<path d="M66.3294 26.3914L68.4408 28.8665L68.2177 26.9038C68.195 26.6972 68.1578 26.5649 68.1103 26.5071C68.0628 26.4492 67.9512 26.4307 67.7777 26.4513L67.5628 26.4761L67.538 26.255L68.9222 26.098L68.947 26.3191L68.7879 26.3377C68.6165 26.3583 68.5111 26.3955 68.4739 26.4534C68.4367 26.5112 68.4264 26.6166 68.445 26.7736L68.8995 30.7837L68.6536 30.8127L65.4988 27.1104L65.8728 30.4057C65.8934 30.5895 65.9265 30.7052 65.9699 30.7528C66.0153 30.8003 66.1248 30.8147 66.2984 30.7941L66.5628 30.7631L66.5876 30.9842L65.1435 31.1474L65.1187 30.9263L65.2984 30.9056C65.4823 30.885 65.5877 30.8416 65.6166 30.7755C65.6455 30.7094 65.6455 30.5462 65.6166 30.2817L65.2592 27.1331C65.2385 26.9616 65.2096 26.8542 65.1724 26.8129C65.1352 26.7715 65.036 26.7612 64.877 26.7798L64.629 26.8087L64.6042 26.5877L66.3294 26.3914Z" fill="#E1DDBE"/>
<path d="M75.6308 30.4779L76.0564 26.3562L75.4841 26.2963L75.5068 26.0752L77.8207 26.3149C78.4901 26.383 78.9984 26.6516 79.3455 27.1165C79.6926 27.5813 79.831 28.1371 79.7649 28.7837C79.7297 29.1205 79.6368 29.4283 79.488 29.7114C79.3372 29.9944 79.1265 30.2444 78.8558 30.4593C78.5831 30.6741 78.3145 30.8043 78.0459 30.8477C77.7794 30.889 77.4571 30.8911 77.077 30.8518L75.0337 30.6411L75.0564 30.42L75.6308 30.4779ZM77.172 26.4719L76.7464 30.5936L77.108 30.6308C77.6596 30.6865 78.0088 30.5605 78.1575 30.2485C78.3063 29.9366 78.4199 29.3891 78.5005 28.6061C78.5645 27.9925 78.5748 27.5483 78.5315 27.2735C78.4881 26.9987 78.4013 26.8107 78.2649 26.7115C78.1306 26.6124 77.953 26.5524 77.734 26.5297L77.172 26.4719Z" fill="#E1DDBE"/>
<path d="M85.9566 30.2032C86.1921 29.5586 86.5743 29.0999 87.1073 28.8293C87.6383 28.5586 88.1713 28.5194 88.7044 28.7136C89.2002 28.8933 89.5721 29.2487 89.8221 29.7776C90.0721 30.3065 90.0679 30.9263 89.8076 31.637C89.5638 32.3043 89.1857 32.7692 88.6692 33.0378C88.1527 33.3043 87.628 33.3415 87.0949 33.1473C86.5185 32.9365 86.126 32.5523 85.9194 31.9944C85.7128 31.4345 85.7252 30.8375 85.9566 30.2032ZM88.6114 31.1928C88.8531 30.5338 88.9977 30.0937 89.0515 29.8747C89.1031 29.6557 89.101 29.4636 89.0473 29.2983C88.9915 29.133 88.849 29.007 88.6135 28.9223C88.4172 28.85 88.2395 28.8458 88.0846 28.9057C87.9296 28.9677 87.7974 29.1061 87.6838 29.3251C87.5701 29.5441 87.3924 29.9863 87.1507 30.6536C86.909 31.3126 86.7623 31.7548 86.7107 31.9779C86.6569 32.201 86.6611 32.3932 86.721 32.5585C86.7809 32.7237 86.9255 32.8477 87.1507 32.9303C87.3387 32.9985 87.5123 33.0047 87.6672 32.9469C87.8242 32.889 87.9585 32.7506 88.0722 32.5316C88.1879 32.3126 88.3676 31.8663 88.6114 31.1928Z" fill="#E1DDBE"/>
<path d="M98.0739 33.6657L97.9788 36.9176L99.1296 35.3144C99.2515 35.1449 99.3135 35.0251 99.3155 34.9487C99.3196 34.8743 99.2494 34.7855 99.1069 34.6822L98.9312 34.5561L99.0614 34.3764L100.194 35.1883L100.063 35.3681L99.9333 35.2751C99.7928 35.1739 99.6895 35.1326 99.6234 35.1491C99.5573 35.1677 99.4787 35.24 99.3878 35.366L97.0346 38.6448L96.8342 38.5002L96.9809 33.6388L95.0471 36.3329C94.9397 36.4837 94.886 36.5912 94.886 36.6573C94.886 36.7234 94.9583 36.806 95.1009 36.9093L95.3178 37.0643L95.1876 37.2461L94.0059 36.397L94.136 36.2172L94.2827 36.3226C94.4335 36.43 94.541 36.4693 94.6071 36.4403C94.6732 36.4114 94.7827 36.2895 94.9376 36.0747L96.7867 33.5004C96.8879 33.3599 96.9375 33.2607 96.9375 33.205C96.9355 33.1492 96.8714 33.0748 96.7413 32.9818L96.5388 32.8351L96.669 32.6554L98.0739 33.6657Z" fill="#E1DDBE"/>
<path d="M34.484 72.5379C34.484 75.9737 31.699 78.7587 28.2633 78.7587C24.8275 78.7587 22.0425 75.9737 22.0425 72.5379C22.0425 69.1021 24.8275 66.3171 28.2633 66.3171C31.699 66.3151 34.484 69.1001 34.484 72.5379Z" fill="#E1DDBE"/>
<path d="M27.8397 73.2487V74.1391C27.3046 74.6432 26.724 74.8953 26.1001 74.8953C25.4906 74.8953 24.9803 74.666 24.5712 74.2073C24.1601 73.7487 23.9556 73.1908 23.9556 72.5338C23.9556 71.8665 24.1725 71.3087 24.6064 70.8562C25.0402 70.4038 25.5381 70.1786 26.1022 70.1786C26.5195 70.1786 26.9017 70.3191 27.2447 70.6001C27.3232 70.5195 27.4141 70.4162 27.5194 70.2922H27.7488V71.6579H27.5194C27.2715 70.8232 26.7984 70.4058 26.1022 70.4058C25.8666 70.4058 25.6807 70.4575 25.5423 70.5629C25.4038 70.6682 25.3191 70.8273 25.284 71.0443C25.2489 71.2591 25.2324 71.6971 25.2324 72.3541C25.2324 72.9904 25.2344 73.4656 25.2406 73.7797C25.2468 74.0937 25.315 74.3168 25.4472 74.4511C25.5795 74.5854 25.7799 74.6536 26.0464 74.6536C26.2571 74.6536 26.41 74.6185 26.505 74.5461C26.6001 74.4738 26.66 74.3788 26.6806 74.261C26.7013 74.1433 26.7116 73.9594 26.7116 73.7135V73.2508H26.096V73.0276H28.2012V73.2508H27.8397V73.2487Z" fill="#CB4D5E"/>
<path d="M30.7567 74.8332H28.3953V74.6101H28.9779V70.4657H28.3953V70.2426H30.829C31.3931 70.2426 31.7959 70.352 32.0397 70.569C32.2835 70.7859 32.4033 71.038 32.4033 71.321C32.4033 71.5586 32.3104 71.7817 32.1224 71.9904C31.9344 72.1991 31.61 72.3354 31.1431 72.3995V72.4139C32.0934 72.5379 32.5707 72.9201 32.5707 73.5647C32.5707 73.949 32.4178 74.2548 32.112 74.4861C31.8063 74.7175 31.3538 74.8332 30.7567 74.8332ZM30.0997 70.4657V72.3024H30.3642C30.7009 72.3024 30.9282 72.2548 31.0418 72.1619C31.1555 72.0689 31.2133 71.8065 31.2133 71.3747C31.2133 71.0152 31.1679 70.7715 31.0749 70.6496C30.9819 70.5256 30.7794 70.4657 30.4633 70.4657H30.0997ZM30.4406 72.5276H30.0977V74.6122H30.3621C30.7732 74.6122 31.0356 74.5461 31.1513 74.4138C31.267 74.2816 31.3249 73.9738 31.3249 73.4924C31.3249 73.1081 31.2567 72.8519 31.1203 72.7218C30.986 72.5916 30.7588 72.5276 30.4406 72.5276Z" fill="#CB4D5E"/>
<path d="M65.0027 63.1661H64.6494L64.6783 63.5112L65.0027 63.1661Z" fill="#3B4063"/>
<path d="M64.5379 59.1768L64.1702 59.3482L64.2549 60.1829L63.4636 59.6395L63.5049 60.2862L63.2508 60.1147L62.9678 60.3895L63.6475 60.8874L63.6743 60.6147L63.945 60.8151L63.8438 61.0444L64.3396 61.9349L65.2011 61.844L65.259 62.5609L65.5544 62.5175L65.7672 61.8708L66.2755 61.5795L66.0069 61.3812L65.5834 61.468L64.8354 61.0692L64.9202 59.8214L64.5379 59.1768Z" fill="#3B4063"/>
<path d="M64.9614 69.6392L64.6495 68.4347L63.5896 68.8706L63.6061 69.8169L64.2838 69.3851L64.1991 70.102L64.9614 69.6392Z" fill="#3B4063"/>
<path d="M65.5974 68.5605L66.1635 67.3085L64.8909 68.4923L65.145 69.1658L65.5974 68.5605Z" fill="#3B4063"/>
<path d="M73.4279 53.27L73.1883 52.8981L72.8618 52.9704L73.273 53.615L73.4279 53.27Z" fill="#3B4063"/>
<path d="M64.5525 67.3438L64.3252 68.0503L64.6496 67.7177L64.5525 67.3438Z" fill="#3B4063"/>
<path d="M63.1663 64.9801L63.6476 64.7631L63.8026 64.2032L63.1663 64.9801Z" fill="#3B4063"/>
<path d="M79.9444 42.1134L79.4445 42.2353L79.3081 42.696C79.3081 42.696 79.8349 43.0059 79.8618 43.0059L79.9444 42.1134Z" fill="#3B4063"/>
<path d="M65.9079 65.385L65.443 65.3148L64.848 64.6454L64.1703 65.1206L65.131 65.5916L64.5939 65.8809L64.7364 66.1102L64.1001 66.5709L65.4699 66.2651L65.5277 66.4779L66.1785 65.9883L65.9079 65.385Z" fill="#3B4063"/>
<path d="M80.9277 42.2353L80.9153 41.3985L80.6447 41.196L80.591 41.6692L80.2935 42.101L80.686 42.5059L80.9277 42.2353Z" fill="#3B4063"/>
<path d="M81.6965 40.4401L81.2109 40.9256L81.4134 41.2768L81.6965 40.4401Z" fill="#3B4063"/>
<path d="M80.5497 45.3261L80.3349 45.1174L80.0105 45.7248L80.5497 45.3261Z" fill="#3B4063"/>
<path d="M74.0213 51.4004L73.668 51.4603L73.9655 51.7743L74.0213 51.4004Z" fill="#3B4063"/>
<path d="M80.0251 44.1279L80.3205 44.7229L80.7254 44.8695L80.5643 44.2745L80.901 43.9109L80.806 43.506L81.1159 43.1795L80.6056 43.0039L80.1862 42.7911L79.9713 43.0039L80.147 43.2622L80.0643 43.6134L79.3082 43.5328L78.8516 43.7229L79.1346 44.101L80.0251 44.1279Z" fill="#3B4063"/>
<path d="M73.3143 52.2371L73.3577 52.768L74.0498 52.6792L74.4299 52.9209L74.4465 52.361L73.6387 52.4354L73.9072 52.1214L73.4713 51.6896L72.9197 51.735V52.4086L73.1593 52.6813L73.3143 52.2371Z" fill="#3B4063"/>
<path d="M68.1269 68.9656L67.817 68.6516L67.7612 69.1537L68.1703 69.4966L68.1269 68.9656Z" fill="#3B4063"/>
<path d="M90.4315 85.4049L90.2601 84.4834L89.0122 83.5103L87.2829 83.4298L86.2065 83.4628L86.1218 84.2706L85.8367 84.7314L85.2706 84.1012L84.5909 83.9318L85.6694 82.8616V82.1984L84.8161 80.8204L84.4773 80.7625L83.7315 80.3287L83.4215 79.7998L83.0393 79.8721L82.7708 79.9589L82.3183 79.8039H82.0497L82.5579 79.6738L82.8823 79.7585L83.436 79.6407L83.7748 79.7956L84.0723 80.0973L84.4525 80.025L84.8202 80.1097L83.8162 78.8639L83.3513 78.2627L83.6467 77.7875L83.9153 77.6862L83.4215 77.4156L83.2087 77.0416L82.996 77.0169L82.4092 75.9363L81.5291 75.4777L80.2812 75.1946L80.2254 74.707L79.9424 74.5356L79.5457 73.1844L79.0912 72.4386L78.7792 70.7114L78.4115 70.137L78.0706 70.1391L77.021 68.5875L76.3992 68.447L75.9178 68.0462L75.1224 67.7322L74.8125 68.0194L74.1865 68.4264L73.3084 68.1433L72.889 68.1991L72.1845 67.9739L71.9717 67.5855L72.3973 67.8004L73.2444 67.8685L73.9509 67.6371L74.1637 67.0773L74.8848 67.102L75.5335 66.6103L74.8703 66.2984L74.8269 65.91L74.5583 65.6951L73.639 66.1889L73.484 66.0009L74.1906 65.4823L75.0397 65.536L75.5335 65.1042L75.6182 64.7137L75.9591 64.4989L76.4529 63.534L76.7648 63.0878L76.7215 62.7737L77.0747 62.1271L76.9467 61.8977L77.2586 61.0032L77.8516 60.5011V59.9268L76.9756 59.1272L76.7917 59.2698L75.2938 59.3194L74.3745 59.1499L74.1059 59.34H73.6534L73.0873 59.1417L72.6927 59.1582L72.6349 59.3586L72.0709 59.5342L71.4634 59.8669L71.2238 59.8524L70.8127 60.185L70.6846 60.0569L71.2362 59.4227L71.8167 58.4847L71.3932 58.7182L70.8684 58.5198L71.1804 58.3153L71.294 57.8835L72.7485 56.7885L73.1741 56.0695L73.6679 55.8939L73.9075 55.2472L73.6534 54.9601L73.9365 54.5035L73.9075 54.2142L73.1741 54.2163L72.8766 54.5365L72.4097 54.3919L71.7031 54.7121L71.0544 54.6419L70.5028 54.8754H70.1929L69.8664 55.1791L69.9367 54.8485L69.6392 54.7183L69.0318 55.2534L69.2156 54.7803L68.381 54.394L68.2405 54.9125L67.9595 55.1295L68.0421 55.6026L67.8727 55.6171L67.9016 56.2059L67.2942 56.3381L67.5917 56.8381L67.3355 57.3422L67.038 57.3566L67.7611 58.0012L68.0153 58.4578L67.2798 58.088L67.0112 58.3194L66.474 57.9641L66.4451 58.2202L66.5877 58.5653L66.4182 58.8235L66.1352 58.2657L65.8811 58.8545L66.1641 59.1706L65.9369 59.4722L66.3749 59.9743L66.7984 59.9846L66.3046 60.1726L65.7964 59.8896L65.9079 60.7077L65.8955 60.9804L66.8273 60.8317L66.2199 61.1354L66.1517 61.3048L66.3501 61.4267L66.9389 61.2098L66.7984 61.3606L67.038 61.6602L66.6021 61.4825L66.4265 61.5982L66.3005 61.999L66.5401 62.1705L66.1868 62.2262L65.9616 62.5713L66.3707 62.7118L66.4616 63.0258L65.7943 62.7717L65.6683 63.2138L65.9348 63.3997L65.7798 63.691L65.4637 63.9204L64.8088 63.9369L64.5278 64.2323L64.7758 64.3873L65.3294 64.3501L65.7034 64.4617L65.6187 64.627H65.191L65.7674 65.1724L65.9513 65.1001L66.2488 65.4141L67.7611 63.8853L67.5194 64.346L67.7467 64.4885L67.2942 64.6476L66.9244 65.5257L66.9678 65.7405L66.5029 66.6331L66.7013 66.7467L66.3046 67.8107L66.4038 68.4987L66.1207 68.9036L66.3315 69.2466L66.6 69.1164L66.1207 69.8788L66.036 70.9407L65.6827 71.2878L65.7096 71.544L66.5029 71.5419L66.3893 70.9965L66.7281 70.2052L66.7013 69.7176L67.1104 69.2135L66.7984 67.8954L67.0959 67.8933L68.0297 66.7715L67.3232 67.8334L67.2384 68.6102L67.507 68.8106L67.5628 68.352L68.0297 67.9615L68.2405 68.6784L68.6227 67.8148L68.538 67.2136L68.8499 67.0525L68.7218 67.8293L69.5131 68.4284L68.8334 68.2466L68.5937 69.2383L68.7487 69.9697L69.1598 70.0668L69.3995 70.7134L68.7921 71.3312L68.1785 72.9406L68.321 73.6616L67.7797 73.3187L67.8087 74.0955L68.5462 75.1285L68.321 74.1802L68.8293 74.0335L70.1329 74.9777L70.1619 74.2298L69.6226 73.8001L69.9635 73.7133L71.0131 74.3703L71.7486 74.2525V73.9364L72.4303 73.9612L72.6287 73.329L74.4695 73.4075L73.2506 73.7298L72.515 75.833L73.422 77.4693L73.8745 77.209V78.0726L74.4695 77.3516L75.2071 77.4631L74.9529 78.3556L75.1802 78.5003L74.4468 79.0746L74.672 80.0787L74.2753 80.841L74.7278 81.4278L75.2649 81.8988L75.7029 81.9402L75.4054 82.1571L74.9116 82.1881L74.4881 81.5869L74.079 81.746L74.4178 82.3327L74.7835 82.56L74.205 82.4339L73.7381 81.9629L72.5522 82.341L72.0151 82.2583L70.7837 82.8637L70.1495 83.7562L69.259 84.3202L68.8768 84.8677L69.4429 84.7644L69.7239 84.8636L69.8106 84.5351L71.0668 84.1983L70.9552 84.8595L71.3932 85.3181L70.9263 85.6631L71.1949 86.1652L71.4903 86.2354L70.6722 87.8035L70.0772 88.006L69.4842 88.4543L69.1867 88.4708L68.4243 88.946L67.8727 88.9481L66.9823 89.5266L67.6888 89.6237L67.7322 90.1423L67.2219 90.3881L68.1268 90.541L67.9016 90.7559L68.2549 90.9563L68.7632 90.8116L69.3561 90.448L70.3189 90.1299L70.4036 90.5761L71.1659 90.76L70.5461 90.9315L70.4738 91.291L71.5213 91.3178V91.1153L72.0419 90.9687L72.5812 91.5843L73.0605 92.1566L74.2608 92.138L74.5439 91.6628L75.11 91.417L75.8868 91.1257L76.1843 90.6939L76.8351 90.3902L75.9446 91.4273L75.0542 92.2765L75.0108 93.2847L74.4034 93.2578L73.9241 93.4314L73.3704 93.1318L71.8167 92.9644L70.7135 93.2578L70.7279 93.8177L70.261 94.264L69.6536 94.2681L69.5545 95.5449L68.9057 96.1358L68.7363 96.4663L68.0153 96.6006L67.8314 97.3299L67.5194 97.3341L67.35 97.7204L66.474 98.3567L66.0794 98.2142L65.4699 98.648V99.2079L66.1352 99.2472L66.1641 98.7452L66.9678 98.9579L67.2984 99.5488L67.695 99.1707L67.5256 98.8856L67.8934 98.3939L68.071 98.6232L68.5235 98.1914L68.8189 98.1873L69.0462 97.6419L69.7383 97.8258L70.2755 97.5799L70.7135 97.6502L71.0255 97.4766L71.3354 97.8919L71.7031 97.863L72.2134 98.2906L72.8064 98.2596L72.6927 97.8712L73.1596 97.6543L73.2877 97.2948L73.1596 96.6502L73.5687 96.2453L73.9075 96.2019L74.0501 95.9416L75.3765 95.6379L76.0707 95.6916L76.8764 96.2473L77.1739 96.1316L78.0499 96.1709L78.5168 96.3403L78.742 95.7804L79.5478 95.3755L80.0994 95.5304L80.8762 95.0119L81.4258 95.1379L81.7109 95.0924L82.091 94.8053L82.2047 95.0924L82.6716 95.361L83.2087 95.0015L84.4236 94.9809L85.188 94.8218L85.9214 95.0614L86.2892 95.1317L86.8408 94.6854L87.4482 94.5656L87.9854 94.0615L88.3531 94.0326L88.7353 94.1193L88.6506 93.702L89.5122 93.1091L90.0493 92.9913L90.0927 92.4479L89.9378 92.0595L90.1051 91.6133L89.132 91.6463L88.4378 91.9066L88.037 91.9789L87.3904 91.7455L87.1507 91.6835L87.3759 91.4748L87.5722 91.4459L87.6362 91.3178L87.0453 91.1691L86.5392 91.3571L87.2499 90.8612L87.7209 90.9087L88.2973 90.6319L88.1279 90.1443H87.5618L87.9854 89.7704L88.2973 89.4667L88.6362 89.7538L89.1589 89.3778L89.3717 89.0493L89.1175 88.9915L89.287 88.7332L88.6796 88.663L88.9192 88.2601L89.2994 88.3593L89.413 88.6465L89.851 88.07L90.2766 87.8965L90.3448 86.816L90.7414 85.8057L90.4315 85.4049Z" fill="#3B4063"/>
<path d="M63.9722 62.5381L64.2697 63.1248L64.5238 62.8934L64.3255 62.4781L63.9722 62.5381Z" fill="#3B4063"/>
<path d="M87.8181 91.4502L87.5598 91.5948L88.0019 91.82L88.3862 91.7188L88.1714 91.4564L87.8181 91.4502Z" fill="#3B4063"/>
<path d="M80.8905 95.3257L79.9009 95.8463L80.3823 95.9455L80.8905 96.3174L81.3843 96.2285V95.9703L81.6239 95.553L81.2583 95.5963L80.8905 95.3257Z" fill="#3B4063"/>
<path d="M70.4324 82.7666L71.3084 82.0724L70.672 82.1489L70.3745 81.5311L69.5977 81.6344C69.5977 81.6344 69.3994 82.2253 69.4138 82.2542L70.4324 82.7666Z" fill="#3B4063"/>
<path d="M66.9407 69.9613L67.1225 71.0356L67.8311 71.3228L68.0419 70.5873L67.5336 69.5419L66.9407 69.9613Z" fill="#3B4063"/>
<path d="M68.9903 77.3307L68.7073 78.2955L69.3291 78.1901L70.2196 77.2976L70.077 76.9092L70.2051 76.2791L68.9903 77.3307Z" fill="#3B4063"/>
<path d="M66.4037 76.5933L65.852 76.4817L66.0628 75.9074L65.852 75.4776L66.2611 75.4177L66.6847 76.6945L66.4595 75.0603L65.4554 75.0066L66.007 74.6017L64.9203 73.0563L64.848 72.3662L64.2984 72.0687L63.1662 71.9571L62.4596 72.4179L62.0361 72.4654L61.8089 72.7236L61.1064 72.8621L60.7634 72.9302L61.5134 72.3373L62.1766 71.9633L61.3853 71.5336L60.8337 71.0502L61.0899 71.5646L60.3275 71.5687L60.4535 72.4158L59.9164 73.1906L59.9866 72.6741L60.2821 72.3146L59.9164 71.67L59.4205 71.7712L59.718 72.1865L59.1375 72.2175L58.8276 71.9034L57.809 72.1658L57.7946 72.6534L57.4702 72.6699L57.2306 73.2732L57.7388 73.4881L57.5983 73.7752L57.0756 73.7897L57.1314 74.0769L56.3959 74.269L56.5942 74.8558L57.4 74.8537L57.274 75.0686L57.9227 74.8496L58.3607 74.864L57.5115 75.7545L56.4517 76.1615L56.8194 76.5045L55.774 76.6966L55.2224 76.4549L54.7575 76.9879L54.5303 76.2979L52.8196 76.0499V76.3474L51.8734 76.0954L51.704 77.1284L52.1709 76.6532L52.2701 77.2854L52.4808 77.399L52.7081 78.0168L52.2845 78.0312L52.2122 77.6717L51.2928 77.7048L52.3527 78.461L53.0882 78.2709L53.3279 78.8597L52.3961 79.0498L52.2701 79.4651L52.5386 79.8369L51.4912 79.8555L51.7308 80.4877L51.3631 80.6344L51.9168 80.9753L52.3692 80.8142L52.0986 81.1613L52.9477 80.9836L53.1729 81.903L55.1955 81.8802L54.5447 82.5434L54.0778 82.2583L53.3155 83.5248L53.6522 83.4814L53.0324 84.345L51.7308 85.2375H52.2535L52.9622 84.7768L53.3981 85.033L54.2762 85.0578L54.8691 84.4648L54.927 84.7396L55.6625 84.8057L54.0076 85.2582L52.7783 85.3077L52.4808 85.7809L51.675 86.0412L51.9581 86.4296L51.7742 86.7891L52.1275 86.8883L51.5346 87.006L51.0263 86.5763L50.828 86.8655L50.6586 86.663L49.6689 87.1858L49.7681 87.4585L52.0573 87.318L51.2928 87.9667L50.3321 88.1878L50.0078 88.9791L50.6152 88.9749L50.7577 89.4212L52.4953 88.853L51.1813 89.7063L50.6296 90.167L51.5635 90.1629L52.7638 89.4997L52.7081 89.9728L51.675 90.4501L52.2411 90.448L52.0717 90.8054L52.989 90.574L53.4663 90.9087L54.7121 90.76L55.9042 90.4108L56.8401 89.7724L56.526 89.0555L57.2368 89.1092L57.0364 89.541L57.7739 89.5389L58.4557 88.8158L58.9639 88.8427L59.1354 88.1506L61.2324 87.913L61.4018 87.4502L61.7138 87.9956L62.1683 87.5638L62.5939 87.7353L63.6703 87.7291L62.9328 86.7829L63.472 86.5494L64.0381 85.8552L63.9245 85.252L64.5215 84.5867L64.7199 83.8388L64.4368 82.1695L63.9823 81.8844L64.5215 81.5373V80.7873L64.0381 80.0415L64.1806 79.2915L63.6146 78.8928L63.8976 78.4568L64.3439 78.5209L64.4926 78.5436L64.4368 77.9961L64.7757 78.0808L65.3438 77.618L65.3996 77.0995L66.2776 77.2131L66.4037 76.5933Z" fill="#3B4063"/>
<path d="M62.1913 57.4621L62.5302 57.7492L63.1665 57.6459L63.8173 57.8153L64.2842 57.1521L64.0569 56.9827L64.2697 56.4352L64.9061 55.8444L64.7925 54.8837L63.1252 56.0675L63.307 56.6274L62.5302 56.272L62.1211 56.7906L62.5157 57.2038L62.1913 57.4621Z" fill="#3B4063"/>
<path d="M62.249 65.7301L62.8978 65.2404L62.3048 65.1991L62.249 65.7301Z" fill="#3B4063"/>
<path d="M62.8567 57.9204L62.5448 58.0795L62.4043 58.3832L62.1501 58.5258L62.615 58.8832L63.4352 58.1621L62.8567 57.9204Z" fill="#3B4063"/>
<path d="M60.9472 62.3645L60.6517 62.7385L60.6228 63.1269L61.1166 62.8211L60.9472 62.3645Z" fill="#3B4063"/>
<path d="M61.1455 60.1375V60.3668L61.6124 60.5528L61.8087 60.0342L61.1455 60.1375Z" fill="#3B4063"/>
<path d="M61.5547 60.7117L61.1745 60.6394L61.2014 61.0691L61.0051 61.5319L61.1456 62.0174L61.5836 62.1166L61.4411 61.5009L61.6249 61.1538L61.5547 60.7117Z" fill="#3B4063"/>
<path d="M61.9802 59.7034L62.0215 59.2881L61.1021 59.189L60.8191 59.348L61.3273 59.8645L61.9802 59.7034Z" fill="#3B4063"/>
<path d="M74.0334 87.4957C74.5768 87.6156 75.1264 88.1693 75.7896 88.1693C75.93 88.1693 76.0767 88.1486 76.2296 88.0866C76.178 88.5887 75.9672 88.9068 75.6863 88.9068C74.9384 88.9068 74.2814 87.7209 73.3558 87.7209C73.3145 87.7209 73.2773 87.7209 73.236 87.7271L74.0149 84.1054C73.5603 84.2934 73.2835 84.686 73.2835 85.2459C73.2835 85.5124 73.3517 85.5537 73.3558 85.6012C72.9942 85.6012 72.7959 85.471 72.7959 85.095C72.7959 84.4009 73.7587 83.7356 74.6305 83.7356C74.7028 83.7356 74.771 83.7418 74.8392 83.7459L74.0334 87.4957Z" fill="#E1DDBE"/>
<path d="M76.773 85.7767C76.7937 85.787 76.8143 85.787 76.8309 85.787C77.0705 85.787 77.4114 85.63 77.6366 85.473L77.6841 85.6135C77.4858 85.8283 77.1408 85.9853 76.7586 86.0473C76.6738 87.0142 76.1532 87.6196 75.5086 87.6196C75.0231 87.6196 74.6719 87.3902 74.6719 86.7931C74.6719 86.1919 75.0272 84.9379 76.1036 84.9379C76.554 84.9399 76.773 85.2271 76.773 85.7767ZM76.3226 86.0638C76.2131 86.037 76.1821 85.9481 76.1821 85.8448C76.1821 85.6982 76.2503 85.6052 76.3433 85.5618C76.333 85.3428 76.2813 85.2581 76.1449 85.2581C75.7731 85.2581 75.4508 86.2147 75.4508 86.727C75.4508 87.0721 75.5189 87.1506 75.7173 87.1506C75.9735 87.1506 76.24 86.6795 76.3226 86.0638Z" fill="#E1DDBE"/>
<path d="M78.3576 85.4421C78.1696 85.4421 78.0292 85.6611 77.9506 85.9235L77.5953 87.6011H76.8433L77.397 84.9876H78.149L78.0911 85.2603C78.3101 85.0103 78.5395 84.9669 78.7027 84.9669C79.0374 84.9669 79.2832 85.1384 79.2832 85.5578C79.2832 85.9813 79.0332 86.6135 79.0332 86.9069C79.0332 87.0371 79.0849 87.1259 79.2419 87.1259C79.4712 87.1259 79.5663 86.9379 79.6799 86.6652H79.8989C79.6055 87.5226 79.2026 87.6321 78.9258 87.6321C78.4713 87.6321 78.3081 87.3387 78.3081 87.0412C78.3081 86.6858 78.5436 86.0433 78.5436 85.7086C78.5457 85.5351 78.4816 85.4421 78.3576 85.4421Z" fill="#E1DDBE"/>
<path d="M82.407 83.9419L81.8058 86.7641C81.7893 86.8323 81.7851 86.8839 81.7851 86.9314C81.7851 87.0781 81.8533 87.1256 82 87.1256C82.2045 87.1256 82.345 86.9273 82.4235 86.6649H82.6425C82.345 87.5161 81.874 87.6008 81.5909 87.6008C81.3079 87.6008 81.1199 87.4438 81.0786 87.1504C80.9215 87.3901 80.6757 87.6318 80.3059 87.6318C79.9505 87.6318 79.6096 87.4128 79.6096 86.7909C79.6096 86.0864 80.0435 84.9625 80.9525 84.9625C81.25 84.9625 81.3761 85.0782 81.3761 85.229V85.2497L81.6323 84.0473L82.407 83.9419ZM81.0744 86.6649L81.3306 85.4687C81.3203 85.4067 81.2728 85.2848 81.1157 85.2848C80.6716 85.2848 80.3844 86.2248 80.3844 86.7166C80.3844 87.1194 80.5517 87.1236 80.6447 87.1236C80.7914 87.1236 81.0062 86.9769 81.0724 86.6897V86.6649H81.0744Z" fill="#E1DDBE"/>
<path d="M84.4525 85.7767C84.4731 85.787 84.4938 85.787 84.5103 85.787C84.75 85.787 85.0909 85.63 85.3161 85.473L85.3636 85.6135C85.1652 85.8283 84.8202 85.9853 84.438 86.0473C84.3533 87.0142 83.8306 87.6196 83.1881 87.6196C82.7025 87.6196 82.3513 87.3902 82.3513 86.7931C82.3513 86.1919 82.7067 84.9379 83.7831 84.9379C84.2335 84.9399 84.4525 85.2271 84.4525 85.7767ZM84.0021 86.0638C83.8926 86.037 83.8616 85.9481 83.8616 85.8448C83.8616 85.6982 83.9298 85.6052 84.0248 85.5618C84.0145 85.3428 83.9628 85.2581 83.8265 85.2581C83.4546 85.2581 83.1323 86.2147 83.1323 86.727C83.1323 87.0721 83.2005 87.1506 83.3988 87.1506C83.6529 87.1506 83.9194 86.6795 84.0021 86.0638Z" fill="#E1DDBE"/>
<path d="M86.0369 85.4421C85.8488 85.4421 85.7084 85.6611 85.6298 85.9235L85.2745 87.6011H84.5225L85.0762 84.9876H85.8282L85.7703 85.2603C85.9893 85.0103 86.2207 84.9669 86.3819 84.9669C86.7166 84.9669 86.9624 85.1384 86.9624 85.5578C86.9624 85.9813 86.7104 86.6135 86.7104 86.9069C86.7104 87.0371 86.762 87.1259 86.919 87.1259C87.0079 87.1259 87.0595 87.1156 87.0926 87.0949C87.0451 87.4709 86.7951 87.6341 86.5182 87.6341C86.1154 87.6341 85.9893 87.3408 85.9893 87.0433C85.9893 86.6879 86.2249 86.0454 86.2249 85.7107C86.2249 85.5351 86.1608 85.4421 86.0369 85.4421Z" fill="#E1DDBE"/>
<path d="M84.8016 88.9626L85.3987 90.1733L86.7354 90.3675L85.7685 91.3096L85.9958 92.6402L84.8016 92.0121L83.6074 92.6402L83.8347 91.3096L82.8699 90.3675L84.2045 90.1733L84.8016 88.9626Z" fill="#E1DDBE"/>
</g>
</svg>
