<svg width="27" height="27" viewBox="0 0 27 27" fill="none" xmlns="http://www.w3.org/2000/svg">
<path fill-rule="evenodd" clip-rule="evenodd" d="M20.0037 6.99642C20.0823 7.0748 20.1446 7.1679 20.1872 7.27041C20.2297 7.37292 20.2516 7.48281 20.2516 7.59379C20.2516 7.70478 20.2297 7.81467 20.1872 7.91718C20.1446 8.01968 20.0823 8.11279 20.0037 8.19117L8.19121 20.0037C8.03278 20.1621 7.8179 20.2511 7.59384 20.2511C7.36978 20.2511 7.1549 20.1621 6.99646 20.0037C6.83803 19.8452 6.74902 19.6304 6.74902 19.4063C6.74902 19.1822 6.83803 18.9674 6.99646 18.8089L18.809 6.99642C18.8873 6.91784 18.9804 6.8555 19.083 6.81297C19.1855 6.77043 19.2954 6.74854 19.4063 6.74854C19.5173 6.74854 19.6272 6.77043 19.7297 6.81297C19.8322 6.8555 19.9253 6.91784 20.0037 6.99642Z" fill="black"/>
<path fill-rule="evenodd" clip-rule="evenodd" d="M6.99642 6.99642C6.91784 7.0748 6.8555 7.1679 6.81297 7.27041C6.77043 7.37292 6.74854 7.48281 6.74854 7.59379C6.74854 7.70478 6.77043 7.81467 6.81297 7.91718C6.8555 8.01968 6.91784 8.11279 6.99642 8.19117L18.8089 20.0037C18.9674 20.1621 19.1822 20.2511 19.4063 20.2511C19.6304 20.2511 19.8452 20.1621 20.0037 20.0037C20.1621 19.8452 20.2511 19.6304 20.2511 19.4063C20.2511 19.1822 20.1621 18.9674 20.0037 18.8089L8.19117 6.99642C8.11279 6.91784 8.01968 6.8555 7.91718 6.81297C7.81467 6.77043 7.70478 6.74854 7.59379 6.74854C7.48281 6.74854 7.37292 6.77043 7.27041 6.81297C7.1679 6.8555 7.0748 6.91784 6.99642 6.99642Z" fill="black"/>
</svg>
