<svg width="608" height="698" viewBox="0 0 608 698" fill="none" xmlns="http://www.w3.org/2000/svg">
<rect x="20" y="21.0371" width="568" height="656.963" stroke="#FDF4F5" stroke-width="40"/>
<path d="M29.7554 42.5222L65.5082 1.03931H117.035L82.3327 42.5222H29.7554Z" fill="#B93538" fill-opacity="0.69"/>
<path d="M117.038 1.03711L82.3299 42.523H53.5713L88.2781 1.03711H117.038Z" fill="#B93538"/>
<path d="M263.83 42.5222L299.583 1.03931H351.11L316.408 42.5222H263.83Z" fill="#B93538" fill-opacity="0.69"/>
<path d="M351.113 1.03711L316.405 42.523H287.646L322.353 1.03711H351.113Z" fill="#B93538"/>
<path d="M497.905 41.4851L533.658 0.00219727H585.185L550.483 41.4851H497.905Z" fill="#B93538" fill-opacity="0.69"/>
<path d="M585.188 0L550.48 41.4859H521.721L556.428 0H585.188Z" fill="#B93538"/>
<path d="M146.793 43.5593L182.546 0.00219727H234.072L199.37 43.5593H146.793Z" fill="#257848" fill-opacity="0.46"/>
<path d="M234.075 0L199.367 43.5602H170.609L205.315 0H234.075Z" fill="#257848"/>
<path d="M380.868 43.5593L416.621 0.00219727H468.147L433.445 43.5593H380.868Z" fill="#257848" fill-opacity="0.46"/>
<path d="M468.15 0L433.442 43.5602H404.684L439.391 0H468.15Z" fill="#257848"/>
<path d="M25.7878 696.962L61.5407 655.479H113.067L78.3652 696.962H25.7878Z" fill="#B93538" fill-opacity="0.69"/>
<path d="M113.07 655.477L78.3623 696.963H49.6038L84.3106 655.477H113.07Z" fill="#B93538"/>
<path d="M259.863 696.962L295.616 655.479H347.142L312.44 696.962H259.863Z" fill="#B93538" fill-opacity="0.69"/>
<path d="M347.145 655.477L312.437 696.963H283.679L318.386 655.477H347.145Z" fill="#B93538"/>
<path d="M493.938 695.925L529.691 654.442H581.217L546.515 695.925H493.938Z" fill="#B93538" fill-opacity="0.69"/>
<path d="M581.22 654.44L546.512 695.926H517.754L552.461 654.44H581.22Z" fill="#B93538"/>
<path d="M142.825 697.999L178.578 654.442H230.105L195.403 697.999H142.825Z" fill="#257848" fill-opacity="0.46"/>
<path d="M230.108 654.44L195.4 698H166.641L201.348 654.44H230.108Z" fill="#257848"/>
<path d="M376.9 697.999L412.653 654.442H464.18L429.478 697.999H376.9Z" fill="#257848" fill-opacity="0.46"/>
<path d="M464.183 654.44L429.475 698H400.716L435.423 654.44H464.183Z" fill="#257848"/>
</svg>
