<svg width="78" height="66" viewBox="0 0 78 66" fill="none" xmlns="http://www.w3.org/2000/svg">
<path d="M30.6092 36.2046H22.9251C22.3559 36.2046 21.9764 35.783 21.9764 35.1505C21.9764 34.518 22.3559 34.0963 22.9251 34.0963H30.6092C31.1784 34.0963 31.5579 34.518 31.5579 35.1505C31.5579 35.783 31.1784 36.2046 30.6092 36.2046Z" fill="#B93538"/>
<path d="M76.2398 65.1874H0.916108C0.63151 65.1874 0.346912 64.9766 0.15718 64.7658C-0.0325527 64.4497 -0.032553 64.1335 0.0623131 63.8173L10.5924 34.8341C10.7822 34.4125 11.0668 34.2017 11.4462 34.2017H15.2409C15.8101 34.2017 16.1895 34.6233 16.1895 35.2556C16.1895 35.888 15.8101 36.3096 15.2409 36.3096H12.0154L2.3391 63.0795H74.8168L65.0456 36.2042H61.8201C61.2509 36.2042 60.8715 35.7826 60.8715 35.1502C60.8715 34.5179 61.2509 34.0963 61.8201 34.0963H65.6148C65.9942 34.0963 66.3737 34.3071 66.4686 34.7287L76.9987 63.7119C77.0936 64.0281 77.0936 64.4497 76.9038 64.6605C76.809 64.9766 76.5244 65.1874 76.2398 65.1874Z" fill="#B93538"/>
<path d="M54.9898 36.2046H46.4518C45.8826 36.2046 45.5032 35.783 45.5032 35.1505C45.5032 34.518 45.8826 34.0963 46.4518 34.0963H54.9898C55.559 34.0963 55.9384 34.518 55.9384 35.1505C55.9384 35.783 55.559 36.2046 54.9898 36.2046Z" fill="#B93538"/>
<path d="M38.578 50.6431C38.2934 50.6431 37.9139 50.4323 37.819 50.1161C37.4396 49.3784 27.8581 33.1477 27.8581 26.9294C27.8581 20.395 32.6963 15.0199 38.578 15.0199C44.4597 15.0199 49.2979 20.395 49.2979 26.9294C49.2979 33.1477 39.8112 49.3784 39.3369 50.1161C39.242 50.5377 38.8626 50.6431 38.578 50.6431ZM38.578 17.2332C33.7398 17.2332 29.7554 21.6597 29.7554 27.0348C29.7554 31.2506 35.5423 42.317 38.578 47.6921C41.6137 42.317 47.4005 31.2506 47.4005 27.0348C47.4005 21.6597 43.4162 17.2332 38.578 17.2332Z" fill="#B93538"/>
<path d="M38.5779 31.0404C36.3012 31.0404 34.4987 29.0378 34.4987 26.5083C34.4987 23.9788 36.3012 21.9763 38.5779 21.9763C40.8547 21.9763 42.6572 23.9788 42.6572 26.5083C42.6572 29.0378 40.8547 31.0404 38.5779 31.0404ZM38.5779 23.9788C37.3447 23.9788 36.396 25.0328 36.396 26.4029C36.396 27.7731 37.3447 28.827 38.5779 28.827C39.8112 28.827 40.7599 27.7731 40.7599 26.4029C40.7599 25.0328 39.8112 23.9788 38.5779 23.9788Z" fill="#B93538"/>
<path d="M18.9407 39.1552C18.3715 39.1552 17.992 38.7337 17.992 38.1013V25.1381C17.992 24.5058 18.3715 24.0842 18.9407 24.0842C19.5099 24.0842 19.8893 24.5058 19.8893 25.1381V38.1013C19.8893 38.6283 19.415 39.1552 18.9407 39.1552Z" fill="#B93538"/>
<path d="M18.9407 30.6183C14.8614 30.6183 11.5411 26.9296 11.5411 22.3978C11.5411 17.866 14.8614 14.1774 18.9407 14.1774C23.0199 14.1774 26.3402 17.866 26.3402 22.3978C26.3402 26.9296 23.0199 30.6183 18.9407 30.6183ZM18.9407 16.2852C15.905 16.2852 13.4385 19.0253 13.4385 22.3978C13.4385 25.7703 15.905 28.5105 18.9407 28.5105C21.9764 28.5105 24.4429 25.7703 24.4429 22.3978C24.4429 19.0253 21.9764 16.2852 18.9407 16.2852Z" fill="#B93538"/>
<path d="M23.8737 39.9988H14.0076C13.4384 39.9988 13.059 39.5772 13.059 38.9447C13.059 38.3123 13.4384 37.8906 14.0076 37.8906H23.8737C24.4429 37.8906 24.8224 38.3123 24.8224 38.9447C24.8224 39.5772 24.4429 39.9988 23.8737 39.9988Z" fill="#B93538"/>
<path d="M58.3101 39.1552C57.7409 39.1552 57.3614 38.7337 57.3614 38.1013V25.1381C57.3614 24.5058 57.7409 24.0842 58.3101 24.0842C58.8793 24.0842 59.2587 24.5058 59.2587 25.1381V38.1013C59.2587 38.6283 58.8793 39.1552 58.3101 39.1552Z" fill="#B93538"/>
<path d="M58.3101 30.6183C54.2309 30.6183 50.9106 26.9296 50.9106 22.3978C50.9106 17.866 54.2309 14.1774 58.3101 14.1774C62.3893 14.1774 65.7096 17.866 65.7096 22.3978C65.7096 26.9296 62.3893 30.6183 58.3101 30.6183ZM58.3101 16.2852C55.2744 16.2852 52.8079 19.0253 52.8079 22.3978C52.8079 25.7703 55.2744 28.5105 58.3101 28.5105C61.3458 28.5105 63.8123 25.7703 63.8123 22.3978C63.8123 19.0253 61.3458 16.2852 58.3101 16.2852Z" fill="#B93538"/>
<path d="M63.2431 39.9988H53.377C52.8078 39.9988 52.4284 39.5772 52.4284 38.9447C52.4284 38.3123 52.8078 37.8906 53.377 37.8906H63.2431C63.8123 37.8906 64.1918 38.3123 64.1918 38.9447C64.1918 39.5772 63.8123 39.9988 63.2431 39.9988Z" fill="#B93538"/>
<path d="M52.4284 11.0151C51.4797 11.0151 50.531 10.8043 49.7721 10.3827C46.7364 10.6989 44.2699 9.0126 44.2699 6.69396C44.2699 5.21845 45.3134 3.95374 47.021 3.32138C47.6851 1.84588 49.4875 0.897339 51.5746 0.897339C54.2308 0.897339 56.4127 2.47823 56.4127 4.5861C56.4127 4.79688 56.4127 4.90227 56.4127 5.11306C56.9819 5.74542 57.2665 6.48317 57.2665 7.22092C57.2665 9.43418 55.0846 11.0151 52.4284 11.0151ZM49.9618 8.27485C50.1516 8.27485 50.2464 8.27485 50.4362 8.38025C51.0054 8.69643 51.7643 8.90721 52.5232 8.90721C54.1359 8.90721 55.4641 8.06407 55.4641 7.32632C55.4641 7.01014 55.2743 6.69396 54.8949 6.37778C54.5154 6.0616 54.3257 5.42924 54.6103 5.00767C54.7051 4.90228 54.7051 4.79688 54.7051 4.69149C54.7051 3.95374 53.4719 3.11059 51.7643 3.11059C50.2464 3.11059 49.0132 3.84834 48.8235 4.5861C48.7286 5.00767 48.444 5.32385 48.0645 5.32385C46.9261 5.64003 46.2621 6.27239 46.2621 6.79935C46.2621 7.5371 47.4953 8.38025 49.2029 8.38025C49.4875 8.38025 49.6772 8.38025 49.9618 8.27485C49.867 8.27485 49.867 8.27485 49.9618 8.27485Z" fill="#B93538"/>
<path d="M24.6326 12.1745C23.6839 12.1745 22.7353 11.9637 21.9764 11.5421C18.9406 11.8583 16.4741 10.172 16.4741 7.85338C16.4741 6.37788 17.5176 5.11316 19.2252 4.4808C19.8893 3.0053 21.6918 2.05676 23.7788 2.05676C26.4351 2.05676 28.617 3.63766 28.617 5.74552C28.617 5.95631 28.617 6.0617 28.617 6.27249C29.1862 6.90484 29.4708 7.6426 29.4708 8.38035C29.3759 10.4882 27.2889 12.1745 24.6326 12.1745ZM22.0712 9.43428C22.261 9.43428 22.3558 9.43428 22.5456 9.53967C23.1147 9.85585 23.8737 10.0666 24.6326 10.0666C26.2453 10.0666 27.5735 9.22349 27.5735 8.48574C27.5735 8.16956 27.3837 7.85338 27.0043 7.5372C26.6248 7.22102 26.4351 6.58866 26.7197 6.16709C26.8145 6.0617 26.8145 5.95631 26.8145 5.85091C26.8145 5.11316 25.5813 4.27002 23.8737 4.27002C22.3558 4.27002 21.1226 5.00777 20.9328 5.74552C20.838 6.16709 20.5534 6.48327 20.1739 6.48327C19.0355 6.79945 18.3714 7.43181 18.3714 7.95877C18.3714 8.69653 19.6047 9.53967 21.3123 9.53967C21.5969 9.53967 21.7866 9.53967 22.0712 9.43428C22.0712 9.43428 21.9764 9.43428 22.0712 9.43428Z" fill="#B93538"/>
<path d="M38.8625 53.6998C33.3603 53.6998 27.8581 52.0135 27.8581 48.8516C27.8581 46.6383 30.6092 44.8466 35.2576 44.2143C35.732 44.1089 36.2063 44.5304 36.3012 45.1628C36.396 45.6898 36.0166 46.2168 35.4474 46.3222C31.463 46.8491 29.6605 48.2193 29.6605 48.8516C29.6605 49.6948 32.7911 51.5919 38.7677 51.5919C44.7443 51.5919 47.8748 49.6948 47.8748 48.8516C47.8748 48.2193 45.9775 46.7437 41.5188 46.3222C41.0445 46.2168 40.5701 45.7952 40.665 45.1628C40.7599 44.6358 41.1393 44.2143 41.7085 44.2143C45.5981 44.6358 49.7722 46.1114 49.7722 48.8516C49.867 52.0135 44.3648 53.6998 38.8625 53.6998Z" fill="#B93538"/>
</svg>
