<svg width="76" height="66" viewBox="0 0 76 66" fill="none" xmlns="http://www.w3.org/2000/svg">
<path d="M32.4001 41.8024H43.327V33.6212H32.4001V41.8024ZM34.7755 36.2603H40.9516V39.1633H34.7755V36.2603Z" fill="#B93538"/>
<path d="M11.4962 37.8441H22.4231V29.663H11.4962V37.8441ZM13.8716 32.302H20.0477V35.205H13.8716V32.302Z" fill="#B93538"/>
<path d="M64.3494 29.663H53.4226V37.8441H64.3494V29.663ZM61.974 35.205H55.798V32.302H61.974V35.205Z" fill="#B93538"/>
<path d="M11.4962 53.81H22.4231V41.6705H11.4962V53.81ZM20.0477 51.171H18.1474V44.3095H20.0477V51.171ZM13.8716 44.3095H15.772V51.171H13.8716V44.3095Z" fill="#B93538"/>
<path d="M64.3494 41.6705H53.4226V53.81H64.3494V41.6705ZM55.798 44.3095H57.6983V51.171H55.798V44.3095ZM61.974 51.171H60.0737V44.3095H61.974V51.171Z" fill="#B93538"/>
<path d="M70.2879 27.0235H75.3951L67.3187 10.3977H22.1859V0.897217H14.8221V10.3977H8.40849L0.450867 27.0235H5.558V59.0877H2.46997V61.7267H24.7988V65.6852H32.4001H43.327H50.9283V61.7267H73.2572V59.0877H70.1692V27.0235H70.2879ZM17.1975 3.53624H19.8105V10.3977H17.1975V3.53624ZM4.37029 24.3845L9.83374 13.0367H14.7033H22.0671H65.7747L71.2381 24.3845H70.1692H44.396L37.8636 18.9745L31.3312 24.3845H5.43923H4.37029ZM7.81464 59.0877V27.0235H28.1244L24.6801 29.7945V59.0877H7.81464ZM34.7755 63.0462V48.7955H40.9516V63.0462H34.7755ZM48.6717 63.0462H43.4458V46.1565H32.5189V63.0462H27.293V31.114L37.9824 22.2733L48.6717 31.114V63.0462ZM47.6028 27.0235H67.9125V59.0877H51.0471V29.7945L47.6028 27.0235Z" fill="#B93538"/>
</svg>
