<svg width="67" height="75" viewBox="0 0 67 75" fill="none" xmlns="http://www.w3.org/2000/svg">
<path d="M65.5821 72.3557H64.5478V31.2046H65.4667C65.9257 31.2046 66.2968 30.7924 66.2968 30.2824C66.2968 29.7724 65.9257 29.3602 65.4667 29.3602H64.5478V20.1242H65.4667C65.9257 20.1242 66.2968 19.712 66.2968 19.202C66.2968 18.692 65.9257 18.2798 65.4667 18.2798H64.5478V2.25629H65.4667C65.9257 2.25629 66.2968 1.84406 66.2968 1.33408C66.2968 0.824095 65.9257 0.411865 65.4667 0.411865H39.63C39.1709 0.411865 38.7999 0.824095 38.7999 1.33408C38.7999 1.84406 39.1709 2.25629 39.63 2.25629H40.548V18.2798H39.63C39.1709 18.2798 38.7999 18.692 38.7999 19.202C38.7999 19.712 39.1709 20.1242 39.63 20.1242H40.548V29.3602H39.63C39.1709 29.3602 38.7999 29.7724 38.7999 30.2824C38.7999 30.7924 39.1709 31.2046 39.63 31.2046H40.548V72.3557H37.8071V41.8811C37.8071 41.3711 37.436 40.9589 36.977 40.9589H35.0362V31.2046H35.4811C35.9402 31.2046 36.3112 30.7924 36.3112 30.2824C36.3112 29.7724 35.9402 29.3602 35.4811 29.3602H34.0384V25.2526C34.0384 24.7427 33.6674 24.3304 33.2083 24.3304H28.539C28.08 24.3304 27.709 24.7427 27.709 25.2526V29.3602H26.0421V7.58946H26.7153C27.1744 7.58946 27.5454 7.17723 27.5454 6.66725C27.5454 6.15726 27.1744 5.74503 26.7153 5.74503H3.04848C2.58943 5.74503 2.21838 6.15726 2.21838 6.66725C2.21838 7.17723 2.58943 7.58946 3.04848 7.58946H3.72085V72.3557H0.834612C0.375569 72.3557 0.0045166 72.7679 0.0045166 73.2779C0.0045166 73.7879 0.375569 74.2001 0.834612 74.2001H65.5821C66.0411 74.2001 66.4122 73.7879 66.4122 73.2779C66.4122 72.7679 66.0411 72.3557 65.5821 72.3557ZM42.2091 2.25629H62.8876V18.2798H42.2091V2.25629ZM42.2091 20.1242H62.8876V29.3602H42.2091V20.1242ZM42.2091 31.2046H62.8876V72.3557H56.153V64.2614C56.153 63.7514 55.782 63.3392 55.3229 63.3392H49.7746C49.3155 63.3392 48.9445 63.7514 48.9445 64.2614V72.3557H42.2091V31.2046ZM54.4928 72.3557H50.6046V65.1836H54.4928V72.3557ZM14.7312 65.1836H20.4564V72.3557H14.7312V65.1836ZM22.1174 65.1836H28.7632V72.3557H22.1174V65.1836ZM30.4234 65.1836H36.1477V72.3557H30.4234V65.1836ZM36.1477 63.3392H14.7312V42.8033H36.1477V63.3392ZM33.3768 40.9589H17.5029V31.2046H33.3768V40.9589ZM29.3691 26.1749H32.3782V29.3602H29.3691V26.1749ZM5.38104 7.58946H24.3828V29.3593H15.3978C14.9388 29.3593 14.5677 29.7715 14.5677 30.2815C14.5677 30.7915 14.9388 31.2037 15.3978 31.2037H15.8427V40.958H13.9011C13.4421 40.958 13.071 41.3702 13.071 41.8802V72.3557H5.38021V7.58946H5.38104Z" fill="#B93538"/>
<path d="M58.7686 56.9706C59.2277 56.9706 59.5987 56.5584 59.5987 56.0484V50.5648C59.5987 50.0548 59.2277 49.6426 58.7686 49.6426C58.3096 49.6426 57.9385 50.0548 57.9385 50.5648V56.0484C57.9385 56.5584 58.3096 56.9706 58.7686 56.9706Z" fill="#B93538"/>
<path d="M58.7686 44.4929C59.2277 44.4929 59.5987 44.0807 59.5987 43.5707V38.0876C59.5987 37.5776 59.2277 37.1654 58.7686 37.1654C58.3096 37.1654 57.9385 37.5776 57.9385 38.0876V43.5707C57.9385 44.0807 58.3096 44.4929 58.7686 44.4929Z" fill="#B93538"/>
<path d="M58.7686 6.60364C58.3096 6.60364 57.9385 7.01587 57.9385 7.52587V13.0094C57.9385 13.5194 58.3096 13.9317 58.7686 13.9317C59.2277 13.9317 59.5987 13.5194 59.5987 13.0094V7.52587C59.5987 7.01587 59.2277 6.60364 58.7686 6.60364Z" fill="#B93538"/>
<path d="M54.6222 56.9706C55.0812 56.9706 55.4522 56.5584 55.4522 56.0484V50.5648C55.4522 50.0548 55.0812 49.6426 54.6222 49.6426C54.1631 49.6426 53.7921 50.0548 53.7921 50.5648V56.0484C53.7921 56.5584 54.1631 56.9706 54.6222 56.9706Z" fill="#B93538"/>
<path d="M54.6222 44.4929C55.0812 44.4929 55.4522 44.0807 55.4522 43.5707V38.0876C55.4522 37.5776 55.0812 37.1654 54.6222 37.1654C54.1631 37.1654 53.7921 37.5776 53.7921 38.0876V43.5707C53.7921 44.0807 54.1631 44.4929 54.6222 44.4929Z" fill="#B93538"/>
<path d="M54.6222 6.60364C54.1631 6.60364 53.7921 7.01587 53.7921 7.52587V13.0094C53.7921 13.5194 54.1631 13.9317 54.6222 13.9317C55.0812 13.9317 55.4522 13.5194 55.4522 13.0094V7.52587C55.4522 7.01587 55.0812 6.60364 54.6222 6.60364Z" fill="#B93538"/>
<path d="M50.4749 56.9706C50.9339 56.9706 51.305 56.5584 51.305 56.0484V50.5648C51.305 50.0548 50.9339 49.6426 50.4749 49.6426C50.0159 49.6426 49.6448 50.0548 49.6448 50.5648V56.0484C49.6448 56.5584 50.0159 56.9706 50.4749 56.9706Z" fill="#B93538"/>
<path d="M50.4749 44.4929C50.9339 44.4929 51.305 44.0807 51.305 43.5707V38.0876C51.305 37.5776 50.9339 37.1654 50.4749 37.1654C50.0159 37.1654 49.6448 37.5776 49.6448 38.0876V43.5707C49.6448 44.0807 50.0159 44.4929 50.4749 44.4929Z" fill="#B93538"/>
<path d="M50.4749 6.60364C50.0159 6.60364 49.6448 7.01587 49.6448 7.52587V13.0094C49.6448 13.5194 50.0159 13.9317 50.4749 13.9317C50.9339 13.9317 51.305 13.5194 51.305 13.0094V7.52587C51.305 7.01587 50.9339 6.60364 50.4749 6.60364Z" fill="#B93538"/>
<path d="M46.3285 49.6426C45.8694 49.6426 45.4984 50.0548 45.4984 50.5648V56.0484C45.4984 56.5584 45.8694 56.9706 46.3285 56.9706C46.7876 56.9706 47.1586 56.5584 47.1586 56.0484V50.5648C47.1586 50.0548 46.7867 49.6426 46.3285 49.6426Z" fill="#B93538"/>
<path d="M46.3285 37.1654C45.8694 37.1654 45.4984 37.5776 45.4984 38.0876V43.5707C45.4984 44.0807 45.8694 44.4929 46.3285 44.4929C46.7876 44.4929 47.1586 44.0807 47.1586 43.5707V38.0876C47.1586 37.5776 46.7867 37.1654 46.3285 37.1654Z" fill="#B93538"/>
<path d="M46.3285 6.60364C45.8694 6.60364 45.4984 7.01587 45.4984 7.52587V13.0094C45.4984 13.5194 45.8694 13.9317 46.3285 13.9317C46.7876 13.9317 47.1586 13.5194 47.1586 13.0094V7.52587C47.1586 7.01587 46.7867 6.60364 46.3285 6.60364Z" fill="#B93538"/>
<path d="M31.8651 59.8158C32.3241 59.8158 32.6952 59.4035 32.6952 58.8935V55.5134C32.6952 55.0034 32.3241 54.5912 31.8651 54.5912C31.406 54.5912 31.035 55.0034 31.035 55.5134V58.8935C31.035 59.4035 31.406 59.8158 31.8651 59.8158Z" fill="#B93538"/>
<path d="M31.8651 52.124C32.3241 52.124 32.6952 51.7118 32.6952 51.2018V47.8219C32.6952 47.3119 32.3241 46.8997 31.8651 46.8997C31.406 46.8997 31.035 47.3119 31.035 47.8219V51.2018C31.035 51.7109 31.406 52.124 31.8651 52.124Z" fill="#B93538"/>
<path d="M27.5816 59.8158C28.0407 59.8158 28.4117 59.4035 28.4117 58.8935V55.5134C28.4117 55.0034 28.0407 54.5912 27.5816 54.5912C27.1226 54.5912 26.7516 55.0034 26.7516 55.5134V58.8935C26.7516 59.4035 27.1226 59.8158 27.5816 59.8158Z" fill="#B93538"/>
<path d="M23.2982 59.8158C23.7572 59.8158 24.1283 59.4035 24.1283 58.8935V55.5134C24.1283 55.0034 23.7572 54.5912 23.2982 54.5912C22.8392 54.5912 22.4681 55.0034 22.4681 55.5134V58.8935C22.4681 59.4035 22.8392 59.8158 23.2982 59.8158Z" fill="#B93538"/>
<path d="M19.0148 59.8158C19.4739 59.8158 19.8449 59.4035 19.8449 58.8935V55.5134C19.8449 55.0034 19.4739 54.5912 19.0148 54.5912C18.5557 54.5912 18.1847 55.0034 18.1847 55.5134V58.8935C18.1847 59.4035 18.5566 59.8158 19.0148 59.8158Z" fill="#B93538"/>
<path d="M27.5816 52.124C28.0407 52.124 28.4117 51.7118 28.4117 51.2018V47.8219C28.4117 47.3119 28.0407 46.8997 27.5816 46.8997C27.1226 46.8997 26.7516 47.3119 26.7516 47.8219V51.2018C26.7516 51.7109 27.1226 52.124 27.5816 52.124Z" fill="#B93538"/>
<path d="M21.2862 38.4707C21.7453 38.4707 22.1163 38.0585 22.1163 37.5486V34.902C22.1163 34.3921 21.7453 33.9799 21.2862 33.9799C20.8272 33.9799 20.4561 34.3921 20.4561 34.902V37.5486C20.4561 38.0585 20.8272 38.4707 21.2862 38.4707Z" fill="#B93538"/>
<path d="M25.4391 38.4707C25.8982 38.4707 26.2692 38.0585 26.2692 37.5486V34.902C26.2692 34.3921 25.8982 33.9799 25.4391 33.9799C24.9801 33.9799 24.6091 34.3921 24.6091 34.902V37.5486C24.6091 38.0585 24.9801 38.4707 25.4391 38.4707Z" fill="#B93538"/>
<path d="M29.5928 38.4707C30.0519 38.4707 30.423 38.0585 30.423 37.5486V34.902C30.423 34.3921 30.0519 33.9799 29.5928 33.9799C29.1338 33.9799 28.7627 34.3921 28.7627 34.902V37.5486C28.7627 38.0585 29.1338 38.4707 29.5928 38.4707Z" fill="#B93538"/>
<path d="M23.2982 52.124C23.7572 52.124 24.1283 51.7118 24.1283 51.2018V47.8219C24.1283 47.3119 23.7572 46.8997 23.2982 46.8997C22.8392 46.8997 22.4681 47.3119 22.4681 47.8219V51.2018C22.4681 51.7109 22.8392 52.124 23.2982 52.124Z" fill="#B93538"/>
<path d="M19.0148 52.124C19.4739 52.124 19.8449 51.7118 19.8449 51.2018V47.8219C19.8449 47.3119 19.4739 46.8997 19.0148 46.8997C18.5557 46.8997 18.1847 47.3119 18.1847 47.8219V51.2018C18.1847 51.7109 18.5566 52.124 19.0148 52.124Z" fill="#B93538"/>
<path d="M9.3455 12.2081C8.88647 12.2081 8.51543 12.6204 8.51543 13.1303V15.7779C8.51543 16.2879 8.88647 16.7001 9.3455 16.7001C9.80454 16.7001 10.1756 16.2879 10.1756 15.7779V13.1303C10.1756 12.6213 9.80454 12.2081 9.3455 12.2081Z" fill="#B93538"/>
<path d="M14.8425 16.7001C15.3015 16.7001 15.6725 16.2879 15.6725 15.7779V13.1303C15.6725 12.6204 15.3015 12.2081 14.8425 12.2081C14.3834 12.2081 14.0124 12.6204 14.0124 13.1303V15.7779C14.0124 16.2879 14.3834 16.7001 14.8425 16.7001Z" fill="#B93538"/>
<path d="M20.3386 16.7001C20.7976 16.7001 21.1687 16.2879 21.1687 15.7779V13.1303C21.1687 12.6204 20.7976 12.2081 20.3386 12.2081C19.8796 12.2081 19.5085 12.6204 19.5085 13.1303V15.7779C19.5085 16.2879 19.8796 16.7001 20.3386 16.7001Z" fill="#B93538"/>
<path d="M9.3455 20.7845C8.88647 20.7845 8.51543 21.1968 8.51543 21.7068V24.3535C8.51543 24.8635 8.88647 25.2757 9.3455 25.2757C9.80454 25.2757 10.1756 24.8635 10.1756 24.3535V21.7068C10.1756 21.1968 9.80454 20.7845 9.3455 20.7845Z" fill="#B93538"/>
<path d="M9.3455 29.6591C8.88647 29.6591 8.51543 30.0713 8.51543 30.5812V33.2287C8.51543 33.7386 8.88647 34.1508 9.3455 34.1508C9.80454 34.1508 10.1756 33.7386 10.1756 33.2287V30.5812C10.1756 30.0713 9.80454 29.6591 9.3455 29.6591Z" fill="#B93538"/>
<path d="M9.3455 38.2357C8.88647 38.2357 8.51543 38.6479 8.51543 39.1579V41.8044C8.51543 42.3144 8.88647 42.7266 9.3455 42.7266C9.80454 42.7266 10.1756 42.3144 10.1756 41.8044V39.1579C10.1756 38.6479 9.80454 38.2357 9.3455 38.2357Z" fill="#B93538"/>
<path d="M9.3455 47.1099C8.88647 47.1099 8.51543 47.5221 8.51543 48.0321V50.6788C8.51543 51.1887 8.88647 51.6009 9.3455 51.6009C9.80454 51.6009 10.1756 51.1887 10.1756 50.6788V48.0321C10.1756 47.5221 9.80454 47.1099 9.3455 47.1099Z" fill="#B93538"/>
<path d="M9.3455 55.6866C8.88647 55.6866 8.51543 56.0989 8.51543 56.6089V59.2559C8.51543 59.7659 8.88647 60.1782 9.3455 60.1782C9.80454 60.1782 10.1756 59.7659 10.1756 59.2559V56.6089C10.1756 56.0989 9.80454 55.6866 9.3455 55.6866Z" fill="#B93538"/>
<path d="M14.8425 25.2757C15.3015 25.2757 15.6725 24.8635 15.6725 24.3535V21.7068C15.6725 21.1968 15.3015 20.7845 14.8425 20.7845C14.3834 20.7845 14.0124 21.1968 14.0124 21.7068V24.3535C14.0124 24.8635 14.3834 25.2757 14.8425 25.2757Z" fill="#B93538"/>
<path d="M20.3386 25.2757C20.7976 25.2757 21.1687 24.8635 21.1687 24.3535V21.7068C21.1687 21.1968 20.7976 20.7845 20.3386 20.7845C19.8796 20.7845 19.5085 21.1968 19.5085 21.7068V24.3535C19.5085 24.8635 19.8796 25.2757 20.3386 25.2757Z" fill="#B93538"/>
</svg>
