<svg width="113" height="113" viewBox="0 0 113 113" fill="none" xmlns="http://www.w3.org/2000/svg">
<path d="M26.0707 85.0731L26.0707 40.1208L26.0707 17.794C26.0707 14.7199 25.4559 11.839 24.3141 9.41487C21.8021 4.03957 16.6551 0.983025 10.665 1.93161C7.80169 2.38834 5.14918 3.79365 3.48038 6.2178C2.72502 7.30692 2.19803 8.53656 1.93454 9.85403C1.67104 11.1188 1.65348 12.4538 1.93454 13.8065C2.35613 15.8969 3.58577 17.6359 5.23701 18.725C6.88824 19.8141 8.96107 20.2884 11.069 19.8668C12.7027 19.5331 14.0377 18.5845 14.8985 17.2846C15.7592 16.0022 16.1106 14.3861 15.7768 12.7525C15.5309 11.5053 14.7755 10.4688 13.7918 9.80132C12.8081 9.1338 11.5609 8.87032 10.2961 9.11624C9.34753 9.30947 8.55705 9.87159 8.04762 10.6269C7.85439 10.908 7.71386 11.2242 7.60847 11.558C7.94223 11.4174 8.29355 11.3296 8.68001 11.3296C10.1205 11.3296 11.2798 12.489 11.2798 13.9294C11.2798 15.3699 10.1205 16.5292 8.68001 16.5292C7.5909 16.5292 6.65988 15.8617 6.27342 14.9131L6.22073 14.8077C6.0275 14.4564 5.90453 14.0699 5.8167 13.6308C5.51807 12.1903 5.85183 10.785 6.58962 9.6608C7.3274 8.53656 8.52191 7.69337 9.96235 7.39474C11.7014 7.04342 13.4054 7.42988 14.7755 8.34333C16.1457 9.25678 17.1646 10.6796 17.5159 12.4187C17.9375 14.5267 17.4807 16.5995 16.3741 18.2683C15.2674 19.9195 13.5283 21.1668 11.4204 21.5883C8.85567 22.1153 6.30856 21.5357 4.28843 20.2006C2.2683 18.848 0.74003 16.74 0.230606 14.1578C-0.0855877 12.5768 -0.0680213 10.9958 0.230606 9.5027C0.5468 7.95686 1.17919 6.49886 2.0575 5.21652C4.02493 2.37077 7.11661 0.701973 10.4191 0.192551C17.1997 -0.878998 23.0844 2.59914 25.9302 8.65952C27.1774 11.3296 27.8449 14.474 27.8449 17.794L27.8449 40.1208L27.8449 85.0731L72.7796 85.0731L95.0888 85.0731C98.4088 85.0731 101.536 85.7406 104.223 86.9878C110.301 89.8336 113.762 95.7183 112.69 102.499C112.163 105.801 110.512 108.893 107.666 110.86C106.384 111.739 104.926 112.371 103.38 112.687C101.887 112.986 100.306 113.004 98.725 112.687C96.1428 112.16 94.0348 110.65 92.6822 108.63C91.3472 106.609 90.7675 104.062 91.2945 101.48C91.7161 99.3721 92.9633 97.633 94.6145 96.5263C96.2658 95.4197 98.3562 94.9629 100.464 95.3845C102.203 95.7359 103.626 96.7547 104.54 98.1249C105.435 99.495 105.822 101.199 105.471 102.938C105.172 104.378 104.329 105.555 103.204 106.311C102.08 107.066 100.657 107.382 99.2345 107.084C98.8129 106.996 98.4264 106.855 98.0575 106.68L97.9521 106.627C97.0035 106.241 96.336 105.31 96.336 104.22C96.336 102.78 97.4954 101.621 98.9358 101.621C100.376 101.621 101.536 102.78 101.536 104.22C101.536 104.607 101.448 104.958 101.307 105.292C101.641 105.187 101.957 105.046 102.238 104.853C102.994 104.343 103.556 103.553 103.749 102.604C103.995 101.34 103.731 100.11 103.064 99.1086C102.414 98.1249 101.378 97.3695 100.113 97.1236C98.4791 96.7898 96.863 97.1587 95.5807 98.0019C94.2983 98.8627 93.3322 100.198 93.016 101.831C92.5944 103.939 93.0511 106.012 94.1578 107.663C95.2645 109.315 96.986 110.562 99.0764 110.983C100.429 111.264 101.764 111.247 103.029 110.983C104.346 110.72 105.576 110.175 106.665 109.438C109.089 107.769 110.512 105.116 110.951 102.253C111.9 96.2453 108.843 91.1159 103.468 88.6039C101.026 87.4621 98.1629 86.8473 95.0888 86.8473L72.7796 86.8473L27.8273 86.8473L27.8273 101.427L27.8273 102.306L26.949 102.306L11.4906 102.306L10.6123 102.306L10.6123 101.427L10.6123 85.969L10.6123 85.0906L11.4906 85.0906L26.0707 85.0906L26.0707 85.0731ZM26.0707 86.8297L12.3689 86.8297L12.3689 100.531L26.0707 100.531L26.0707 86.8297ZM67.0178 94.5589L70.8648 94.5589C71.7432 94.5589 72.639 94.5238 73.4295 94.9805C72.6039 95.244 71.9891 96.0345 71.9891 96.9479C71.9891 98.0897 72.9201 99.0208 74.0795 99.0208C74.7646 99.0208 75.3618 98.687 75.7483 98.1776C76.2753 97.4749 76.328 96.4912 76.0645 95.6305C75.6253 94.2251 74.624 93.382 73.2187 92.9955C72.358 92.7671 71.5851 92.7847 70.7419 92.7847L67.0354 92.7847L34.6782 92.7847L34.6782 94.5413L67.0178 94.5413L67.0178 94.5589ZM18.3415 45.8826L18.3415 78.2222L20.0981 78.2222L20.0981 45.8826L20.0981 42.1761C20.0981 41.3153 20.1157 40.56 19.8873 39.6992C19.5184 38.2939 18.6577 37.2926 17.27 36.8535C16.3916 36.5724 15.4255 36.6427 14.7228 37.1697C14.2134 37.5561 13.8796 38.1534 13.8796 38.8385C13.8796 39.9803 14.8107 40.9113 15.9525 40.9113C16.8835 40.9113 17.6564 40.3141 17.9375 39.4709C18.3942 40.2614 18.3591 41.1572 18.3591 42.0356L18.3591 45.8826L18.3415 45.8826Z" fill="#B93538"/>
</svg>
