<svg width="30" height="27" viewBox="0 0 30 27" fill="none" xmlns="http://www.w3.org/2000/svg">
<path fill-rule="evenodd" clip-rule="evenodd" d="M14.4542 26.1056C14.2801 26.2829 14.0732 26.4236 13.8454 26.5196C13.6176 26.6156 13.3735 26.665 13.1269 26.665C12.8803 26.665 12.6361 26.6156 12.4083 26.5196C12.1806 26.4236 11.9737 26.2829 11.7995 26.1056L0.550789 14.6802C0.376196 14.5033 0.237678 14.2932 0.143164 14.0618C0.0486507 13.8305 0 13.5825 0 13.332C0 13.0815 0.0486507 12.8335 0.143164 12.6022C0.237678 12.3708 0.376196 12.1607 0.550789 11.9838L11.7995 0.558439C12.1516 0.200876 12.629 0 13.1269 0C13.6247 0 14.1022 0.200876 14.4542 0.558439C14.8063 0.916002 15.004 1.40096 15.004 1.90664C15.004 2.41231 14.8063 2.89727 14.4542 3.25483L4.52909 13.332L14.4542 23.4092C14.6288 23.5861 14.7673 23.7962 14.8618 24.0276C14.9564 24.2589 15.005 24.5069 15.005 24.7574C15.005 25.0079 14.9564 25.2559 14.8618 25.4872C14.7673 25.7186 14.6288 25.9287 14.4542 26.1056Z" fill="white"/>
<path fill-rule="evenodd" clip-rule="evenodd" d="M30 13.3217C30 13.8294 29.8025 14.3162 29.4509 14.6752C29.0993 15.0342 28.6224 15.2358 28.1252 15.2358L3.75296 15.2358C3.25574 15.2358 2.77888 15.0342 2.42729 14.6752C2.0757 14.3162 1.87817 13.8294 1.87817 13.3217C1.87817 12.8141 2.0757 12.3272 2.42729 11.9682C2.77888 11.6093 3.25574 11.4076 3.75296 11.4076L28.1252 11.4076C28.6224 11.4076 29.0993 11.6093 29.4509 11.9682C29.8025 12.3272 30 12.8141 30 13.3217Z" fill="white"/>
</svg>
