<svg width="93" height="83" viewBox="0 0 93 83" fill="none" xmlns="http://www.w3.org/2000/svg">
<path fill-rule="evenodd" clip-rule="evenodd" d="M44.5514 80.8665C44.0155 81.4122 43.3789 81.8451 42.6781 82.1405C41.9773 82.4359 41.226 82.5879 40.4672 82.5879C39.7084 82.5879 38.9571 82.4359 38.2563 82.1405C37.5555 81.8451 36.9189 81.4122 36.3831 80.8665L1.77158 45.7113C1.23438 45.1671 0.808167 44.5205 0.517353 43.8087C0.226543 43.0968 0.0768509 42.3337 0.0768509 41.563C0.0768509 40.7923 0.226543 40.0292 0.517353 39.3174C0.808167 38.6056 1.23438 37.959 1.77158 37.4147L36.3831 2.25953C37.4662 1.15933 38.9354 0.541245 40.4672 0.541245C41.9991 0.541245 43.4682 1.15933 44.5514 2.25953C45.6345 3.35973 46.2431 4.85193 46.2431 6.40784C46.2431 7.96376 45.6345 9.45596 44.5514 10.5562L14.0125 41.563L44.5514 72.5699C45.0886 73.1142 45.5148 73.7607 45.8056 74.4726C46.0964 75.1844 46.2461 75.9475 46.2461 76.7182C46.2461 77.4889 46.0964 78.252 45.8056 78.9639C45.5148 79.6757 45.0886 80.3223 44.5514 80.8665Z" fill="#8E5D0B"/>
<path fill-rule="evenodd" clip-rule="evenodd" d="M92.3848 41.5315C92.3848 43.0934 91.777 44.5914 90.6952 45.6959C89.6134 46.8004 88.1461 47.4209 86.6162 47.4209L11.6246 47.4209C10.0947 47.4209 8.62746 46.8004 7.54565 45.6959C6.46383 44.5914 5.85607 43.0934 5.85607 41.5315C5.85607 39.9695 6.46383 38.4715 7.54565 37.367C8.62746 36.2625 10.0947 35.6421 11.6246 35.6421L86.6162 35.6421C88.1461 35.6421 89.6134 36.2625 90.6952 37.367C91.777 38.4715 92.3848 39.9695 92.3848 41.5315Z" fill="#8E5D0B"/>
</svg>
