<svg width="30" height="27" viewBox="0 0 30 27" fill="none" xmlns="http://www.w3.org/2000/svg">
<path fill-rule="evenodd" clip-rule="evenodd" d="M14.4543 26.1056C14.2802 26.2829 14.0733 26.4236 13.8455 26.5196C13.6178 26.6156 13.3736 26.665 13.127 26.665C12.8804 26.665 12.6362 26.6156 12.4084 26.5196C12.1807 26.4236 11.9738 26.2829 11.7996 26.1056L0.550911 14.6802C0.376318 14.5033 0.2378 14.2932 0.143286 14.0618C0.0487728 13.8305 0.00012207 13.5825 0.00012207 13.332C0.00012207 13.0815 0.0487728 12.8335 0.143286 12.6022C0.2378 12.3708 0.376318 12.1607 0.550911 11.9838L11.7996 0.558439C12.1517 0.200876 12.6291 0 13.127 0C13.6248 0 14.1023 0.200876 14.4543 0.558439C14.8064 0.916002 15.0041 1.40096 15.0041 1.90664C15.0041 2.41231 14.8064 2.89727 14.4543 3.25483L4.52921 13.332L14.4543 23.4092C14.6289 23.5861 14.7674 23.7962 14.862 24.0276C14.9565 24.2589 15.0051 24.5069 15.0051 24.7574C15.0051 25.0079 14.9565 25.2559 14.862 25.4872C14.7674 25.7186 14.6289 25.9287 14.4543 26.1056Z" fill="#257848"/>
<path fill-rule="evenodd" clip-rule="evenodd" d="M30 13.3217C30 13.8294 29.8025 14.3162 29.4509 14.6752C29.0993 15.0342 28.6224 15.2358 28.1252 15.2358L3.75296 15.2358C3.25574 15.2358 2.77888 15.0342 2.42729 14.6752C2.0757 14.3162 1.87817 13.8294 1.87817 13.3217C1.87817 12.8141 2.0757 12.3272 2.42729 11.9682C2.77888 11.6093 3.25574 11.4076 3.75296 11.4076L28.1252 11.4076C28.6224 11.4076 29.0993 11.6093 29.4509 11.9682C29.8025 12.3272 30 12.8141 30 13.3217Z" fill="#257848"/>
</svg>
