<svg width="113" height="113" viewBox="0 0 113 113" fill="none" xmlns="http://www.w3.org/2000/svg">
<path d="M27.8449 26.0707H72.7971H95.124C98.1981 26.0707 101.079 25.4559 103.503 24.3141C108.878 21.8021 111.935 16.6551 110.986 10.665C110.53 7.80169 109.124 5.14918 106.7 3.48037C105.611 2.72502 104.381 2.19803 103.064 1.93454C101.799 1.67104 100.464 1.65348 99.1115 1.93454C97.0211 2.35613 95.2821 3.58577 94.1929 5.23701C93.1038 6.88824 92.6295 8.96107 93.0511 11.069C93.3849 12.7027 94.3335 14.0377 95.6334 14.8985C96.9157 15.7592 98.5318 16.1106 100.165 15.7768C101.413 15.5309 102.449 14.7755 103.117 13.7918C103.784 12.8081 104.048 11.5609 103.802 10.2961C103.608 9.34753 103.046 8.55705 102.291 8.04762C102.01 7.85439 101.694 7.71386 101.36 7.60846C101.501 7.94222 101.588 8.29355 101.588 8.68001C101.588 10.1205 100.429 11.2798 98.9885 11.2798C97.5481 11.2798 96.3887 10.1205 96.3887 8.68001C96.3887 7.5909 97.0563 6.65988 98.0048 6.27342L98.1102 6.22073C98.4616 6.0275 98.848 5.90453 99.2872 5.8167C100.728 5.51807 102.133 5.85183 103.257 6.58962C104.381 7.3274 105.225 8.52191 105.523 9.96235C105.875 11.7014 105.488 13.4054 104.575 14.7755C103.661 16.1457 102.238 17.1646 100.499 17.5159C98.3913 17.9375 96.3185 17.4807 94.6497 16.3741C92.9984 15.2674 91.7512 13.5283 91.3296 11.4204C90.8026 8.85567 91.3823 6.30856 92.7174 4.28843C94.07 2.2683 96.1779 0.740029 98.7602 0.230605C100.341 -0.0855889 101.922 -0.0680225 103.415 0.230605C104.961 0.546799 106.419 1.17919 107.701 2.0575C110.547 4.02493 112.216 7.11661 112.725 10.4191C113.797 17.1997 110.319 23.0844 104.258 25.9302C101.588 27.1774 98.444 27.8449 95.124 27.8449H72.7971H27.8449V72.7796V95.0888C27.8449 98.4088 27.1774 101.536 25.9302 104.223C23.0844 110.301 17.1997 113.762 10.4191 112.69C7.11661 112.163 4.02493 110.512 2.0575 107.666C1.17919 106.384 0.546799 104.926 0.230605 103.38C-0.0680225 101.887 -0.0855889 100.306 0.230605 98.725C0.757595 96.1428 2.2683 94.0348 4.28843 92.6822C6.30856 91.3472 8.85567 90.7675 11.4379 91.2945C13.5459 91.7161 15.285 92.9633 16.3916 94.6145C17.4983 96.2658 17.955 98.3562 17.5334 100.464C17.1821 102.203 16.1633 103.626 14.7931 104.54C13.4229 105.435 11.719 105.822 9.97992 105.471C8.53948 105.172 7.36254 104.329 6.60718 103.204C5.85183 102.08 5.53564 100.657 5.83427 99.2345C5.9221 98.8129 6.06263 98.4264 6.23829 98.0575L6.29099 97.9521C6.67745 97.0035 7.60847 96.336 8.69758 96.336C10.138 96.336 11.2974 97.4954 11.2974 98.9358C11.2974 100.376 10.138 101.536 8.69758 101.536C8.31112 101.536 7.95979 101.448 7.62603 101.307C7.73143 101.641 7.87196 101.957 8.06519 102.238C8.57461 102.994 9.3651 103.556 10.3137 103.749C11.5785 103.995 12.8081 103.731 13.8094 103.064C14.7931 102.414 15.5485 101.378 15.7944 100.113C16.1281 98.4791 15.7592 96.863 14.9161 95.5807C14.0553 94.2983 12.7203 93.3322 11.0866 93.016C8.97864 92.5944 6.90581 93.0511 5.25458 94.1578C3.60334 95.2645 2.35613 96.986 1.93454 99.0764C1.65348 100.429 1.67104 101.764 1.93454 103.029C2.19803 104.346 2.74259 105.576 3.48038 106.665C5.14918 109.089 7.8017 110.512 10.665 110.951C16.6727 111.9 21.8021 108.843 24.3141 103.468C25.4559 101.026 26.0707 98.1629 26.0707 95.0888V72.7796V27.8273H11.4906H10.6123V26.949V11.4906V10.6123H11.4906H26.949H27.8273V11.4906V26.0707H27.8449ZM26.0883 26.0707V12.3689H12.3865V26.0707H26.0883ZM18.3591 67.0178V70.8648C18.3591 71.7432 18.3942 72.639 17.9375 73.4295C17.674 72.6039 16.8835 71.9891 15.97 71.9891C14.8282 71.9891 13.8972 72.9201 13.8972 74.0795C13.8972 74.7646 14.231 75.3618 14.7404 75.7483C15.4431 76.2753 16.4268 76.328 17.2875 76.0645C18.6928 75.6253 19.536 74.624 19.9225 73.2187C20.1508 72.358 20.1333 71.5851 20.1333 70.7419V67.0354V34.6782H18.3766V67.0178H18.3591ZM67.0354 18.3415H34.6958V20.0981H67.0354H70.7419C71.6026 20.0981 72.358 20.1157 73.2187 19.8873C74.624 19.5184 75.6253 18.6577 76.0645 17.27C76.3455 16.3916 76.2753 15.4255 75.7483 14.7228C75.3618 14.2134 74.7646 13.8796 74.0795 13.8796C72.9377 13.8796 72.0066 14.8107 72.0066 15.9525C72.0066 16.8835 72.6039 17.6564 73.4471 17.9375C72.6566 18.3942 71.7607 18.3591 70.8824 18.3591H67.0354V18.3415Z" fill="#B93538"/>
</svg>
