<svg width="102" height="62" viewBox="0 0 102 62" fill="none" xmlns="http://www.w3.org/2000/svg">
<g opacity="0.07">
<path d="M1.99769 3.92081C1.99769 2.21216 3.10368 0.619082 4.80982 0.148585C5.17848 0.0495326 5.56429 0 5.95868 0H91.1458C94.6095 0.0165087 97.4045 2.72395 97.4045 6.05044V20.933C97.4045 21.9483 96.5471 22.7737 95.4925 22.7737L86.7218 24.3008L85.17 24.2925C84.4927 24.2843 83.9354 24.8043 83.9354 25.4729L83.8496 35.3781C83.8411 36.3604 84.6555 37.1445 85.6758 37.161L88.2222 37.1858C88.3508 37.3922 96.6757 39.7116 96.6757 39.7116C98.2532 39.8932 99.5221 41.0158 99.8908 42.4933C100.208 43.7728 100.371 45.1677 100.362 45.9436V48.3952L100.354 49.3527V50.7724L100.345 53.1249C100.345 53.2735 100.337 53.4221 100.294 53.5542C100.259 53.711 100.208 53.8596 100.131 54.0081C99.8737 54.5116 99.4192 54.9079 98.8277 55.0894L95.8098 55.9727L90.2112 56.1212L71.8724 55.9892L70.4406 55.9809L20.6538 55.6095L5.59857 55.56L5.43568 55.5104L5.1699 55.4279L4.02104 55.0977C3.20655 54.8501 2.57212 54.2888 2.24633 53.5624C2.11772 53.29 2.04054 53.0094 2.01482 52.7122V52.4811L2.06626 40.0831C2.04912 39.2906 2.00626 9.92171 1.99769 3.92081Z" fill="#E6332A"/>
<path d="M6.07015 16.3928L14.0779 16.401C15.0467 16.401 15.8354 15.6416 15.8354 14.7089L15.844 6.0666C15.844 5.13386 15.0553 4.37447 14.0865 4.37447L6.07871 4.36621C5.10989 4.36621 4.32113 5.1256 4.32113 6.05834L4.31255 14.7006C4.31255 15.6334 5.10134 16.3928 6.07015 16.3928Z" fill="#76D9E3"/>
<path d="M6.07014 16.7727L14.0779 16.781C15.261 16.781 16.2298 15.8565 16.2384 14.7092L16.247 6.06686C16.247 4.92776 15.2867 3.99503 14.095 3.98678L6.08728 3.97852C4.90413 3.97852 3.93532 4.90301 3.92675 6.05036L3.91817 14.6927C3.91817 15.84 4.88699 16.7727 6.07014 16.7727ZM14.095 4.75443C14.8495 4.75443 15.4582 5.34873 15.4582 6.06686L15.4496 14.7092C15.4496 15.4355 14.8323 16.0216 14.0864 16.0216L6.0787 16.0133C5.32423 16.0133 4.7155 15.419 4.7155 14.7009L4.72409 6.0586C4.72409 5.33222 5.34138 4.74616 6.08728 4.74616L14.095 4.75443Z" fill="#BF2A23"/>
<path d="M19.282 16.4096L27.2897 16.4179C28.2585 16.4179 29.0473 15.6585 29.0473 14.7257L29.0559 6.08345C29.0559 5.15071 28.2671 4.39132 27.2983 4.39132L19.2906 4.38306C18.3217 4.38306 17.533 5.14247 17.5244 6.07521L17.5158 14.7175C17.5158 15.6502 18.3046 16.4096 19.282 16.4096Z" fill="#76D9E3"/>
<path d="M19.2734 16.7893L27.2812 16.7976C28.4643 16.7976 29.4331 15.8731 29.4331 14.7258L29.4417 6.08346C29.4417 4.94437 28.4815 4.01163 27.2897 4.00338L19.282 3.99512C18.0989 3.99512 17.13 4.91961 17.1215 6.06696L17.1129 14.7093C17.1215 15.8566 18.0903 16.7893 19.2734 16.7893ZM27.2983 4.77103C28.0528 4.77103 28.6615 5.36534 28.6615 6.08346L28.6529 14.7258C28.6529 15.4521 28.0356 16.0382 27.2897 16.0382L19.282 16.03C18.5276 16.03 17.9188 15.4356 17.9188 14.7175L17.9274 6.07523C17.9274 5.34884 18.5447 4.76276 19.2906 4.76276L27.2983 4.77103Z" fill="#BF2A23"/>
<path d="M32.4596 16.5332L40.4673 16.5414C41.4361 16.5414 42.2249 15.782 42.2249 14.8493L42.2335 6.20698C42.2335 5.27424 41.4447 4.51485 40.4759 4.51485L32.4682 4.50659C31.4994 4.50659 30.7106 5.26601 30.7106 6.19875L30.702 14.841C30.702 15.7738 31.4908 16.5332 32.4596 16.5332Z" fill="#76D9E3"/>
<path d="M32.4596 16.9129L40.4673 16.9212C41.6505 16.9212 42.6193 15.9967 42.6279 14.8493L42.6364 6.2153C42.6364 5.0762 41.6762 4.14347 40.4845 4.13522L32.4767 4.12695C31.2936 4.12695 30.3248 5.05145 30.3248 6.1988L30.3162 14.8411C30.3076 15.9802 31.2765 16.9129 32.4596 16.9129ZM40.4845 4.8946C41.239 4.8946 41.8477 5.48891 41.8477 6.20704L41.8391 14.8493C41.8391 15.5757 41.2218 16.1618 40.4759 16.1618L32.4682 16.1535C31.7137 16.1535 31.105 15.5592 31.105 14.8411L31.1136 6.1988C31.1136 5.47242 31.7308 4.88636 32.4767 4.88636L40.4845 4.8946Z" fill="#BF2A23"/>
<path d="M45.6629 16.5498L53.6706 16.558C54.6395 16.558 55.4282 15.7986 55.4368 14.8659L55.4454 6.22359C55.4454 5.29084 54.6566 4.53143 53.6878 4.53143L45.6801 4.52319C44.7113 4.52319 43.9225 5.28258 43.9225 6.21532L43.9139 14.8576C43.9053 15.7904 44.6941 16.5498 45.6629 16.5498Z" fill="#76D9E3"/>
<path d="M45.6629 16.9295L53.6707 16.9377C54.8538 16.9377 55.8226 16.0132 55.8226 14.8659L55.8312 6.2236C55.8312 5.0845 54.871 4.15175 53.6792 4.14349L45.6715 4.13525C44.4884 4.13525 43.5196 5.05972 43.511 6.20708L43.5024 14.8494C43.511 15.9967 44.4798 16.9295 45.6629 16.9295ZM53.6878 4.91116C54.4423 4.91116 55.051 5.50547 55.051 6.2236L55.0424 14.8659C55.0424 15.5923 54.4251 16.1783 53.6792 16.1783L45.6715 16.1701C44.917 16.1701 44.3083 15.5758 44.3083 14.8576L44.3169 6.21534C44.3169 5.48896 44.9342 4.9029 45.6801 4.9029L53.6878 4.91116Z" fill="#BF2A23"/>
<path d="M58.8662 16.5664L66.874 16.5746C67.8428 16.5746 68.6315 15.8152 68.6315 14.8825L68.6401 6.24019C68.6401 5.30745 67.8513 4.54806 66.8825 4.54806L58.8748 4.53979C57.906 4.53979 57.1172 5.29921 57.1172 6.23195L57.1086 14.8742C57.1086 15.807 57.8974 16.5664 58.8662 16.5664Z" fill="#76D9E3"/>
<path d="M58.8662 16.9461L66.874 16.9543C68.0571 16.9543 69.0259 16.0298 69.0259 14.8825L69.0345 6.2402C69.0345 5.1011 68.0742 4.16837 66.8825 4.16012L58.8748 4.15186C57.6916 4.15186 56.7228 5.07635 56.7143 6.2237L56.7057 14.866C56.7143 16.0133 57.6831 16.9461 58.8662 16.9461ZM66.8911 4.92777C67.6456 4.92777 68.2543 5.52207 68.2543 6.2402L68.2457 14.8825C68.2457 15.6089 67.6284 16.1949 66.8825 16.1949L58.8748 16.1867C58.1203 16.1867 57.5116 15.5924 57.5116 14.8742L57.5202 6.23196C57.5202 5.50558 58.1375 4.9195 58.8834 4.9195L66.8911 4.92777Z" fill="#BF2A23"/>
<path d="M72.0867 16.4838L80.0944 16.4921C81.0632 16.4921 81.852 15.7326 81.852 14.7999L81.8606 6.1576C81.8606 5.22486 81.0718 4.46547 80.103 4.45721L72.0953 4.44897C71.1264 4.44897 70.3377 5.20836 70.3377 6.1411L70.3291 14.7834C70.3291 15.7161 71.1179 16.4755 72.0867 16.4838Z" fill="#76D9E3"/>
<path d="M72.0867 16.8553L80.0944 16.8635C81.2776 16.8635 82.2464 15.939 82.2464 14.7917L82.255 6.14938C82.255 5.01028 81.2947 4.07753 80.103 4.06927L72.0953 4.06104C70.9121 4.06104 69.9433 4.9855 69.9347 6.13286L69.9262 14.7752C69.9347 15.9225 70.9036 16.8553 72.0867 16.8553ZM80.1116 4.83694C80.8661 4.83694 81.4748 5.43125 81.4748 6.14938L81.4662 14.7917C81.4662 15.5181 80.8489 16.1041 80.103 16.1041L72.0953 16.0958C71.3408 16.0958 70.7321 15.5015 70.7321 14.7834L70.7407 6.14112C70.7407 5.41474 71.3579 4.82868 72.1038 4.82868L80.1116 4.83694Z" fill="#BF2A23"/>
<path d="M85.3071 16.3928L93.3149 16.401C94.2837 16.401 95.0725 15.6416 95.0725 14.7089L95.081 6.0666C95.081 5.13386 94.2923 4.37447 93.3234 4.37447L85.3157 4.36621C84.3469 4.36621 83.5581 5.1256 83.5581 6.05834L83.5496 14.7006C83.5496 15.6251 84.3383 16.3845 85.3071 16.3928Z" fill="#76D9E3"/>
<path d="M85.3071 16.7727L93.3149 16.781C94.498 16.781 95.4668 15.8565 95.4668 14.7092L95.4754 6.06686C95.4754 4.92776 94.5152 3.99503 93.3234 3.98678L85.3157 3.97852C84.1326 3.97852 83.1637 4.90301 83.1552 6.05036L83.1466 14.6927C83.1552 15.8318 84.124 16.7645 85.3071 16.7727ZM93.332 4.74616C94.0865 4.74616 94.6952 5.34047 94.6952 6.0586L94.6866 14.7009C94.6866 15.4273 94.0693 16.0133 93.3234 16.0133L85.3157 16.0051C84.5612 16.0051 83.9525 15.4108 83.9525 14.6927L83.9611 6.05036C83.9611 5.32398 84.5784 4.7379 85.3243 4.7379L93.332 4.74616Z" fill="#BF2A23"/>
<path d="M1.42324 38.977C0.240091 38.9027 0.197217 43.4426 1.36322 43.4591C1.48325 42.6254 1.51755 39.8272 1.42324 38.977Z" fill="#FF4515"/>
<path d="M1.40849 38.9914L2.15439 38.9976L2.11424 43.4797L1.36835 43.4735L1.40849 38.9914Z" fill="#B2B2B2"/>
<path d="M4.38116 52.7288C4.38116 53.1332 4.40687 53.5294 4.45831 53.9174C4.5269 54.3879 4.62978 54.8419 4.77553 55.2876H5.17849L20.1565 55.3454L20.6624 55.1968L21.1168 55.0647C21.3054 54.4291 21.4168 53.7606 21.434 53.0754C21.4426 53.0012 21.4426 52.9351 21.4426 52.8608C21.4854 48.3209 17.6959 44.6147 12.9719 44.5735C8.27355 44.5404 4.42402 48.1889 4.38116 52.7288Z" fill="#634E42"/>
<path d="M78.3883 53.4797V53.554C78.3883 53.9337 78.414 54.3134 78.4654 54.6684C78.5254 55.1471 78.6455 55.5928 78.7827 56.0303V56.0386H79.1942L81.4405 56.0468L91.1372 56.0798L94.5238 55.9973L94.6781 55.9478L95.141 55.8157C95.3297 55.1801 95.4325 54.5115 95.4583 53.8264V53.5458C95.4668 49.0389 91.6859 45.3575 86.9962 45.3244C82.2807 45.2914 78.4311 48.9316 78.3883 53.4797Z" fill="#634E42"/>
<path d="M85.6672 36.7318C84.8956 36.7236 84.2697 36.1128 84.2783 35.3699C84.2697 36.1128 84.8956 36.7236 85.6672 36.7318Z" fill="#F39200"/>
<path d="M85.6672 36.7318C84.8956 36.7235 84.2697 36.1127 84.2783 35.3698L84.364 25.4564C84.364 25.0271 84.7327 24.6887 85.17 24.6887L86.4217 24.697C86.7389 28.7581 87.1505 32.1919 87.4591 36.5502L85.6672 36.7318Z" fill="#76D9E3"/>
<path d="M85.0242 24.1935L86.6875 24.21C86.8504 24.4576 86.7561 24.8208 86.5418 24.9859L85.0157 24.9694C84.7756 24.9694 84.5784 25.1427 84.5784 25.3656L84.4927 35.4606C84.4841 36.0054 84.9642 36.4512 85.5644 36.4594L87.4763 36.4924C87.4677 36.4511 88.0336 36.6823 88.2993 37.2931L85.5558 37.2353C84.5013 37.2271 83.6439 36.4264 83.6525 35.4606L83.7382 25.3656C83.7382 24.7135 84.3212 24.1852 85.0242 24.1935Z" fill="#BF2A23"/>
<path d="M79.3228 54.3052L79.3057 56.0386L94.7895 55.9478L94.8067 54.4538C94.841 50.3596 91.4201 47.0084 87.1676 46.9753H87.0733C82.8208 46.9423 79.3571 50.2276 79.3228 54.3052Z" fill="#1D1D1B"/>
<path d="M5.1699 53.5542L5.15276 55.4197L5.58144 55.5435L20.6281 55.6013L20.6452 53.7028C20.6795 49.6086 17.2587 46.2574 13.0062 46.2244H12.9118C8.67649 46.1914 5.20419 49.4683 5.1699 53.5542Z" fill="#1D1D1B"/>
<path d="M85.1185 42.5017C85.1099 43.9875 94.8495 45.2999 98.1246 45.3164C99.5393 45.3247 100.439 45.1183 100.8 44.7469C101.28 44.2599 100.954 43.484 100.962 42.642C100.962 41.8083 101.28 41.0159 100.817 40.5207C100.465 40.1327 99.5821 39.9511 98.1504 39.9511C94.8752 39.9346 85.1271 41.0159 85.1185 42.5017Z" fill="#BF2A23"/>
<path d="M100.8 40.5124C101.923 40.4629 101.888 44.7468 100.782 44.7468C100.68 43.9544 100.688 41.3048 100.8 40.5124Z" fill="#FFE697"/>
<path d="M5.87294 46.4636C5.86437 47.322 4.57832 48.0319 2.62355 48.0071C1.77476 47.9989 0.908842 47.8668 0.703076 47.6439C0.420147 47.355 0.463023 45.4813 0.737377 45.1924C0.951717 44.9695 1.81766 44.8787 2.67501 44.887C4.62122 44.92 5.88152 45.6051 5.87294 46.4636Z" fill="#634E42"/>
<path d="M72.7383 37.0041L80.746 37.0701C81.9292 37.0783 82.9065 36.1539 82.9151 35.0148L82.9923 26.3725C83.0009 25.2334 82.0406 24.2924 80.8575 24.2841L72.8497 24.2181C71.6666 24.2098 70.6892 25.1343 70.6806 26.2734L70.6035 34.9157C70.5949 36.0548 71.5551 36.9958 72.7383 37.0041ZM80.8489 25.0353C81.6034 25.0435 82.2121 25.6378 82.2035 26.3642L82.1263 35.0065C82.1178 35.7329 81.5005 36.3189 80.746 36.3107L72.7383 36.2446C71.9838 36.2364 71.3751 35.6421 71.3836 34.9157L71.4608 26.2734C71.4694 25.547 72.0867 24.961 72.8412 24.9692L80.8489 25.0353Z" fill="#FF9E00"/>
<path d="M70.2348 51.1356C70.2348 51.573 70.4148 51.9858 70.7321 52.2994C71.0493 52.6048 71.4865 52.7782 71.9409 52.7782L74.3844 52.7699C75.3275 52.7699 76.1248 52.0765 76.2106 51.1686C76.6478 46.8103 79.6314 45.1842 81.9292 44.6229C82.615 44.4578 83.0866 43.8635 83.0866 43.1866L83.0609 26.2405C83.0609 25.0684 82.0663 24.1108 80.8489 24.1108L72.5582 24.1191C71.2636 24.1191 70.2091 25.1344 70.2091 26.389L70.2348 51.1356Z" fill="#BF2A23"/>
<path d="M72.7383 36.5668L80.746 36.5585C81.7148 36.5585 82.5036 35.7991 82.5036 34.8581L82.4864 26.2158C82.4864 25.2831 81.6977 24.5237 80.7203 24.5237L72.7125 24.5319C71.7437 24.5319 70.955 25.2913 70.955 26.2241L70.9721 34.8664C70.9807 35.8074 71.7695 36.5668 72.7383 36.5668Z" fill="#76D9E3"/>
<path d="M6.11301 36.5502L14.1207 36.5419C15.0895 36.5419 15.8783 35.7825 15.8783 34.8415L15.8612 26.1992C15.8612 25.2665 15.0724 24.5071 14.095 24.5071L6.08729 24.5153C5.11847 24.5153 4.32971 25.2747 4.32971 26.2157L4.34685 34.858C4.34685 35.799 5.13562 36.5584 6.11301 36.5502Z" fill="#76D9E3"/>
<path d="M6.11301 36.9299L14.1207 36.9217C15.3039 36.9217 16.2727 35.9889 16.2727 34.8416L16.2556 26.1993C16.2556 25.0602 15.2867 24.1274 14.095 24.1274L6.08729 24.1357C4.90414 24.1357 3.93531 25.0684 3.93531 26.2158L3.95248 34.8581C3.96105 36.0054 4.92128 36.9382 6.11301 36.9299ZM14.095 24.8951C14.8495 24.8951 15.4582 25.4811 15.4582 26.2075L15.4754 34.8498C15.4754 35.5762 14.8666 36.1623 14.1122 36.1623L6.10445 36.1705C5.34998 36.1705 4.74123 35.5845 4.74123 34.8581L4.72409 26.2158C4.72409 25.4894 5.33281 24.9034 6.08729 24.9034L14.095 24.8951Z" fill="#BF2A23"/>
<path d="M19.3163 36.5336L27.324 36.5253C28.2928 36.5253 29.0816 35.7659 29.0816 34.8249L29.0645 26.1826C29.0645 25.2499 28.2757 24.4905 27.2983 24.4905L19.2906 24.4987C18.3218 24.4987 17.533 25.2581 17.533 26.1991L17.5501 34.8414C17.5587 35.7824 18.3475 36.5336 19.3163 36.5336Z" fill="#76D9E3"/>
<path d="M19.3163 36.9133L27.324 36.9051C28.5072 36.9051 29.476 35.9723 29.476 34.825L29.4589 26.1827C29.4589 25.0436 28.4901 24.1108 27.2983 24.1108L19.2906 24.1191C18.1074 24.1191 17.1386 25.0518 17.1386 26.1992L17.1558 34.8415C17.1644 35.9888 18.1246 36.9133 19.3163 36.9133ZM27.3069 24.8702C28.0614 24.8702 28.6701 25.4563 28.6701 26.1827L28.6872 34.825C28.6872 35.5514 28.0785 36.1374 27.324 36.1374L19.3163 36.1457C18.5618 36.1457 17.9531 35.5596 17.9531 34.8332L17.936 26.1909C17.936 25.4646 18.5447 24.8785 19.2992 24.8785L27.3069 24.8702Z" fill="#BF2A23"/>
<path d="M32.5025 36.6246L40.5102 36.6164C41.479 36.6164 42.2678 35.857 42.2678 34.916L42.2506 26.2737C42.2506 25.341 41.4619 24.5815 40.4845 24.5815L32.4768 24.5898C31.5079 24.5898 30.7192 25.3492 30.7192 26.2902L30.7363 34.9325C30.7363 35.8652 31.5251 36.6246 32.5025 36.6246Z" fill="#76D9E3"/>
<path d="M32.5025 37.0041L40.5102 36.9959C41.6934 36.9959 42.6622 36.0632 42.6622 34.9158L42.645 26.2735C42.645 25.1344 41.6762 24.2017 40.4845 24.2017L32.4768 24.2099C31.2936 24.2099 30.3248 25.1427 30.3248 26.29L30.3419 34.9323C30.3419 36.0797 31.3107 37.0041 32.5025 37.0041ZM40.4845 24.961C41.239 24.961 41.8477 25.5471 41.8477 26.2735L41.8648 34.9158C41.8648 35.6422 41.2561 36.2282 40.5016 36.2282L32.4939 36.2365C31.7394 36.2365 31.1307 35.6504 31.1307 34.924L31.1136 26.2817C31.1136 25.5554 31.7223 24.9693 32.4768 24.9693L40.4845 24.961Z" fill="#BF2A23"/>
<path d="M45.7058 36.608L53.7135 36.5998C54.6823 36.5998 55.4711 35.8404 55.4711 34.8994L55.4539 26.2571C55.4539 25.3243 54.6652 24.5649 53.6878 24.5649L45.6801 24.5732C44.7113 24.5732 43.9225 25.3326 43.9225 26.2736L43.9396 34.9159C43.9396 35.8486 44.7284 36.608 45.7058 36.608Z" fill="#76D9E3"/>
<path d="M45.7058 36.9878L53.7135 36.9795C54.8967 36.9795 55.8655 36.0468 55.8655 34.8994L55.8483 26.2571C55.8483 25.118 54.8795 24.1853 53.6878 24.1853L45.6801 24.1935C44.4969 24.1935 43.5281 25.1263 43.5281 26.2736L43.5452 34.9159C43.5452 36.055 44.5141 36.9878 45.7058 36.9878ZM53.6878 24.9447C54.4423 24.9447 55.051 25.5307 55.051 26.2571L55.0681 34.8994C55.0681 35.6258 54.4594 36.2119 53.7049 36.2119L45.6972 36.2201C44.9428 36.2201 44.334 35.6341 44.334 34.9077L44.3169 26.2654C44.3169 25.539 44.9256 24.953 45.6801 24.953L53.6878 24.9447Z" fill="#BF2A23"/>
<path d="M58.9091 36.5831L66.9168 36.5749C67.8856 36.5749 68.6744 35.8155 68.6744 34.8745L68.6573 26.2322C68.6573 25.2994 67.8685 24.54 66.8911 24.54L58.8834 24.5483C57.9146 24.5483 57.1258 25.3077 57.1258 26.2487L57.1429 34.891C57.1429 35.832 57.9317 36.5914 58.9091 36.5831Z" fill="#76D9E3"/>
<path d="M58.9091 36.9629L66.9169 36.9546C68.1 36.9546 69.0688 36.0219 69.0688 34.8745L69.0517 26.2322C69.0517 25.0931 68.0828 24.1604 66.8911 24.1604L58.8834 24.1687C57.7002 24.1687 56.7314 25.1014 56.7314 26.2488L56.7486 34.891C56.7486 36.0384 57.7174 36.9711 58.9091 36.9629ZM66.8911 24.9281C67.6456 24.9281 68.2543 25.5141 68.2543 26.2405L68.2715 34.8828C68.2715 35.6092 67.6627 36.1952 66.9083 36.1952L58.9006 36.2035C58.1461 36.2035 57.5374 35.6174 57.5374 34.891L57.5202 26.2488C57.5202 25.5224 58.1289 24.9363 58.8834 24.9363L66.8911 24.9281Z" fill="#BF2A23"/>
<path d="M71.6152 39.2657C71.6152 39.4721 72.6183 39.6289 73.8529 39.6289C75.0875 39.6289 76.0906 39.4638 76.0906 39.2575C76.0906 39.0511 75.0875 38.8943 73.8529 38.8943C72.6183 38.8943 71.6152 39.0676 71.6152 39.2657Z" fill="#EDEDED"/>
<path d="M0.900261 45.1018C0.205801 45.0605 0.180073 47.7184 0.865959 47.7267C0.934548 47.2397 0.960276 45.5971 0.900261 45.1018Z" fill="#FFE697"/>
<path d="M97.2416 47.4213C97.2416 47.6855 97.4645 47.9083 97.7388 47.9083L100.362 47.9331L100.371 46.9591L97.7474 46.9343C97.473 46.9343 97.2416 47.1572 97.2416 47.4213Z" fill="#634E42"/>
<path d="M97.2244 48.8411C97.2244 49.1052 97.4473 49.3281 97.7217 49.3281L100.354 49.3528V48.3871L97.7217 48.3623C97.4559 48.354 97.2244 48.5687 97.2244 48.8411Z" fill="#634E42"/>
<path d="M97.2159 50.2524C97.2159 50.5248 97.4388 50.7394 97.7131 50.7394L100.354 50.7642L100.362 49.7984L97.7303 49.7737C97.4473 49.7737 97.2159 49.9883 97.2159 50.2524Z" fill="#634E42"/>
<path d="M81.3719 36.542C81.3719 36.6493 81.4147 36.7566 81.5005 36.8392C81.5776 36.9217 81.6891 36.963 81.8091 36.963L83.2152 36.9712C83.4553 36.9712 83.661 36.7814 83.661 36.5502L83.7039 31.251C83.7039 31.0859 83.6353 30.9208 83.5153 30.797C83.3952 30.6732 83.2238 30.6071 83.0523 30.6071L82.0406 30.5989C81.7063 30.5989 81.4233 30.8548 81.4233 31.1849L81.3719 36.542Z" fill="#575756"/>
<path d="M85.4015 39.3733C85.4615 39.3733 85.5215 39.3568 85.5815 39.332C85.7787 39.2412 85.8559 39.0101 85.753 38.8203L83.1723 33.909C83.078 33.7191 82.838 33.6448 82.6408 33.7439C82.4436 33.8347 82.3664 34.0658 82.4693 34.2556L85.05 39.167C85.1271 39.2908 85.2643 39.3651 85.4015 39.3733Z" fill="#3C3C3B"/>
<path d="M94.5237 56.0055L95.7841 55.9725L98.8019 55.0892C99.385 54.9077 99.8479 54.5114 100.105 54.0079C100.182 53.8594 100.234 53.7108 100.268 53.554H95.4497V53.8346C95.424 54.5197 95.3211 55.1883 95.1325 55.8239L94.6695 55.956L94.5237 56.0055Z" fill="#634E42"/>
<path d="M20.6538 53.5459H78.3883C78.3883 53.9256 78.414 54.3053 78.4654 54.6602C78.5254 55.139 78.6455 55.5847 78.7827 56.0222L71.8466 55.9727L70.4148 55.9644L20.6281 55.593L20.6538 53.5459Z" fill="#634E42"/>
<path d="M2.22915 53.5459C2.54637 54.2723 3.18939 54.8336 4.00388 55.0812L5.15274 55.4114L5.41852 55.4939L5.25562 54.5529L5.17846 53.5459H2.22915Z" fill="#634E42"/>
<path d="M92.3118 54.7428C92.286 57.6071 89.8597 59.91 86.8847 59.8853C83.9097 59.8605 81.5262 57.5163 81.5519 54.6603C81.5776 51.796 84.004 49.5013 86.979 49.5261C89.954 49.5426 92.3289 51.8786 92.3118 54.7428Z" fill="#DADADA"/>
<path d="M89.7311 54.7179C89.714 56.2037 88.4537 57.4088 86.9104 57.3923C85.3672 57.3758 84.124 56.1624 84.1326 54.6684C84.1497 53.1743 85.4101 51.9857 86.9533 51.9939C88.4965 52.0187 89.7397 53.2321 89.7311 54.7179Z" fill="#F6F6F6"/>
<path d="M86.9876 47.9329C90.8714 47.9659 93.9922 51.02 93.9579 54.7592C93.9236 58.4984 90.7514 61.503 86.8675 61.47C82.9837 61.437 79.8629 58.3829 79.8972 54.6437C79.9315 50.9045 83.1037 47.8999 86.9876 47.9329ZM86.8847 59.2991C89.5168 59.3239 91.6773 57.2768 91.703 54.7427C91.7287 52.2004 89.6025 50.1285 86.9704 50.1038C84.3383 50.079 82.1778 52.1261 82.1521 54.6602C82.1263 57.2025 84.2526 59.2743 86.8847 59.2991Z" fill="#3C3C3B"/>
<path d="M18.2875 54.7428C18.2618 57.6071 15.8354 59.91 12.8604 59.8853C9.88536 59.8605 7.50191 57.5163 7.52763 54.6603C7.55335 51.796 9.97968 49.5013 12.9547 49.5261C15.9297 49.5426 18.3132 51.8786 18.2875 54.7428Z" fill="#DADADA"/>
<path d="M15.7068 54.7179C15.6897 56.2037 14.4294 57.4088 12.8861 57.3923C11.3429 57.3758 10.0997 56.1624 10.1083 54.6684C10.1254 53.1743 11.3858 51.9857 12.929 51.9939C14.4808 52.0187 15.7154 53.2321 15.7068 54.7179Z" fill="#F6F6F6"/>
<path d="M12.9633 47.9329C16.8472 47.9659 19.9679 51.02 19.9336 54.7592C19.8993 58.4984 16.7271 61.503 12.8433 61.47C8.95945 61.437 5.83866 58.3829 5.87296 54.6437C5.90725 50.9045 9.07949 47.8999 12.9633 47.9329ZM12.8604 59.2991C15.4925 59.3239 17.6531 57.2768 17.6788 54.7427C17.7045 52.2004 15.5782 50.1285 12.9462 50.1038C10.3141 50.079 8.15353 52.1261 8.12781 54.6602C8.11066 57.2025 10.2283 59.2743 12.8604 59.2991Z" fill="#3C3C3B"/>
<path d="M4.10678 52.5307C4.09821 53.2571 3.48091 53.8431 2.73501 53.8348L1.35467 53.8183C0.600197 53.8101 3.14713e-05 53.2158 3.14713e-05 52.4976C0.008605 51.7713 0.625908 51.1852 1.37181 51.1934L2.75217 51.21C3.50664 51.21 4.11536 51.8043 4.10678 52.5307Z" fill="#EDEDED"/>
<path d="M97.0101 52.9844C97.0015 53.7108 97.6102 54.3051 98.3647 54.3051L100.628 54.3216C101.383 54.3299 102 53.7438 102 53.0175C102.008 52.2911 101.4 51.6968 100.645 51.6968L98.3819 51.6803C97.636 51.672 97.0187 52.2581 97.0101 52.9844Z" fill="#EDEDED"/>
<path d="M4.38113 20.5368C4.38113 21.7172 5.37565 22.6664 6.59309 22.6664H79.1513C80.3773 22.6664 81.3633 21.709 81.3633 20.5368C81.3633 19.3565 80.3687 18.4072 79.1513 18.4072H6.59309C5.37565 18.4072 4.38113 19.3647 4.38113 20.5368Z" fill="white"/>
</g>
</svg>
