<svg width="95" height="67" viewBox="0 0 95 67" fill="none" xmlns="http://www.w3.org/2000/svg">
<g opacity="0.1">
<path d="M44.3221 43.5527L18.8812 59.2371L19.1744 59.9407L44.6152 44.2563L44.3221 43.5527Z" fill="#74A19F"/>
<path d="M17.2922 54.8689L17.1633 55.0741L17.5033 55.9008L21.3321 58.3576L21.7366 57.7243L17.2922 54.8689Z" fill="#74A19F"/>
<path d="M19.9471 53.2219L19.2535 53.5085L21.1882 58.1904L21.8818 57.9038L19.9471 53.2219Z" fill="#74A19F"/>
<path d="M20.3376 53.0065L19.932 53.6379L24.3764 56.4933L24.7821 55.8619L20.3376 53.0065Z" fill="#74A19F"/>
<path d="M22.9972 51.352L22.3036 51.6387L24.2388 56.3206L24.9324 56.0339L22.9972 51.352Z" fill="#74A19F"/>
<path d="M23.3891 51.1356L22.9834 51.7671L27.4284 54.6225L27.8341 53.991L23.3891 51.1356Z" fill="#74A19F"/>
<path d="M26.04 49.4826L25.3463 49.7693L27.2815 54.4512L27.9751 54.1645L26.04 49.4826Z" fill="#74A19F"/>
<path d="M26.4155 49.2927L26.0227 49.8967L30.4671 52.7521L30.8716 52.1188L26.4507 49.2751L26.4155 49.2927Z" fill="#74A19F"/>
<path d="M29.2887 48.1059L28.5951 48.3926L30.3265 52.5814L31.0201 52.2947L29.2887 48.1059Z" fill="#74A19F"/>
<path d="M29.2241 48.126L33.516 50.8817L33.9206 50.2485L30.0684 47.78L29.2241 48.126Z" fill="#74A19F"/>
<path d="M32.5515 46.7592L31.8579 47.0459L33.3742 50.7145L34.0678 50.4278L32.5515 46.7592Z" fill="#74A19F"/>
<path d="M32.8476 46.6309L36.5591 49.0114L36.9636 48.384L33.6919 46.2791L32.8476 46.6309Z" fill="#74A19F"/>
<path d="M35.8143 45.4116L35.1207 45.6982L36.422 48.8466L37.1156 48.5599L35.8143 45.4116Z" fill="#74A19F"/>
<path d="M36.4711 45.1296L39.6021 47.1466L40.0125 46.5134L37.3154 44.7837L36.4711 45.1296Z" fill="#74A19F"/>
<path d="M39.0693 44.0615L38.3757 44.3481L39.462 46.9763L40.1556 46.6896L39.0693 44.0615Z" fill="#74A19F"/>
<path d="M43.7376 42.134L16.4699 53.4045L17.1911 55.1494L44.4588 43.8788L43.7376 42.134Z" fill="#9FC4C3"/>
<path d="M50.672 43.5527L76.1129 59.2371L75.8256 59.9407L50.3789 44.2563L50.672 43.5527Z" fill="#74A19F"/>
<path d="M77.7019 54.8689L77.8367 55.0741L77.4967 55.9008L73.6621 58.3576L73.2575 57.7243L77.7019 54.8689Z" fill="#74A19F"/>
<path d="M75.0536 53.2139L73.1185 57.8958L73.8121 58.1824L75.7472 53.5005L75.0536 53.2139Z" fill="#74A19F"/>
<path d="M74.6523 53.002L70.2078 55.8574L70.6135 56.4888L75.0579 53.6334L74.6523 53.002Z" fill="#74A19F"/>
<path d="M71.9964 51.3396L70.0618 56.0215L70.7554 56.3081L72.6901 51.6262L71.9964 51.3396Z" fill="#74A19F"/>
<path d="M71.6206 51.1268L67.1756 53.9822L67.5813 54.6137L72.0263 51.7583L71.6206 51.1268Z" fill="#74A19F"/>
<path d="M68.9648 49.4785L67.0296 54.1604L67.7232 54.4471L69.6584 49.7652L68.9648 49.4785Z" fill="#74A19F"/>
<path d="M68.5844 49.2927L68.9714 49.8967L64.527 52.7521L64.1225 52.1188L68.5493 49.2751L68.5844 49.2927Z" fill="#74A19F"/>
<path d="M65.7123 48.0956L63.981 52.2844L64.6746 52.5711L66.4059 48.3823L65.7123 48.0956Z" fill="#74A19F"/>
<path d="M65.7701 48.126L61.484 50.8817L61.0794 50.2485L64.9257 47.78L65.7701 48.126Z" fill="#74A19F"/>
<path d="M62.4472 46.747L60.9309 50.4155L61.6245 50.7022L63.1408 47.0336L62.4472 46.747Z" fill="#74A19F"/>
<path d="M62.1465 46.6309L58.435 49.0114L58.0305 48.384L61.3022 46.2791L62.1465 46.6309Z" fill="#74A19F"/>
<path d="M59.1868 45.3997L57.8855 48.5481L58.5791 48.8348L59.8804 45.6864L59.1868 45.3997Z" fill="#74A19F"/>
<path d="M58.523 45.1299L55.392 47.1469L54.9874 46.5136L57.6787 44.7839L58.523 45.1299Z" fill="#74A19F"/>
<path d="M55.9309 44.0496L54.8446 46.6777L55.5382 46.9644L56.6245 44.3363L55.9309 44.0496Z" fill="#74A19F"/>
<path d="M51.2576 42.1218L50.5364 43.8667L77.8042 55.1373L78.5254 53.3924L51.2576 42.1218Z" fill="#9FC4C3"/>
<path d="M77.3149 24.063H17.6851V27.2644H77.3149V24.063Z" fill="#74A19F"/>
<path d="M77.3149 21.4421H17.6851V23.4063H77.3149V21.4421Z" fill="#9FC4C3"/>
<path d="M16.8349 12.0315H3.90045V19.4896H16.8349V12.0315Z" fill="#66807E"/>
<path d="M5.16106 5.51709L3.1265 14.2593H7.18977L5.16106 5.51709Z" fill="#74A19F"/>
<path d="M15.9906 5.51709L13.9619 14.2593H18.0193L15.9906 5.51709Z" fill="#74A19F"/>
<path d="M10.567 0L7.93442 13.9723H13.1997L10.567 0Z" fill="#74A19F"/>
<path d="M12.9886 14.2595H8.14548V19.1906H12.9886V14.2595Z" fill="#D8D8D8"/>
<path d="M15.6505 19.1904H5.49527V54.3937H15.6505V19.1904Z" fill="#D8D8D8"/>
<path d="M7.18977 54.3942H3.80664V29.4283L3.1265 28.4432V26.4263H7.18977V54.3942Z" fill="#C4C4C4"/>
<path d="M17.345 54.3942H13.9619V26.4263H18.0193V28.4432L17.345 29.3345V54.3942Z" fill="#C4C4C4"/>
<path d="M20.2239 54.3938H0.92775V66.9999H20.2239V54.3938Z" fill="#9D9D9C"/>
<path opacity="0.1" d="M17.345 44.6199H3.80664V46.6486H17.345V44.6199Z" fill="#1D1D1B"/>
<path opacity="0.1" d="M17.345 35.5259H3.80664V37.5546H17.345V35.5259Z" fill="#1D1D1B"/>
<path d="M7.18977 14.2598H3.1265V28.4431H7.18977V14.2598Z" fill="#C4C4C4"/>
<path d="M18.0252 14.2598H13.9619V28.4431H18.0252V14.2598Z" fill="#C4C4C4"/>
<path opacity="0.1" d="M18.0193 26.4263H3.1265V28.455H18.0193V26.4263Z" fill="#1D1D1B"/>
<path opacity="0.1" d="M18.0193 18.8916H3.1265V19.4897H18.0193V18.8916Z" fill="#1D1D1B"/>
<path d="M17.345 52.0662H3.80664V54.3939H17.345V52.0662Z" fill="#706F6F"/>
<path d="M9.10706 47.8325H8.14548V51.3036H9.10706V47.8325Z" fill="#706F6F"/>
<path d="M9.23606 51.4329H8.02235V47.7097H9.23606V51.4329ZM8.26861 51.1749H8.97808V47.9618H8.26861V51.1749Z" fill="white"/>
<path d="M13.0061 47.8325H12.0446V51.3036H13.0061V47.8325Z" fill="#706F6F"/>
<path d="M13.1293 51.4329H11.9156V47.7097H13.1293V51.4329ZM12.1677 51.1749H12.8772V47.9618H12.1677V51.1749Z" fill="white"/>
<path d="M11.2882 47.8325H9.98656V51.3036H11.2882V47.8325Z" fill="#706F6F"/>
<path d="M11.4172 51.4329H9.85757V47.7097H11.4172V51.4329ZM10.1156 51.1749H11.1651V47.9618H10.1156V51.1749Z" fill="white"/>
<path d="M9.10706 40.4097H8.14548V43.8807H9.10706V40.4097Z" fill="#706F6F"/>
<path d="M9.23606 44.0042H8.02235V40.281H9.23606V44.0042ZM8.26861 43.7521H8.97808V40.539H8.26861V43.7521Z" fill="white"/>
<path d="M13.0061 40.4094H12.0446V43.8805H13.0061V40.4094Z" fill="#706F6F"/>
<path d="M13.1293 44.004H11.9156V40.2808H13.1293V44.004ZM12.1677 43.7518H12.8772V40.5387H12.1677V43.7518Z" fill="white"/>
<path d="M11.2882 40.4094H9.98656V43.8805H11.2882V40.4094Z" fill="#706F6F"/>
<path d="M11.4172 44.004H9.85757V40.2808H11.4172V44.004ZM10.1156 43.7518H11.1651V40.5387H10.1156V43.7518Z" fill="white"/>
<path d="M9.10706 31.2512H8.14548V34.7223H9.10706V31.2512Z" fill="#706F6F"/>
<path d="M9.23606 34.846H8.02235V31.1228H9.23606V34.846ZM8.26861 34.5939H8.97808V31.3808H8.26861V34.5939Z" fill="white"/>
<path d="M13.0061 31.2515H12.0446V34.7225H13.0061V31.2515Z" fill="#706F6F"/>
<path d="M13.1293 34.8458H11.9156V31.1226H13.1293V34.8458ZM12.1677 34.5936H12.8772V31.3805H12.1677V34.5936Z" fill="white"/>
<path d="M11.2882 31.2515H9.98656V34.7225H11.2882V31.2515Z" fill="#706F6F"/>
<path d="M11.4172 34.8458H9.85757V31.1226H11.4172V34.8458ZM10.1156 34.5936H11.1651V31.3805H10.1156V34.5936Z" fill="white"/>
<path d="M9.32402 20.1348H8.50902V22.8729H9.32402V20.1348Z" fill="#706F6F"/>
<path d="M9.45301 22.9961H8.38002V20.0059H9.45301V22.9961ZM8.63801 22.744H9.20089V20.2638H8.63801V22.744Z" fill="white"/>
<path d="M12.6367 20.1348H11.8217V22.8729H12.6367V20.1348Z" fill="#706F6F"/>
<path d="M12.7657 22.9959H11.6928V20.0056H12.7657V22.9959ZM11.9449 22.7438H12.5078V20.2636H11.9449V22.7438Z" fill="white"/>
<path d="M11.1827 20.1348H10.0745V22.8729H11.1827V20.1348Z" fill="#706F6F"/>
<path d="M11.3117 22.9959H9.9514V20.0056H11.3117V22.9959ZM10.2035 22.7438H11.0537V20.2636H10.2035V22.7438Z" fill="white"/>
<path d="M8.1572 28.8357H7.52397V30.3602H8.1572V28.8357Z" fill="#C4C4C4"/>
<path d="M9.25366 28.8357H8.62042V30.3602H9.25366V28.8357Z" fill="#C4C4C4"/>
<path d="M10.3442 28.8357H9.711V30.3602H10.3442V28.8357Z" fill="#C4C4C4"/>
<path d="M11.4348 28.8357H10.8016V30.3602H11.4348V28.8357Z" fill="#C4C4C4"/>
<path d="M12.5312 28.8357H11.898V30.3602H12.5312V28.8357Z" fill="#C4C4C4"/>
<path d="M13.6218 28.8357H12.9886V30.3602H13.6218V28.8357Z" fill="#C4C4C4"/>
<path d="M13.0062 23.5002H8.14548V25.8807H13.0062V23.5002Z" fill="#C4C4C4"/>
<path d="M8.93704 23.9285H8.50902V25.4529H8.93704V23.9285Z" fill="#878787"/>
<path d="M9.67582 23.9282H9.24779V25.4527H9.67582V23.9282Z" fill="#878787"/>
<path d="M10.4204 23.9282H9.99242V25.4527H10.4204V23.9282Z" fill="#878787"/>
<path d="M11.1592 23.9282H10.7312V25.4527H11.1592V23.9282Z" fill="#878787"/>
<path d="M11.898 23.9282H11.47V25.4527H11.898V23.9282Z" fill="#878787"/>
<path d="M12.6368 23.9282H12.2087V25.4527H12.6368V23.9282Z" fill="#878787"/>
<path d="M7.52983 13.9429H2.79228V14.623H7.52983V13.9429Z" fill="#9D9D9C"/>
<path d="M18.3594 13.9429H13.6218V14.623H18.3594V13.9429Z" fill="#9D9D9C"/>
<path d="M13.399 13.9194H7.84059V14.5996H13.399V13.9194Z" fill="#9D9D9C"/>
<path d="M8.76112 14.4356C8.70835 15.4324 9.47645 16.2825 10.4732 16.3353C11.47 16.3881 12.3201 15.62 12.3729 14.6232C12.4257 13.6265 11.6576 12.7763 10.6608 12.7235C9.66407 12.6707 8.81389 13.4388 8.76112 14.4356Z" fill="#D8D8D8"/>
<path d="M9.01325 14.5994C9.01325 14.5584 9.01325 14.5114 9.01325 14.4704C9.05429 13.6437 9.73443 12.9987 10.5612 12.9987C10.5905 12.9987 10.6139 12.9987 10.6432 12.9987C11.4876 13.0456 12.1384 13.7609 12.1149 14.5994H12.6192C12.6485 13.4912 11.7807 12.5472 10.6667 12.4886C9.52336 12.43 8.56178 13.3095 8.50314 14.4411C8.50314 14.4939 8.50314 14.5466 8.50314 14.5994H9.01325Z" fill="#9D9D9C"/>
<path d="M9.57611 15.3091H8.91942V18.0472H9.57611V15.3091Z" fill="#706F6F"/>
<path d="M9.70512 18.1761H8.79631V15.1858H9.70512V18.1761ZM9.04843 17.9181H9.44714V15.4379H9.04843V17.9181Z" fill="white"/>
<path d="M12.2322 15.3091H11.5755V18.0472H12.2322V15.3091Z" fill="#706F6F"/>
<path d="M12.3553 18.1761H11.4465V15.1858H12.3553V18.1761ZM11.6986 17.9181H12.0973V15.4379H11.6986V17.9181Z" fill="white"/>
<path d="M11.0595 15.3091H10.1741V18.0472H11.0595V15.3091Z" fill="#706F6F"/>
<path d="M11.1885 18.1761H10.0452V15.1858H11.1885V18.1761ZM10.3032 17.9181H10.9364V15.4379H10.3032V17.9181Z" fill="white"/>
<path d="M90.6833 12.0315H77.7488V19.4896H90.6833V12.0315Z" fill="#66807E"/>
<path d="M79.0035 5.51709L76.9748 14.2593H81.0381L79.0035 5.51709Z" fill="#74A19F"/>
<path d="M89.839 5.51709L87.8044 14.2593H91.8676L89.839 5.51709Z" fill="#74A19F"/>
<path d="M84.4154 0L81.7827 13.9723H87.048L84.4154 0Z" fill="#74A19F"/>
<path d="M86.8369 14.2595H81.9938V19.1906H86.8369V14.2595Z" fill="#D8D8D8"/>
<path d="M89.4989 19.1904H79.3436V54.3937H89.4989V19.1904Z" fill="#D8D8D8"/>
<path d="M81.0381 54.3942H77.655V29.4283L76.9748 28.4432V26.4263H81.0381V54.3942Z" fill="#C4C4C4"/>
<path d="M91.1934 54.3942H87.8044V26.4263H91.8676V28.4432L91.1934 29.3345V54.3942Z" fill="#C4C4C4"/>
<path d="M94.0722 54.3938H74.7761V66.9999H94.0722V54.3938Z" fill="#9D9D9C"/>
<path opacity="0.1" d="M91.1934 44.6199H77.655V46.6486H91.1934V44.6199Z" fill="#1D1D1B"/>
<path opacity="0.1" d="M91.1934 35.5259H77.655V37.5546H91.1934V35.5259Z" fill="#1D1D1B"/>
<path d="M81.0381 14.2598H76.9748V28.4431H81.0381V14.2598Z" fill="#C4C4C4"/>
<path d="M91.8676 14.2598H87.8044V28.4431H91.8676V14.2598Z" fill="#C4C4C4"/>
<path opacity="0.1" d="M91.8676 26.4263H76.9748V28.455H91.8676V26.4263Z" fill="#1D1D1B"/>
<path opacity="0.1" d="M91.8676 18.8916H76.9748V19.4897H91.8676V18.8916Z" fill="#1D1D1B"/>
<path d="M91.1934 52.0662H77.655V54.3939H91.1934V52.0662Z" fill="#706F6F"/>
<path d="M82.9554 47.8325H81.9938V51.3036H82.9554V47.8325Z" fill="#706F6F"/>
<path d="M83.0844 51.4329H81.8707V47.7097H83.0844V51.4329ZM82.117 51.1749H82.8264V47.9618H82.117V51.1749Z" fill="white"/>
<path d="M86.8486 47.8325H85.8871V51.3036H86.8486V47.8325Z" fill="#706F6F"/>
<path d="M86.9777 51.4329H85.7639V47.7097H86.9777V51.4329ZM86.0161 51.1749H86.7255V47.9618H86.0161V51.1749Z" fill="white"/>
<path d="M85.1366 47.8325H83.8349V51.3036H85.1366V47.8325Z" fill="#706F6F"/>
<path d="M85.2655 51.4329H83.7059V47.7097H85.2655V51.4329ZM83.9639 51.1749H85.0134V47.9618H83.9639V51.1749Z" fill="white"/>
<path d="M82.9554 40.4097H81.9938V43.8807H82.9554V40.4097Z" fill="#706F6F"/>
<path d="M83.0844 44.0042H81.8707V40.281H83.0844V44.0042ZM82.117 43.7521H82.8264V40.539H82.117V43.7521Z" fill="white"/>
<path d="M86.8486 40.4094H85.8871V43.8805H86.8486V40.4094Z" fill="#706F6F"/>
<path d="M86.9777 44.004H85.7639V40.2808H86.9777V44.004ZM86.0161 43.7518H86.7255V40.5387H86.0161V43.7518Z" fill="white"/>
<path d="M85.1366 40.4094H83.8349V43.8805H85.1366V40.4094Z" fill="#706F6F"/>
<path d="M85.2655 44.004H83.7059V40.2808H85.2655V44.004ZM83.9639 43.7518H85.0134V40.5387H83.9639V43.7518Z" fill="white"/>
<path d="M82.9554 31.2512H81.9938V34.7223H82.9554V31.2512Z" fill="#706F6F"/>
<path d="M83.0844 34.846H81.8707V31.1228H83.0844V34.846ZM82.117 34.5939H82.8264V31.3808H82.117V34.5939Z" fill="white"/>
<path d="M86.8486 31.2515H85.8871V34.7225H86.8486V31.2515Z" fill="#706F6F"/>
<path d="M86.9777 34.8458H85.7639V31.1226H86.9777V34.8458ZM86.0161 34.5936H86.7255V31.3805H86.0161V34.5936Z" fill="white"/>
<path d="M85.1366 31.2515H83.8349V34.7225H85.1366V31.2515Z" fill="#706F6F"/>
<path d="M85.2655 34.8458H83.7059V31.1226H85.2655V34.8458ZM83.9639 34.5936H85.0134V31.3805H83.9639V34.5936Z" fill="white"/>
<path d="M83.1724 20.1348H82.3574V22.8729H83.1724V20.1348Z" fill="#706F6F"/>
<path d="M83.3014 22.9961H82.2284V20.0059H83.3014V22.9961ZM82.4863 22.744H83.0492V20.2638H82.4863V22.744Z" fill="white"/>
<path d="M86.4851 20.1348H85.6701V22.8729H86.4851V20.1348Z" fill="#706F6F"/>
<path d="M86.6141 22.9959H85.5411V20.0056H86.6141V22.9959ZM85.7933 22.7438H86.3561V20.2636H85.7933V22.7438Z" fill="white"/>
<path d="M85.031 20.1348H83.9229V22.8729H85.031V20.1348Z" fill="#706F6F"/>
<path d="M85.16 22.9959H83.7997V20.0056H85.16V22.9959ZM84.0519 22.7438H84.902V20.2636H84.0519V22.7438Z" fill="white"/>
<path d="M82.0055 28.8357H81.3723V30.3602H82.0055V28.8357Z" fill="#C4C4C4"/>
<path d="M83.102 28.8357H82.4688V30.3602H83.102V28.8357Z" fill="#C4C4C4"/>
<path d="M84.1926 28.8357H83.5593V30.3602H84.1926V28.8357Z" fill="#C4C4C4"/>
<path d="M85.2831 28.8357H84.6499V30.3602H85.2831V28.8357Z" fill="#C4C4C4"/>
<path d="M86.3737 28.8357H85.7405V30.3602H86.3737V28.8357Z" fill="#C4C4C4"/>
<path d="M87.4702 28.8357H86.8369V30.3602H87.4702V28.8357Z" fill="#C4C4C4"/>
<path d="M86.8545 23.5002H81.9938V25.8807H86.8545V23.5002Z" fill="#C4C4C4"/>
<path d="M82.7854 23.9285H82.3574V25.4529H82.7854V23.9285Z" fill="#878787"/>
<path d="M83.5241 23.9282H83.0961V25.4527H83.5241V23.9282Z" fill="#878787"/>
<path d="M84.2688 23.9282H83.8408V25.4527H84.2688V23.9282Z" fill="#878787"/>
<path d="M85.0076 23.9282H84.5795V25.4527H85.0076V23.9282Z" fill="#878787"/>
<path d="M85.7463 23.9282H85.3183V25.4527H85.7463V23.9282Z" fill="#878787"/>
<path d="M86.4851 23.9282H86.0571V25.4527H86.4851V23.9282Z" fill="#878787"/>
<path d="M81.3782 13.9429H76.6406V14.623H81.3782V13.9429Z" fill="#9D9D9C"/>
<path d="M92.2077 13.9429H87.4702V14.623H92.2077V13.9429Z" fill="#9D9D9C"/>
<path d="M87.2474 13.9194H81.6889V14.5996H87.2474V13.9194Z" fill="#9D9D9C"/>
<path d="M82.6095 14.4356C82.5567 15.4324 83.3248 16.2825 84.3216 16.3353C85.3183 16.3881 86.1685 15.62 86.2213 14.6232C86.2741 13.6265 85.506 12.7763 84.5092 12.7235C83.5124 12.6707 82.6623 13.4388 82.6095 14.4356Z" fill="#D8D8D8"/>
<path d="M82.8616 14.5994C82.8616 14.5584 82.8616 14.5114 82.8616 14.4704C82.9027 13.6437 83.5828 12.9987 84.4095 12.9987C84.4388 12.9987 84.4623 12.9987 84.4916 12.9987C85.3359 13.0456 85.9867 13.7609 85.9633 14.5994H86.4675C86.4969 13.4912 85.6291 12.5472 84.515 12.4886C83.3717 12.43 82.4101 13.3095 82.3515 14.4411C82.3515 14.4939 82.3515 14.5466 82.3515 14.5994H82.8616Z" fill="#9D9D9C"/>
<path d="M83.4245 15.3091H82.7678V18.0472H83.4245V15.3091Z" fill="#706F6F"/>
<path d="M83.5476 18.1761H82.6388V15.1858H83.5476V18.1761ZM82.8968 17.9181H83.2955V15.4379H82.8968V17.9181Z" fill="white"/>
<path d="M86.0805 15.3091H85.4239V18.0472H86.0805V15.3091Z" fill="#706F6F"/>
<path d="M86.2037 18.1761H85.2949V15.1858H86.2037V18.1761ZM85.547 17.9181H85.9457V15.4379H85.547V17.9181Z" fill="white"/>
<path d="M84.9079 15.3091H84.0225V18.0472H84.9079V15.3091Z" fill="#706F6F"/>
<path d="M85.0369 18.1761H83.8935V15.1858H85.0369V18.1761ZM84.1515 17.9181H84.7848V15.4379H84.1515V17.9181Z" fill="white"/>
<path d="M47.5293 19.1611H47.4648C45.6413 19.1611 44.1638 20.6387 44.1638 22.4622V25.6753H50.8362V22.4622C50.8362 20.6445 49.3528 19.1611 47.5293 19.1611Z" fill="#DADADA"/>
<path d="M44.5332 25.7165C44.5332 25.7048 44.539 25.6931 44.539 25.6813V19.5659C44.539 19.3783 44.369 19.2258 44.1638 19.2258C43.9586 19.2258 43.7885 19.3783 43.7885 19.5659V25.6813C43.7885 25.6931 43.7944 25.7048 43.7944 25.7165H44.5332Z" fill="#66807E"/>
<path d="M51.1998 25.7165C51.1998 25.7048 51.2056 25.6931 51.2056 25.6813V19.5659C51.2056 19.3783 51.0356 19.2258 50.8304 19.2258C50.6252 19.2258 50.4551 19.3783 50.4551 19.5659V25.6813C50.4551 25.6931 50.461 25.7048 50.461 25.7165H51.1998Z" fill="#66807E"/>
</g>
</svg>
