<svg width="108" height="109" viewBox="0 0 108 109" fill="none" xmlns="http://www.w3.org/2000/svg">
<path d="M77.0022 0.938232C95.2057 0.938232 107.395 13.7182 107.395 32.7272V76.6034C107.395 95.5532 95.2057 108.333 77.0022 108.333H30.4465C12.243 108.333 0 95.5532 0 76.6034V32.7272C0 13.7182 12.243 0.938232 30.4465 0.938232H77.0022ZM76.1431 38.5265C74.3174 36.7008 71.3103 36.7008 69.4846 38.5265L47.3075 60.7036L37.9104 51.3065C36.0847 49.4808 33.0777 49.4808 31.252 51.3065C29.4262 53.1322 29.4262 56.0856 31.252 57.965L44.032 70.6913C44.9448 71.6042 46.1262 72.0337 47.3075 72.0337C48.5426 72.0337 49.7239 71.6042 50.6368 70.6913L76.1431 45.185C77.9688 43.3593 77.9688 40.4059 76.1431 38.5265Z" fill="#15A853"/>
</svg>
