<svg width="30" height="27" viewBox="0 0 30 27" fill="none" xmlns="http://www.w3.org/2000/svg">
<path fill-rule="evenodd" clip-rule="evenodd" d="M15.5458 0.559438C15.7199 0.382104 15.9268 0.241408 16.1546 0.14541C16.3824 0.0494124 16.6265 0 16.8731 0C17.1197 0 17.3639 0.0494124 17.5917 0.14541C17.8194 0.241408 18.0263 0.382104 18.2005 0.559438L29.4492 11.9848C29.6238 12.1617 29.7623 12.3718 29.8568 12.6032C29.9513 12.8345 30 13.0825 30 13.333C30 13.5835 29.9513 13.8315 29.8568 14.0628C29.7623 14.2942 29.6238 14.5043 29.4492 14.6812L18.2005 26.1066C17.8484 26.4642 17.371 26.665 16.8731 26.665C16.3753 26.665 15.8978 26.4642 15.5458 26.1066C15.1937 25.749 14.996 25.2641 14.996 24.7584C14.996 24.2527 15.1937 23.7678 15.5458 23.4102L25.4709 13.333L15.5458 3.25583C15.3712 3.07894 15.2327 2.86881 15.1382 2.63746C15.0436 2.40612 14.995 2.15811 14.995 1.90763C14.995 1.65716 15.0436 1.40915 15.1382 1.1778C15.2327 0.946459 15.3712 0.736325 15.5458 0.559438Z" fill="white"/>
<path fill-rule="evenodd" clip-rule="evenodd" d="M0 13.3433C0 12.8357 0.197522 12.3488 0.549113 11.9898C0.900704 11.6309 1.37756 11.4292 1.87479 11.4292H26.247C26.7443 11.4292 27.2211 11.6309 27.5727 11.9898C27.9243 12.3488 28.1218 12.8357 28.1218 13.3433C28.1218 13.851 27.9243 14.3378 27.5727 14.6968C27.2211 15.0558 26.7443 15.2574 26.247 15.2574H1.87479C1.37756 15.2574 0.900704 15.0558 0.549113 14.6968C0.197522 14.3378 0 13.851 0 13.3433Z" fill="white"/>
</svg>
