<svg width="93" height="83" viewBox="0 0 93 83" fill="none" xmlns="http://www.w3.org/2000/svg">
<path fill-rule="evenodd" clip-rule="evenodd" d="M47.8334 2.26139C48.3693 1.71574 49.0058 1.28283 49.7067 0.987455C50.4075 0.692077 51.1588 0.540039 51.9176 0.540039C52.6763 0.540039 53.4276 0.692077 54.1285 0.987455C54.8293 1.28283 55.4659 1.71574 56.0017 2.26139L90.6132 37.4164C91.1504 37.9607 91.5766 38.6073 91.8674 39.3191C92.1582 40.0309 92.3079 40.794 92.3079 41.5647C92.3079 42.3354 92.1582 43.0985 91.8674 43.8103C91.5766 44.5222 91.1504 45.1687 90.6132 45.713L56.0017 80.868C54.9185 81.9682 53.4494 82.5863 51.9176 82.5863C50.3857 82.5863 48.9166 81.9682 47.8334 80.868C46.7502 79.7678 46.1417 78.2757 46.1417 76.7197C46.1417 75.1638 46.7502 73.6716 47.8334 72.5714L78.3723 41.5647L47.8334 10.558C47.2962 10.0137 46.87 9.36714 46.5792 8.65531C46.2884 7.94348 46.1387 7.18037 46.1387 6.40968C46.1387 5.639 46.2884 4.87589 46.5792 4.16405C46.87 3.45222 47.2962 2.80565 47.8334 2.26139Z" fill="#8E5D0B"/>
<path fill-rule="evenodd" clip-rule="evenodd" d="M0 41.5949C0 40.0328 0.60776 38.5347 1.68958 37.4302C2.7714 36.3256 4.23866 35.7051 5.76858 35.7051H80.7601C82.29 35.7051 83.7573 36.3256 84.8391 37.4302C85.9209 38.5347 86.5287 40.0328 86.5287 41.5949C86.5287 43.1569 85.9209 44.655 84.8391 45.7596C83.7573 46.8641 82.29 47.4847 80.7601 47.4847H5.76858C4.23866 47.4847 2.7714 46.8641 1.68958 45.7596C0.60776 44.655 0 43.1569 0 41.5949Z" fill="#8E5D0B"/>
</svg>
