<svg width="1170" height="47" viewBox="0 0 1170 47" fill="none" xmlns="http://www.w3.org/2000/svg">
<line opacity="0.2" x1="83.9976" y1="22" x2="615" y2="22" stroke="black" stroke-dasharray="10 4"/>
<line opacity="0.2" x1="691.985" y1="19.9268" x2="1090.02" y2="19.9268" stroke="black" stroke-dasharray="10 4"/>
<g opacity="0.1">
<path d="M1.45407 2.96405C1.45407 1.67235 2.25904 0.468013 3.50082 0.112327C3.76915 0.0374456 4.04995 0 4.337 0H66.3388C68.8598 0.0124802 70.894 2.05925 70.894 4.57401V15.8249C70.894 16.5925 70.27 17.2165 69.5025 17.2165L63.1189 18.3709L61.9894 18.3646C61.4964 18.3584 61.0908 18.7515 61.0908 19.257L61.0284 26.7451C61.0222 27.4877 61.615 28.0805 62.3576 28.093L64.2109 28.1117C64.3045 28.2677 70.3636 30.0212 70.3636 30.0212C71.5118 30.1585 72.4354 31.0071 72.7037 32.1241C72.9346 33.0913 73.0531 34.1459 73.0469 34.7325V36.5858L73.0406 37.3096V38.3829L73.0344 40.1614C73.0344 40.2737 73.0282 40.386 72.997 40.4859C72.972 40.6044 72.9346 40.7167 72.8784 40.8291C72.6912 41.2097 72.3605 41.5092 71.9299 41.6465L69.7334 42.3142L65.6586 42.4265L52.311 42.3267L51.2689 42.3204L15.0325 42.0396L4.07491 42.0022L3.95634 41.9648L3.7629 41.9024L2.92673 41.6528C2.33392 41.4655 1.87216 41.0412 1.63503 40.4921C1.54144 40.2862 1.48526 40.074 1.46654 39.8494V39.6746L1.50398 30.302C1.4915 29.7029 1.4603 7.50062 1.45407 2.96405Z" fill="#E6332A"/>
<path d="M4.41826 12.3929L10.2465 12.3991C10.9517 12.3991 11.5257 11.825 11.5257 11.1199L11.532 4.58649C11.532 3.88135 10.9579 3.30727 10.2528 3.30727L4.42448 3.30103C3.71935 3.30103 3.14527 3.87511 3.14527 4.58024L3.13902 11.1136C3.13902 11.8188 3.71312 12.3929 4.41826 12.3929Z" fill="#76D9E3"/>
<path d="M4.41818 12.68L10.2464 12.6862C11.1076 12.6862 11.8127 11.9873 11.8189 11.12L11.8252 4.58656C11.8252 3.72542 11.1263 3.0203 10.2589 3.01406L4.43066 3.00781C3.56952 3.00781 2.8644 3.70671 2.85816 4.57409L2.85191 11.1075C2.85191 11.9749 3.55705 12.68 4.41818 12.68ZM10.2589 3.59438C10.8081 3.59438 11.2511 4.04367 11.2511 4.58656L11.2449 11.12C11.2449 11.6691 10.7956 12.1121 10.2527 12.1121L4.42441 12.1059C3.87528 12.1059 3.43223 11.6566 3.43223 11.1137L3.43848 4.58031C3.43848 4.03118 3.88777 3.58814 4.43066 3.58814L10.2589 3.59438Z" fill="#BF2A23"/>
<path d="M14.0342 12.4053L19.8625 12.4116C20.5676 12.4116 21.1417 11.8375 21.1417 11.1323L21.1479 4.59894C21.1479 3.89381 20.5739 3.31972 19.8687 3.31972L14.0405 3.31348C13.3353 3.31348 12.7612 3.88758 12.755 4.59271L12.7488 11.1261C12.7488 11.8312 13.3229 12.4053 14.0342 12.4053Z" fill="#76D9E3"/>
<path d="M14.0279 12.6924L19.8562 12.6987C20.7173 12.6987 21.4225 11.9998 21.4225 11.1324L21.4287 4.59901C21.4287 3.73788 20.7298 3.03275 19.8624 3.02651L14.0342 3.02026C13.173 3.02026 12.4679 3.71916 12.4617 4.58654L12.4554 11.1199C12.4617 11.9873 13.1668 12.6924 14.0279 12.6924ZM19.8687 3.60684C20.4178 3.60684 20.8609 4.05612 20.8609 4.59901L20.8546 11.1324C20.8546 11.6815 20.4053 12.1246 19.8624 12.1246L14.0342 12.1184C13.4851 12.1184 13.042 11.6691 13.042 11.1262L13.0482 4.59278C13.0482 4.04365 13.4975 3.60059 14.0404 3.60059L19.8687 3.60684Z" fill="#BF2A23"/>
<path d="M23.625 12.499L29.4533 12.5052C30.1584 12.5052 30.7325 11.9311 30.7325 11.226L30.7388 4.69257C30.7388 3.98743 30.1647 3.41335 29.4595 3.41335L23.6313 3.4071C22.9261 3.4071 22.3521 3.98121 22.3521 4.68634L22.3458 11.2197C22.3458 11.9249 22.9199 12.499 23.625 12.499Z" fill="#76D9E3"/>
<path d="M23.625 12.786L29.4532 12.7923C30.3144 12.7923 31.0195 12.0934 31.0257 11.226L31.032 4.69887C31.032 3.83773 30.3331 3.1326 29.4657 3.12636L23.6374 3.12012C22.7763 3.12012 22.0712 3.81902 22.0712 4.68639L22.0649 11.2198C22.0587 12.0809 22.7638 12.786 23.625 12.786ZM29.4657 3.70044C30.0148 3.70044 30.4579 4.14973 30.4579 4.69262L30.4517 11.226C30.4517 11.7751 30.0024 12.2182 29.4595 12.2182L23.6312 12.212C23.0821 12.212 22.639 11.7627 22.639 11.2198L22.6453 4.68639C22.6453 4.13726 23.0946 3.69422 23.6374 3.69422L29.4657 3.70044Z" fill="#BF2A23"/>
<path d="M33.235 12.5115L39.0633 12.5178C39.7684 12.5178 40.3425 11.9437 40.3487 11.2385L40.355 4.70514C40.355 4.00001 39.7809 3.4259 39.0758 3.4259L33.2475 3.41968C32.5424 3.41968 31.9683 3.99376 31.9683 4.69889L31.962 11.2323C31.9558 11.9374 32.5299 12.5115 33.235 12.5115Z" fill="#76D9E3"/>
<path d="M33.235 12.7985L39.0632 12.8047C39.9244 12.8047 40.6295 12.1059 40.6295 11.2385L40.6357 4.70509C40.6357 3.84395 39.9369 3.13881 39.0695 3.13257L33.2412 3.12634C32.3801 3.12634 31.6749 3.82522 31.6687 4.6926L31.6625 11.226C31.6687 12.0934 32.3738 12.7985 33.235 12.7985ZM39.0757 3.71291C39.6248 3.71291 40.0679 4.1622 40.0679 4.70509L40.0617 11.2385C40.0617 11.7876 39.6124 12.2307 39.0695 12.2307L33.2412 12.2244C32.6921 12.2244 32.249 11.7751 32.249 11.2322L32.2553 4.69884C32.2553 4.14971 32.7046 3.70667 33.2475 3.70667L39.0757 3.71291Z" fill="#BF2A23"/>
<path d="M42.8448 12.5237L48.673 12.53C49.3782 12.53 49.9523 11.9559 49.9523 11.2507L49.9585 4.71735C49.9585 4.01221 49.3844 3.43813 48.6793 3.43813L42.851 3.43188C42.1459 3.43188 41.5718 4.00599 41.5718 4.71112L41.5655 11.2445C41.5655 11.9496 42.1396 12.5237 42.8448 12.5237Z" fill="#76D9E3"/>
<path d="M42.8446 12.811L48.6729 12.8172C49.534 12.8172 50.2391 12.1183 50.2391 11.2509L50.2454 4.71754C50.2454 3.85641 49.5465 3.15128 48.6791 3.14504L42.8508 3.13879C41.9897 3.13879 41.2846 3.83769 41.2783 4.70507L41.2721 11.2385C41.2783 12.1058 41.9835 12.811 42.8446 12.811ZM48.6853 3.72537C49.2345 3.72537 49.6775 4.17465 49.6775 4.71754L49.6713 11.2509C49.6713 11.8001 49.222 12.2431 48.6791 12.2431L42.8508 12.2369C42.3017 12.2369 41.8587 11.7876 41.8587 11.2447L41.8649 4.71131C41.8649 4.16218 42.3142 3.71912 42.8571 3.71912L48.6853 3.72537Z" fill="#BF2A23"/>
<path d="M52.4671 12.4615L58.2953 12.4677C59.0005 12.4677 59.5746 11.8936 59.5746 11.1885L59.5808 4.65509C59.5808 3.94996 59.0067 3.37587 58.3016 3.36963L52.4733 3.3634C51.7682 3.3634 51.1941 3.93749 51.1941 4.64262L51.1879 11.176C51.1879 11.8812 51.762 12.4552 52.4671 12.4615Z" fill="#76D9E3"/>
<path d="M52.4669 12.7424L58.2952 12.7486C59.1563 12.7486 59.8614 12.0497 59.8614 11.1823L59.8677 4.64894C59.8677 3.7878 59.1688 3.08266 58.3014 3.07642L52.4731 3.07019C51.612 3.07019 50.9069 3.76907 50.9006 4.63645L50.8944 11.1698C50.9006 12.0372 51.6058 12.7424 52.4669 12.7424ZM58.3076 3.65676C58.8568 3.65676 59.2998 4.10605 59.2998 4.64894L59.2936 11.1823C59.2936 11.7315 58.8443 12.1745 58.3014 12.1745L52.4731 12.1683C51.924 12.1683 51.481 11.719 51.481 11.1761L51.4872 4.64269C51.4872 4.09356 51.9365 3.65052 52.4794 3.65052L58.3076 3.65676Z" fill="#BF2A23"/>
<path d="M62.0892 12.3928L67.9174 12.399C68.6226 12.399 69.1966 11.8249 69.1966 11.1198L69.2029 4.58636C69.2029 3.88123 68.6288 3.30715 67.9237 3.30715L62.0954 3.3009C61.3903 3.3009 60.8162 3.87499 60.8162 4.58012L60.8099 11.1135C60.8099 11.8124 61.384 12.3865 62.0892 12.3928Z" fill="#76D9E3"/>
<path d="M62.0892 12.6801L67.9175 12.6864C68.7786 12.6864 69.4837 11.9875 69.4837 11.1201L69.49 4.58668C69.49 3.72555 68.7911 3.02042 67.9237 3.01418L62.0955 3.00793C61.2343 3.00793 60.5292 3.70683 60.5229 4.57421L60.5167 11.1076C60.5229 11.9687 61.2281 12.6739 62.0892 12.6801ZM67.93 3.58826C68.4791 3.58826 68.9221 4.03755 68.9221 4.58044L68.9159 11.1138C68.9159 11.663 68.4666 12.106 67.9237 12.106L62.0955 12.0998C61.5463 12.0998 61.1033 11.6505 61.1033 11.1076L61.1095 4.57421C61.1095 4.02508 61.5588 3.58201 62.1017 3.58201L67.93 3.58826Z" fill="#BF2A23"/>
<path d="M1.03599 29.4659C0.174853 29.4097 0.143648 32.8418 0.992304 32.8543C1.07967 32.224 1.10463 30.1086 1.03599 29.4659Z" fill="#FF4515"/>
<path d="M1.02523 29.4766L1.56812 29.4813L1.5389 32.8697L0.996009 32.865L1.02523 29.4766Z" fill="#B2B2B2"/>
<path d="M3.18885 39.8618C3.18885 40.1676 3.20757 40.4671 3.24501 40.7604C3.29493 41.1161 3.36981 41.4593 3.47589 41.7963H3.76918L14.6707 41.8399L15.0388 41.7276L15.3695 41.6278C15.5068 41.1473 15.5879 40.6418 15.6004 40.1239C15.6067 40.0677 15.6067 40.0178 15.6067 39.9617C15.6379 36.5296 12.8797 33.7278 9.44144 33.6966C6.02185 33.6716 3.22005 36.4298 3.18885 39.8618Z" fill="#634E42"/>
<path d="M57.0535 40.4297V40.4858C57.0535 40.7729 57.0722 41.0599 57.1096 41.3283C57.1533 41.6902 57.2407 42.0272 57.3405 42.3579V42.3641H57.64L59.2749 42.3704L66.3325 42.3953L68.7974 42.3329L68.9097 42.2955L69.2466 42.1956C69.3839 41.7151 69.4588 41.2097 69.4775 40.6918V40.4796C69.4838 37.0725 66.7319 34.2894 63.3185 34.2645C59.8865 34.2395 57.0847 36.9914 57.0535 40.4297Z" fill="#634E42"/>
<path d="M62.3513 27.7685C61.7897 27.7623 61.3342 27.3005 61.3404 26.7389C61.3342 27.3005 61.7897 27.7623 62.3513 27.7685Z" fill="#F39200"/>
<path d="M62.3513 27.7684C61.7897 27.7621 61.3342 27.3004 61.3404 26.7388L61.4028 19.2444C61.4028 18.9199 61.6712 18.6641 61.9894 18.6641L62.9005 18.6703C63.1314 21.7404 63.4309 24.3363 63.6555 27.6311L62.3513 27.7684Z" fill="#76D9E3"/>
<path d="M61.8831 18.2897L63.0937 18.3022C63.2123 18.4894 63.1436 18.764 62.9876 18.8888L61.8769 18.8763C61.7022 18.8763 61.5586 19.0074 61.5586 19.1758L61.4962 26.8075C61.49 27.2193 61.8394 27.5563 62.2763 27.5626L63.6678 27.5875C63.6616 27.5563 64.0734 27.731 64.2668 28.1928L62.27 28.1491C61.5025 28.1429 60.8785 27.5376 60.8847 26.8075L60.9471 19.1758C60.9471 18.6829 61.3714 18.2835 61.8831 18.2897Z" fill="#BF2A23"/>
<path d="M57.7336 41.0537L57.7211 42.3642L68.9907 42.2955L69.0032 41.1661C69.0282 38.071 66.5384 35.5375 63.4433 35.5125H63.3746C60.2796 35.4876 57.7585 37.9711 57.7336 41.0537Z" fill="#1D1D1B"/>
<path d="M3.76277 40.4859L3.75029 41.8961L4.0623 41.9897L15.0137 42.0334L15.0262 40.5982C15.0511 37.5031 12.5613 34.9696 9.46624 34.9446H9.39759C6.31497 34.9197 3.78773 37.397 3.76277 40.4859Z" fill="#1D1D1B"/>
<path d="M61.9519 32.1302C61.9457 33.2535 69.0344 34.2456 71.4181 34.2581C72.4478 34.2644 73.103 34.1084 73.3651 33.8275C73.7145 33.4594 73.4774 32.8728 73.4836 32.2363C73.4836 31.6061 73.7145 31.007 73.3775 30.6326C73.1217 30.3393 72.479 30.202 71.4369 30.202C69.0531 30.1896 61.9581 31.007 61.9519 32.1302Z" fill="#BF2A23"/>
<path d="M73.365 30.6264C74.1825 30.589 74.1575 33.8276 73.3526 33.8276C73.2777 33.2285 73.2839 31.2255 73.365 30.6264Z" fill="#FFE697"/>
<path d="M4.27463 35.1256C4.26839 35.7746 3.33236 36.3112 1.90962 36.2925C1.29185 36.2863 0.661602 36.1864 0.511839 36.0179C0.305916 35.7995 0.337121 34.383 0.536805 34.1646C0.692808 33.9961 1.32307 33.9275 1.94708 33.9337C3.36358 33.9587 4.28087 34.4766 4.27463 35.1256Z" fill="#634E42"/>
<path d="M52.9413 27.9743L58.7696 28.0243C59.6307 28.0305 60.3421 27.3316 60.3483 26.4705L60.4045 19.9371C60.4107 19.0759 59.7118 18.3646 58.8507 18.3583L53.0224 18.3084C52.1613 18.3022 51.4499 19.0011 51.4437 19.8622L51.3875 26.3956C51.3813 27.2567 52.0802 27.9681 52.9413 27.9743ZM58.8445 18.9262C59.3936 18.9324 59.8366 19.3817 59.8304 19.9308L59.7742 26.4642C59.768 27.0134 59.3187 27.4564 58.7696 27.4502L52.9413 27.4002C52.3922 27.394 51.9491 26.9447 51.9554 26.3956L52.0115 19.8622C52.0178 19.3131 52.4671 18.87 53.0162 18.8762L58.8445 18.9262Z" fill="#FF9E00"/>
<path d="M51.1192 38.6574C51.1192 38.9882 51.2503 39.3002 51.4811 39.5373C51.712 39.7682 52.0303 39.8992 52.361 39.8992L54.1394 39.893C54.8258 39.893 55.4062 39.3688 55.4686 38.6824C55.7868 35.3876 57.9584 34.1583 59.6307 33.734C60.1299 33.6092 60.4731 33.1599 60.4731 32.6482L60.4544 19.8373C60.4544 18.9512 59.7306 18.2273 58.8445 18.2273L52.8103 18.2335C51.868 18.2335 51.1005 19.0011 51.1005 19.9496L51.1192 38.6574Z" fill="#BF2A23"/>
<path d="M52.9413 27.6436L58.7696 27.6374C59.4747 27.6374 60.0488 27.0633 60.0488 26.3519L60.0363 19.8185C60.0363 19.1134 59.4623 18.5393 58.7509 18.5393L52.9226 18.5456C52.2175 18.5456 51.6434 19.1196 51.6434 19.8248L51.6559 26.3582C51.6621 27.0695 52.2362 27.6436 52.9413 27.6436Z" fill="#76D9E3"/>
<path d="M4.44939 27.6313L10.2777 27.6251C10.9828 27.6251 11.5569 27.051 11.5569 26.3396L11.5444 19.8062C11.5444 19.1011 10.9703 18.527 10.2589 18.527L4.43067 18.5332C3.72553 18.5332 3.15145 19.1073 3.15145 19.8187L3.16393 26.3521C3.16393 27.0635 3.73801 27.6375 4.44939 27.6313Z" fill="#76D9E3"/>
<path d="M4.44946 27.9183L10.2777 27.912C11.1389 27.912 11.844 27.2069 11.844 26.3395L11.8315 19.8061C11.8315 18.945 11.1264 18.2399 10.259 18.2399L4.43074 18.2461C3.5696 18.2461 2.86446 18.9512 2.86446 19.8186L2.87696 26.352C2.88319 27.2194 3.58208 27.9245 4.44946 27.9183ZM10.259 18.8202C10.8081 18.8202 11.2512 19.2632 11.2512 19.8124L11.2637 26.3458C11.2637 26.8949 10.8206 27.3379 10.2715 27.3379L4.44323 27.3442C3.8941 27.3442 3.45103 26.9011 3.45103 26.352L3.43856 19.8186C3.43856 19.2695 3.88161 18.8264 4.43074 18.8264L10.259 18.8202Z" fill="#BF2A23"/>
<path d="M14.059 27.6187L19.8873 27.6125C20.5924 27.6125 21.1665 27.0384 21.1665 26.327L21.154 19.7936C21.154 19.0885 20.5799 18.5144 19.8686 18.5144L14.0403 18.5206C13.3352 18.5206 12.7611 19.0947 12.7611 19.8061L12.7735 26.3395C12.7798 27.0509 13.3539 27.6187 14.059 27.6187Z" fill="#76D9E3"/>
<path d="M14.0591 27.9057L19.8873 27.8995C20.7485 27.8995 21.4536 27.1943 21.4536 26.327L21.4411 19.7936C21.4411 18.9324 20.736 18.2273 19.8686 18.2273L14.0404 18.2335C13.1792 18.2335 12.4741 18.9387 12.4741 19.806L12.4866 26.3394C12.4928 27.2068 13.1917 27.9057 14.0591 27.9057ZM19.8749 18.8014C20.424 18.8014 20.8671 19.2444 20.8671 19.7936L20.8795 26.327C20.8795 26.8761 20.4365 27.3191 19.8873 27.3191L14.0591 27.3254C13.5099 27.3254 13.0669 26.8823 13.0669 26.3332L13.0544 19.7998C13.0544 19.2507 13.4975 18.8076 14.0466 18.8076L19.8749 18.8014Z" fill="#BF2A23"/>
<path d="M23.6564 27.6873L29.4847 27.6811C30.1898 27.6811 30.7639 27.107 30.7639 26.3956L30.7514 19.8622C30.7514 19.1571 30.1773 18.583 29.466 18.583L23.6377 18.5893C22.9326 18.5893 22.3585 19.1633 22.3585 19.8747L22.371 26.4081C22.371 27.1132 22.945 27.6873 23.6564 27.6873Z" fill="#76D9E3"/>
<path d="M23.6565 27.9744L29.4848 27.9682C30.3459 27.9682 31.051 27.2631 31.051 26.3957L31.0385 19.8623C31.0385 19.0012 30.3334 18.296 29.466 18.296L23.6378 18.3023C22.7766 18.3023 22.0715 19.0074 22.0715 19.8748L22.084 26.4082C22.084 27.2755 22.7891 27.9744 23.6565 27.9744ZM29.466 18.8701C30.0152 18.8701 30.4582 19.3132 30.4582 19.8623L30.4707 26.3957C30.4707 26.9448 30.0276 27.3879 29.4785 27.3879L23.6503 27.3941C23.1011 27.3941 22.6581 26.9511 22.6581 26.4019L22.6456 19.8685C22.6456 19.3194 23.0886 18.8763 23.6378 18.8763L29.466 18.8701Z" fill="#BF2A23"/>
<path d="M33.2663 27.675L39.0946 27.6688C39.7997 27.6688 40.3738 27.0947 40.3738 26.3833L40.3613 19.8499C40.3613 19.1448 39.7872 18.5707 39.0758 18.5707L33.2476 18.5769C32.5424 18.5769 31.9683 19.151 31.9683 19.8624L31.9808 26.3958C31.9808 27.1009 32.5549 27.675 33.2663 27.675Z" fill="#76D9E3"/>
<path d="M33.2661 27.962L39.0944 27.9557C39.9555 27.9557 40.6606 27.2506 40.6606 26.3832L40.6482 19.8498C40.6482 18.9887 39.943 18.2836 39.0757 18.2836L33.2474 18.2898C32.3863 18.2898 31.6811 18.9949 31.6811 19.8623L31.6936 26.3957C31.6936 27.2569 32.3987 27.962 33.2661 27.962ZM39.0757 18.8576C39.6248 18.8576 40.0678 19.3007 40.0678 19.8498L40.0803 26.3832C40.0803 26.9324 39.6373 27.3754 39.0881 27.3754L33.2599 27.3816C32.7108 27.3816 32.2677 26.9386 32.2677 26.3895L32.2552 19.8561C32.2552 19.3069 32.6983 18.8639 33.2474 18.8639L39.0757 18.8576Z" fill="#BF2A23"/>
<path d="M42.8759 27.6561L48.7042 27.6498C49.4093 27.6498 49.9834 27.0757 49.9834 26.3644L49.9709 19.831C49.9709 19.1258 49.3968 18.5518 48.6855 18.5518L42.8572 18.558C42.1521 18.558 41.578 19.1321 41.578 19.8435L41.5904 26.3768C41.5904 27.0882 42.1645 27.6623 42.8759 27.6561Z" fill="#76D9E3"/>
<path d="M42.876 27.9432L48.7042 27.9369C49.5654 27.9369 50.2705 27.2318 50.2705 26.3644L50.258 19.831C50.258 18.9699 49.5529 18.2648 48.6855 18.2648L42.8573 18.271C41.9961 18.271 41.291 18.9762 41.291 19.8435L41.3035 26.3769C41.3035 27.2443 42.0086 27.9494 42.876 27.9432ZM48.6855 18.8451C49.2346 18.8451 49.6777 19.2882 49.6777 19.8373L49.6902 26.3707C49.6902 26.9198 49.2471 27.3629 48.698 27.3629L42.8697 27.3691C42.3206 27.3691 41.8776 26.926 41.8776 26.3769L41.8651 19.8435C41.8651 19.2944 42.3081 18.8513 42.8573 18.8513L48.6855 18.8451Z" fill="#BF2A23"/>
<path d="M52.1238 29.6841C52.1238 29.8401 52.8539 29.9587 53.7524 29.9587C54.651 29.9587 55.3811 29.8339 55.3811 29.6779C55.3811 29.5219 54.651 29.4033 53.7524 29.4033C52.8539 29.4033 52.1238 29.5344 52.1238 29.6841Z" fill="#EDEDED"/>
<path d="M0.655205 34.0959C0.149756 34.0647 0.13103 36.0741 0.630239 36.0803C0.68016 35.7121 0.698885 34.4703 0.655205 34.0959Z" fill="#FFE697"/>
<path d="M70.7753 35.8495C70.7753 36.0492 70.9376 36.2177 71.1373 36.2177L73.0467 36.2364L73.053 35.5L71.1435 35.4813C70.9438 35.4813 70.7753 35.6498 70.7753 35.8495Z" fill="#634E42"/>
<path d="M70.7629 36.9228C70.7629 37.1225 70.9251 37.2909 71.1248 37.2909L73.0405 37.3097V36.5796L71.1248 36.5608C70.9314 36.5546 70.7629 36.7169 70.7629 36.9228Z" fill="#634E42"/>
<path d="M70.7568 37.9898C70.7568 38.1958 70.919 38.358 71.1187 38.358L73.0406 38.3767L73.0469 37.6466L71.1312 37.6279C70.9252 37.6279 70.7568 37.7902 70.7568 37.9898Z" fill="#634E42"/>
<path d="M59.2251 27.6249C59.2251 27.7061 59.2563 27.7872 59.3187 27.8496C59.3748 27.912 59.4559 27.9432 59.5433 27.9432L60.5667 27.9494C60.7414 27.9494 60.8912 27.8059 60.8912 27.6312L60.9224 23.6251C60.9224 23.5003 60.8724 23.3754 60.7851 23.2818C60.6977 23.1882 60.5729 23.1383 60.4481 23.1383L59.7118 23.1321C59.4684 23.1321 59.2625 23.3255 59.2625 23.5751L59.2251 27.6249Z" fill="#575756"/>
<path d="M62.1577 29.7654C62.2014 29.7654 62.2451 29.7529 62.2888 29.7342C62.4323 29.6655 62.4885 29.4908 62.4136 29.3473L60.5353 25.6344C60.4667 25.4909 60.292 25.4347 60.1484 25.5096C60.0049 25.5783 59.9487 25.753 60.0236 25.8965L61.9019 29.6094C61.9581 29.703 62.0579 29.7592 62.1577 29.7654Z" fill="#3C3C3B"/>
<path d="M68.7974 42.3392L69.7147 42.3142L71.9112 41.6465C72.3355 41.5092 72.6725 41.2097 72.8597 40.829C72.9159 40.7167 72.9533 40.6044 72.9783 40.4858H69.4713V40.698C69.4526 41.2159 69.3777 41.7214 69.2404 42.2019L68.9035 42.3017L68.7974 42.3392Z" fill="#634E42"/>
<path d="M15.0326 40.4797H57.0535C57.0535 40.7668 57.0722 41.0538 57.1097 41.3222C57.1534 41.6841 57.2407 42.021 57.3406 42.3518L52.2923 42.3143L51.2502 42.3081L15.0139 42.0273L15.0326 40.4797Z" fill="#634E42"/>
<path d="M1.62252 40.4797C1.85341 41.0289 2.32142 41.4532 2.91423 41.6404L3.75041 41.89L3.94385 41.9524L3.82528 41.241L3.76913 40.4797H1.62252Z" fill="#634E42"/>
<path d="M67.1874 41.3845C67.1687 43.5498 65.4028 45.2908 63.2374 45.2721C61.0721 45.2533 59.3374 43.4811 59.3561 41.3221C59.3748 39.1567 61.1408 37.422 63.3061 37.4407C65.4714 37.4532 67.1999 39.2191 67.1874 41.3845Z" fill="#DADADA"/>
<path d="M65.309 41.3656C65.2966 42.4888 64.3793 43.3998 63.2561 43.3873C62.1328 43.3749 61.228 42.4576 61.2343 41.3281C61.2467 40.1987 62.164 39.3001 63.2873 39.3063C64.4105 39.325 65.3153 40.2423 65.309 41.3656Z" fill="#F6F6F6"/>
<path d="M63.3121 36.2363C66.1389 36.2612 68.4103 38.5701 68.3853 41.3969C68.3603 44.2236 66.0515 46.495 63.2247 46.4701C60.3979 46.4451 58.1266 44.1363 58.1515 41.3095C58.1765 38.4827 60.4853 36.2113 63.3121 36.2363ZM63.2372 44.8289C65.1529 44.8476 66.7254 43.3001 66.7441 41.3844C66.7629 39.4624 65.2153 37.8962 63.2996 37.8774C61.3839 37.8587 59.8114 39.4063 59.7927 41.322C59.7739 43.2439 61.3215 44.8102 63.2372 44.8289Z" fill="#3C3C3B"/>
<path d="M13.3102 41.3845C13.2914 43.5498 11.5255 45.2908 9.36015 45.2721C7.19483 45.2533 5.46008 43.4811 5.4788 41.3221C5.49752 39.1567 7.26348 37.422 9.4288 37.4407C11.5941 37.4532 13.3289 39.2191 13.3102 41.3845Z" fill="#DADADA"/>
<path d="M11.4321 41.3656C11.4196 42.4888 10.5023 43.3998 9.37909 43.3873C8.25587 43.3749 7.35106 42.4576 7.3573 41.3281C7.36978 40.1987 8.28709 39.3001 9.41031 39.3063C10.5398 39.325 11.4383 40.2423 11.4321 41.3656Z" fill="#F6F6F6"/>
<path d="M9.43515 36.2363C12.2619 36.2612 14.5333 38.5701 14.5083 41.3969C14.4834 44.2236 12.1745 46.495 9.34777 46.4701C6.521 46.4451 4.2496 44.1363 4.27456 41.3095C4.29952 38.4827 6.60837 36.2113 9.43515 36.2363ZM9.36025 44.8289C11.276 44.8476 12.8485 43.3001 12.8672 41.3844C12.8859 39.4624 11.3384 37.8962 9.42265 37.8774C7.50694 37.8587 5.93443 39.4063 5.91571 41.322C5.90323 43.2439 7.44453 44.8102 9.36025 44.8289Z" fill="#3C3C3B"/>
<path d="M2.98919 39.7122C2.98295 40.2613 2.53366 40.7043 1.99077 40.6981L0.986122 40.6856C0.436992 40.6794 0.00017333 40.2301 0.00017333 39.6872C0.00641346 39.1381 0.455705 38.695 0.998595 38.7012L2.00326 38.7137C2.55239 38.7137 2.99543 39.163 2.98919 39.7122Z" fill="#EDEDED"/>
<path d="M70.607 40.0552C70.6007 40.6043 71.0438 41.0536 71.5929 41.0536L73.2403 41.0661C73.7894 41.0723 74.2387 40.6293 74.2387 40.0802C74.2449 39.531 73.8019 39.0818 73.2528 39.0818L71.6054 39.0693C71.0625 39.063 70.6132 39.5061 70.607 40.0552Z" fill="#EDEDED"/>
<path d="M3.18878 15.5255C3.18878 16.4178 3.91262 17.1354 4.79872 17.1354H57.6088C58.5011 17.1354 59.2188 16.4116 59.2188 15.5255C59.2188 14.6331 58.4949 13.9155 57.6088 13.9155H4.79872C3.91262 13.9155 3.18878 14.6394 3.18878 15.5255Z" fill="white"/>
</g>
<g opacity="0.1">
<path d="M1096.45 2.96405C1096.45 1.67235 1097.26 0.468013 1098.5 0.112327C1098.77 0.0374456 1099.05 0 1099.34 0H1161.34C1163.86 0.0124802 1165.89 2.05925 1165.89 4.57401V15.8249C1165.89 16.5925 1165.27 17.2165 1164.5 17.2165L1158.12 18.3709L1156.99 18.3646C1156.5 18.3584 1156.09 18.7515 1156.09 19.257L1156.03 26.7451C1156.02 27.4877 1156.61 28.0805 1157.36 28.093L1159.21 28.1117C1159.3 28.2677 1165.36 30.0212 1165.36 30.0212C1166.51 30.1585 1167.44 31.0071 1167.7 32.1241C1167.93 33.0913 1168.05 34.1459 1168.05 34.7325V36.5858L1168.04 37.3096V38.3829L1168.03 40.1614C1168.03 40.2737 1168.03 40.386 1168 40.4859C1167.97 40.6044 1167.93 40.7167 1167.88 40.8291C1167.69 41.2097 1167.36 41.5092 1166.93 41.6465L1164.73 42.3142L1160.66 42.4265L1147.31 42.3267L1146.27 42.3204L1110.03 42.0396L1099.07 42.0022L1098.96 41.9648L1098.76 41.9024L1097.93 41.6528C1097.33 41.4655 1096.87 41.0412 1096.64 40.4921C1096.54 40.2862 1096.49 40.074 1096.47 39.8494V39.6746L1096.5 30.302C1096.49 29.7029 1096.46 7.50062 1096.45 2.96405Z" fill="#E6332A"/>
<path d="M1099.42 12.3929L1105.25 12.3991C1105.95 12.3991 1106.53 11.825 1106.53 11.1199L1106.53 4.58649C1106.53 3.88135 1105.96 3.30727 1105.25 3.30727L1099.42 3.30103C1098.72 3.30103 1098.15 3.87511 1098.15 4.58024L1098.14 11.1136C1098.14 11.8188 1098.71 12.3929 1099.42 12.3929Z" fill="#76D9E3"/>
<path d="M1099.42 12.68L1105.25 12.6862C1106.11 12.6862 1106.81 11.9873 1106.82 11.12L1106.83 4.58656C1106.83 3.72542 1106.13 3.0203 1105.26 3.01406L1099.43 3.00781C1098.57 3.00781 1097.86 3.70671 1097.86 4.57409L1097.85 11.1075C1097.85 11.9749 1098.56 12.68 1099.42 12.68ZM1105.26 3.59438C1105.81 3.59438 1106.25 4.04367 1106.25 4.58656L1106.24 11.12C1106.24 11.6691 1105.8 12.1121 1105.25 12.1121L1099.42 12.1059C1098.88 12.1059 1098.43 11.6566 1098.43 11.1137L1098.44 4.58031C1098.44 4.03118 1098.89 3.58814 1099.43 3.58814L1105.26 3.59438Z" fill="#BF2A23"/>
<path d="M1109.03 12.4053L1114.86 12.4116C1115.57 12.4116 1116.14 11.8375 1116.14 11.1323L1116.15 4.59894C1116.15 3.89381 1115.57 3.31972 1114.87 3.31972L1109.04 3.31348C1108.34 3.31348 1107.76 3.88758 1107.75 4.59271L1107.75 11.1261C1107.75 11.8312 1108.32 12.4053 1109.03 12.4053Z" fill="#76D9E3"/>
<path d="M1109.03 12.6924L1114.86 12.6987C1115.72 12.6987 1116.42 11.9998 1116.42 11.1324L1116.43 4.59901C1116.43 3.73788 1115.73 3.03275 1114.86 3.02651L1109.03 3.02026C1108.17 3.02026 1107.47 3.71916 1107.46 4.58654L1107.46 11.1199C1107.46 11.9873 1108.17 12.6924 1109.03 12.6924ZM1114.87 3.60684C1115.42 3.60684 1115.86 4.05612 1115.86 4.59901L1115.85 11.1324C1115.85 11.6815 1115.41 12.1246 1114.86 12.1246L1109.03 12.1184C1108.49 12.1184 1108.04 11.6691 1108.04 11.1262L1108.05 4.59278C1108.05 4.04365 1108.5 3.60059 1109.04 3.60059L1114.87 3.60684Z" fill="#BF2A23"/>
<path d="M1118.63 12.499L1124.45 12.5052C1125.16 12.5052 1125.73 11.9311 1125.73 11.226L1125.74 4.69257C1125.74 3.98743 1125.16 3.41335 1124.46 3.41335L1118.63 3.4071C1117.93 3.4071 1117.35 3.98121 1117.35 4.68634L1117.35 11.2197C1117.35 11.9249 1117.92 12.499 1118.63 12.499Z" fill="#76D9E3"/>
<path d="M1118.62 12.786L1124.45 12.7923C1125.31 12.7923 1126.02 12.0934 1126.03 11.226L1126.03 4.69887C1126.03 3.83773 1125.33 3.1326 1124.47 3.12636L1118.64 3.12012C1117.78 3.12012 1117.07 3.81902 1117.07 4.68639L1117.06 11.2198C1117.06 12.0809 1117.76 12.786 1118.62 12.786ZM1124.47 3.70044C1125.01 3.70044 1125.46 4.14973 1125.46 4.69262L1125.45 11.226C1125.45 11.7751 1125 12.2182 1124.46 12.2182L1118.63 12.212C1118.08 12.212 1117.64 11.7627 1117.64 11.2198L1117.65 4.68639C1117.65 4.13726 1118.09 3.69422 1118.64 3.69422L1124.47 3.70044Z" fill="#BF2A23"/>
<path d="M1128.24 12.5115L1134.06 12.5178C1134.77 12.5178 1135.34 11.9437 1135.35 11.2385L1135.35 4.70514C1135.35 4.00001 1134.78 3.4259 1134.08 3.4259L1128.25 3.41968C1127.54 3.41968 1126.97 3.99376 1126.97 4.69889L1126.96 11.2323C1126.96 11.9374 1127.53 12.5115 1128.24 12.5115Z" fill="#76D9E3"/>
<path d="M1128.23 12.7985L1134.06 12.8047C1134.92 12.8047 1135.63 12.1059 1135.63 11.2385L1135.64 4.70509C1135.64 3.84395 1134.94 3.13881 1134.07 3.13257L1128.24 3.12634C1127.38 3.12634 1126.67 3.82522 1126.67 4.6926L1126.66 11.226C1126.67 12.0934 1127.37 12.7985 1128.23 12.7985ZM1134.08 3.71291C1134.62 3.71291 1135.07 4.1622 1135.07 4.70509L1135.06 11.2385C1135.06 11.7876 1134.61 12.2307 1134.07 12.2307L1128.24 12.2244C1127.69 12.2244 1127.25 11.7751 1127.25 11.2322L1127.26 4.69884C1127.26 4.14971 1127.7 3.70667 1128.25 3.70667L1134.08 3.71291Z" fill="#BF2A23"/>
<path d="M1137.84 12.5237L1143.67 12.53C1144.38 12.53 1144.95 11.9559 1144.95 11.2507L1144.96 4.71735C1144.96 4.01221 1144.38 3.43813 1143.68 3.43813L1137.85 3.43188C1137.15 3.43188 1136.57 4.00599 1136.57 4.71112L1136.57 11.2445C1136.57 11.9496 1137.14 12.5237 1137.84 12.5237Z" fill="#76D9E3"/>
<path d="M1137.84 12.811L1143.67 12.8172C1144.53 12.8172 1145.24 12.1183 1145.24 11.2509L1145.25 4.71754C1145.25 3.85641 1144.55 3.15128 1143.68 3.14504L1137.85 3.13879C1136.99 3.13879 1136.28 3.83769 1136.28 4.70507L1136.27 11.2385C1136.28 12.1058 1136.98 12.811 1137.84 12.811ZM1143.69 3.72537C1144.23 3.72537 1144.68 4.17465 1144.68 4.71754L1144.67 11.2509C1144.67 11.8001 1144.22 12.2431 1143.68 12.2431L1137.85 12.2369C1137.3 12.2369 1136.86 11.7876 1136.86 11.2447L1136.86 4.71131C1136.86 4.16218 1137.31 3.71912 1137.86 3.71912L1143.69 3.72537Z" fill="#BF2A23"/>
<path d="M1147.47 12.4615L1153.3 12.4677C1154 12.4677 1154.57 11.8936 1154.57 11.1885L1154.58 4.65509C1154.58 3.94996 1154.01 3.37587 1153.3 3.36963L1147.47 3.3634C1146.77 3.3634 1146.19 3.93749 1146.19 4.64262L1146.19 11.176C1146.19 11.8812 1146.76 12.4552 1147.47 12.4615Z" fill="#76D9E3"/>
<path d="M1147.47 12.7424L1153.3 12.7486C1154.16 12.7486 1154.86 12.0497 1154.86 11.1823L1154.87 4.64894C1154.87 3.7878 1154.17 3.08266 1153.3 3.07642L1147.47 3.07019C1146.61 3.07019 1145.91 3.76907 1145.9 4.63645L1145.89 11.1698C1145.9 12.0372 1146.61 12.7424 1147.47 12.7424ZM1153.31 3.65676C1153.86 3.65676 1154.3 4.10605 1154.3 4.64894L1154.29 11.1823C1154.29 11.7315 1153.84 12.1745 1153.3 12.1745L1147.47 12.1683C1146.92 12.1683 1146.48 11.719 1146.48 11.1761L1146.49 4.64269C1146.49 4.09356 1146.94 3.65052 1147.48 3.65052L1153.31 3.65676Z" fill="#BF2A23"/>
<path d="M1157.09 12.3928L1162.92 12.399C1163.62 12.399 1164.2 11.8249 1164.2 11.1198L1164.2 4.58636C1164.2 3.88123 1163.63 3.30715 1162.92 3.30715L1157.1 3.3009C1156.39 3.3009 1155.82 3.87499 1155.82 4.58012L1155.81 11.1135C1155.81 11.8124 1156.38 12.3865 1157.09 12.3928Z" fill="#76D9E3"/>
<path d="M1157.09 12.6801L1162.92 12.6864C1163.78 12.6864 1164.48 11.9875 1164.48 11.1201L1164.49 4.58668C1164.49 3.72555 1163.79 3.02042 1162.92 3.01418L1157.1 3.00793C1156.23 3.00793 1155.53 3.70683 1155.52 4.57421L1155.52 11.1076C1155.52 11.9687 1156.23 12.6739 1157.09 12.6801ZM1162.93 3.58826C1163.48 3.58826 1163.92 4.03755 1163.92 4.58044L1163.92 11.1138C1163.92 11.663 1163.47 12.106 1162.92 12.106L1157.1 12.0998C1156.55 12.0998 1156.1 11.6505 1156.1 11.1076L1156.11 4.57421C1156.11 4.02508 1156.56 3.58201 1157.1 3.58201L1162.93 3.58826Z" fill="#BF2A23"/>
<path d="M1096.04 29.4659C1095.17 29.4097 1095.14 32.8418 1095.99 32.8543C1096.08 32.224 1096.1 30.1086 1096.04 29.4659Z" fill="#FF4515"/>
<path d="M1096.03 29.4766L1096.57 29.4813L1096.54 32.8697L1096 32.865L1096.03 29.4766Z" fill="#B2B2B2"/>
<path d="M1098.19 39.8618C1098.19 40.1676 1098.21 40.4671 1098.25 40.7604C1098.29 41.1161 1098.37 41.4593 1098.48 41.7963H1098.77L1109.67 41.8399L1110.04 41.7276L1110.37 41.6278C1110.51 41.1473 1110.59 40.6418 1110.6 40.1239C1110.61 40.0677 1110.61 40.0178 1110.61 39.9617C1110.64 36.5296 1107.88 33.7278 1104.44 33.6966C1101.02 33.6716 1098.22 36.4298 1098.19 39.8618Z" fill="#634E42"/>
<path d="M1152.05 40.4297V40.4858C1152.05 40.7729 1152.07 41.0599 1152.11 41.3283C1152.15 41.6902 1152.24 42.0272 1152.34 42.3579V42.3641H1152.64L1154.27 42.3704L1161.33 42.3953L1163.8 42.3329L1163.91 42.2955L1164.25 42.1956C1164.38 41.7151 1164.46 41.2097 1164.48 40.6918V40.4796C1164.48 37.0725 1161.73 34.2894 1158.32 34.2645C1154.89 34.2395 1152.08 36.9914 1152.05 40.4297Z" fill="#634E42"/>
<path d="M1157.35 27.7685C1156.79 27.7623 1156.33 27.3005 1156.34 26.7389C1156.33 27.3005 1156.79 27.7623 1157.35 27.7685Z" fill="#F39200"/>
<path d="M1157.35 27.7684C1156.79 27.7621 1156.33 27.3004 1156.34 26.7388L1156.4 19.2444C1156.4 18.9199 1156.67 18.6641 1156.99 18.6641L1157.9 18.6703C1158.13 21.7404 1158.43 24.3363 1158.66 27.6311L1157.35 27.7684Z" fill="#76D9E3"/>
<path d="M1156.88 18.2897L1158.09 18.3022C1158.21 18.4894 1158.14 18.764 1157.99 18.8888L1156.88 18.8763C1156.7 18.8763 1156.56 19.0074 1156.56 19.1758L1156.5 26.8075C1156.49 27.2193 1156.84 27.5563 1157.28 27.5626L1158.67 27.5875C1158.66 27.5563 1159.07 27.731 1159.27 28.1928L1157.27 28.1491C1156.5 28.1429 1155.88 27.5376 1155.88 26.8075L1155.95 19.1758C1155.95 18.6829 1156.37 18.2835 1156.88 18.2897Z" fill="#BF2A23"/>
<path d="M1152.73 41.0537L1152.72 42.3642L1163.99 42.2955L1164 41.1661C1164.03 38.071 1161.54 35.5375 1158.44 35.5125H1158.37C1155.28 35.4876 1152.76 37.9711 1152.73 41.0537Z" fill="#1D1D1B"/>
<path d="M1098.76 40.4859L1098.75 41.8961L1099.06 41.9897L1110.01 42.0334L1110.03 40.5982C1110.05 37.5031 1107.56 34.9696 1104.47 34.9446H1104.4C1101.31 34.9197 1098.79 37.397 1098.76 40.4859Z" fill="#1D1D1B"/>
<path d="M1156.95 32.1302C1156.95 33.2535 1164.03 34.2456 1166.42 34.2581C1167.45 34.2644 1168.1 34.1084 1168.37 33.8275C1168.71 33.4594 1168.48 32.8728 1168.48 32.2363C1168.48 31.6061 1168.71 31.007 1168.38 30.6326C1168.12 30.3393 1167.48 30.202 1166.44 30.202C1164.05 30.1896 1156.96 31.007 1156.95 32.1302Z" fill="#BF2A23"/>
<path d="M1168.37 30.6264C1169.18 30.589 1169.16 33.8276 1168.35 33.8276C1168.28 33.2285 1168.28 31.2255 1168.37 30.6264Z" fill="#FFE697"/>
<path d="M1099.27 35.1256C1099.27 35.7746 1098.33 36.3112 1096.91 36.2925C1096.29 36.2863 1095.66 36.1864 1095.51 36.0179C1095.31 35.7995 1095.34 34.383 1095.54 34.1646C1095.69 33.9961 1096.32 33.9275 1096.95 33.9337C1098.36 33.9587 1099.28 34.4766 1099.27 35.1256Z" fill="#634E42"/>
<path d="M1147.94 27.9743L1153.77 28.0243C1154.63 28.0305 1155.34 27.3316 1155.35 26.4705L1155.4 19.9371C1155.41 19.0759 1154.71 18.3646 1153.85 18.3583L1148.02 18.3084C1147.16 18.3022 1146.45 19.0011 1146.44 19.8622L1146.39 26.3956C1146.38 27.2567 1147.08 27.9681 1147.94 27.9743ZM1153.84 18.9262C1154.39 18.9324 1154.84 19.3817 1154.83 19.9308L1154.77 26.4642C1154.77 27.0134 1154.32 27.4564 1153.77 27.4502L1147.94 27.4002C1147.39 27.394 1146.95 26.9447 1146.96 26.3956L1147.01 19.8622C1147.02 19.3131 1147.47 18.87 1148.02 18.8762L1153.84 18.9262Z" fill="#FF9E00"/>
<path d="M1146.12 38.6574C1146.12 38.9882 1146.25 39.3002 1146.48 39.5373C1146.71 39.7682 1147.03 39.8992 1147.36 39.8992L1149.14 39.893C1149.83 39.893 1150.41 39.3688 1150.47 38.6824C1150.79 35.3876 1152.96 34.1583 1154.63 33.734C1155.13 33.6092 1155.47 33.1599 1155.47 32.6482L1155.45 19.8373C1155.45 18.9512 1154.73 18.2273 1153.84 18.2273L1147.81 18.2335C1146.87 18.2335 1146.1 19.0011 1146.1 19.9496L1146.12 38.6574Z" fill="#BF2A23"/>
<path d="M1147.94 27.6436L1153.77 27.6374C1154.47 27.6374 1155.05 27.0633 1155.05 26.3519L1155.04 19.8185C1155.04 19.1134 1154.46 18.5393 1153.75 18.5393L1147.92 18.5456C1147.22 18.5456 1146.64 19.1196 1146.64 19.8248L1146.66 26.3582C1146.66 27.0695 1147.24 27.6436 1147.94 27.6436Z" fill="#76D9E3"/>
<path d="M1099.45 27.6313L1105.28 27.6251C1105.98 27.6251 1106.56 27.051 1106.56 26.3396L1106.54 19.8062C1106.54 19.1011 1105.97 18.527 1105.26 18.527L1099.43 18.5332C1098.73 18.5332 1098.15 19.1073 1098.15 19.8187L1098.16 26.3521C1098.16 27.0635 1098.74 27.6375 1099.45 27.6313Z" fill="#76D9E3"/>
<path d="M1099.45 27.9183L1105.28 27.912C1106.14 27.912 1106.84 27.2069 1106.84 26.3395L1106.83 19.8061C1106.83 18.945 1106.13 18.2399 1105.26 18.2399L1099.43 18.2461C1098.57 18.2461 1097.86 18.9512 1097.86 19.8186L1097.88 26.352C1097.88 27.2194 1098.58 27.9245 1099.45 27.9183ZM1105.26 18.8202C1105.81 18.8202 1106.25 19.2632 1106.25 19.8124L1106.26 26.3458C1106.26 26.8949 1105.82 27.3379 1105.27 27.3379L1099.44 27.3442C1098.89 27.3442 1098.45 26.9011 1098.45 26.352L1098.44 19.8186C1098.44 19.2695 1098.88 18.8264 1099.43 18.8264L1105.26 18.8202Z" fill="#BF2A23"/>
<path d="M1109.06 27.6187L1114.89 27.6125C1115.59 27.6125 1116.17 27.0384 1116.17 26.327L1116.15 19.7936C1116.15 19.0885 1115.58 18.5144 1114.87 18.5144L1109.04 18.5206C1108.34 18.5206 1107.76 19.0947 1107.76 19.8061L1107.77 26.3395C1107.78 27.0509 1108.35 27.6187 1109.06 27.6187Z" fill="#76D9E3"/>
<path d="M1109.06 27.9057L1114.89 27.8995C1115.75 27.8995 1116.45 27.1943 1116.45 26.327L1116.44 19.7936C1116.44 18.9324 1115.74 18.2273 1114.87 18.2273L1109.04 18.2335C1108.18 18.2335 1107.47 18.9387 1107.47 19.806L1107.49 26.3394C1107.49 27.2068 1108.19 27.9057 1109.06 27.9057ZM1114.87 18.8014C1115.42 18.8014 1115.87 19.2444 1115.87 19.7936L1115.88 26.327C1115.88 26.8761 1115.44 27.3191 1114.89 27.3191L1109.06 27.3254C1108.51 27.3254 1108.07 26.8823 1108.07 26.3332L1108.05 19.7998C1108.05 19.2507 1108.5 18.8076 1109.05 18.8076L1114.87 18.8014Z" fill="#BF2A23"/>
<path d="M1118.66 27.6873L1124.48 27.6811C1125.19 27.6811 1125.76 27.107 1125.76 26.3956L1125.75 19.8622C1125.75 19.1571 1125.18 18.583 1124.47 18.583L1118.64 18.5893C1117.93 18.5893 1117.36 19.1633 1117.36 19.8747L1117.37 26.4081C1117.37 27.1132 1117.95 27.6873 1118.66 27.6873Z" fill="#76D9E3"/>
<path d="M1118.66 27.9744L1124.48 27.9682C1125.35 27.9682 1126.05 27.2631 1126.05 26.3957L1126.04 19.8623C1126.04 19.0012 1125.33 18.296 1124.47 18.296L1118.64 18.3023C1117.78 18.3023 1117.07 19.0074 1117.07 19.8748L1117.08 26.4082C1117.08 27.2755 1117.79 27.9744 1118.66 27.9744ZM1124.47 18.8701C1125.02 18.8701 1125.46 19.3132 1125.46 19.8623L1125.47 26.3957C1125.47 26.9448 1125.03 27.3879 1124.48 27.3879L1118.65 27.3941C1118.1 27.3941 1117.66 26.9511 1117.66 26.4019L1117.65 19.8685C1117.65 19.3194 1118.09 18.8763 1118.64 18.8763L1124.47 18.8701Z" fill="#BF2A23"/>
<path d="M1128.27 27.675L1134.09 27.6688C1134.8 27.6688 1135.37 27.0947 1135.37 26.3833L1135.36 19.8499C1135.36 19.1448 1134.79 18.5707 1134.08 18.5707L1128.25 18.5769C1127.54 18.5769 1126.97 19.151 1126.97 19.8624L1126.98 26.3958C1126.98 27.1009 1127.55 27.675 1128.27 27.675Z" fill="#76D9E3"/>
<path d="M1128.27 27.962L1134.09 27.9557C1134.96 27.9557 1135.66 27.2506 1135.66 26.3832L1135.65 19.8498C1135.65 18.9887 1134.94 18.2836 1134.08 18.2836L1128.25 18.2898C1127.39 18.2898 1126.68 18.9949 1126.68 19.8623L1126.69 26.3957C1126.69 27.2569 1127.4 27.962 1128.27 27.962ZM1134.08 18.8576C1134.62 18.8576 1135.07 19.3007 1135.07 19.8498L1135.08 26.3832C1135.08 26.9324 1134.64 27.3754 1134.09 27.3754L1128.26 27.3816C1127.71 27.3816 1127.27 26.9386 1127.27 26.3895L1127.26 19.8561C1127.26 19.3069 1127.7 18.8639 1128.25 18.8639L1134.08 18.8576Z" fill="#BF2A23"/>
<path d="M1137.88 27.6561L1143.7 27.6498C1144.41 27.6498 1144.98 27.0757 1144.98 26.3644L1144.97 19.831C1144.97 19.1258 1144.4 18.5518 1143.69 18.5518L1137.86 18.558C1137.15 18.558 1136.58 19.1321 1136.58 19.8435L1136.59 26.3768C1136.59 27.0882 1137.16 27.6623 1137.88 27.6561Z" fill="#76D9E3"/>
<path d="M1137.88 27.9432L1143.7 27.9369C1144.57 27.9369 1145.27 27.2318 1145.27 26.3644L1145.26 19.831C1145.26 18.9699 1144.55 18.2648 1143.69 18.2648L1137.86 18.271C1137 18.271 1136.29 18.9762 1136.29 19.8435L1136.3 26.3769C1136.3 27.2443 1137.01 27.9494 1137.88 27.9432ZM1143.69 18.8451C1144.23 18.8451 1144.68 19.2882 1144.68 19.8373L1144.69 26.3707C1144.69 26.9198 1144.25 27.3629 1143.7 27.3629L1137.87 27.3691C1137.32 27.3691 1136.88 26.926 1136.88 26.3769L1136.87 19.8435C1136.87 19.2944 1137.31 18.8513 1137.86 18.8513L1143.69 18.8451Z" fill="#BF2A23"/>
<path d="M1147.12 29.6841C1147.12 29.8401 1147.85 29.9587 1148.75 29.9587C1149.65 29.9587 1150.38 29.8339 1150.38 29.6779C1150.38 29.5219 1149.65 29.4033 1148.75 29.4033C1147.85 29.4033 1147.12 29.5344 1147.12 29.6841Z" fill="#EDEDED"/>
<path d="M1095.66 34.0959C1095.15 34.0647 1095.13 36.0741 1095.63 36.0803C1095.68 35.7121 1095.7 34.4703 1095.66 34.0959Z" fill="#FFE697"/>
<path d="M1165.78 35.8495C1165.78 36.0492 1165.94 36.2177 1166.14 36.2177L1168.05 36.2364L1168.05 35.5L1166.14 35.4813C1165.94 35.4813 1165.78 35.6498 1165.78 35.8495Z" fill="#634E42"/>
<path d="M1165.76 36.9228C1165.76 37.1225 1165.93 37.2909 1166.12 37.2909L1168.04 37.3097V36.5796L1166.12 36.5608C1165.93 36.5546 1165.76 36.7169 1165.76 36.9228Z" fill="#634E42"/>
<path d="M1165.76 37.9898C1165.76 38.1958 1165.92 38.358 1166.12 38.358L1168.04 38.3767L1168.05 37.6466L1166.13 37.6279C1165.93 37.6279 1165.76 37.7902 1165.76 37.9898Z" fill="#634E42"/>
<path d="M1154.23 27.6249C1154.23 27.7061 1154.26 27.7872 1154.32 27.8496C1154.37 27.912 1154.46 27.9432 1154.54 27.9432L1155.57 27.9494C1155.74 27.9494 1155.89 27.8059 1155.89 27.6312L1155.92 23.6251C1155.92 23.5003 1155.87 23.3754 1155.79 23.2818C1155.7 23.1882 1155.57 23.1383 1155.45 23.1383L1154.71 23.1321C1154.47 23.1321 1154.26 23.3255 1154.26 23.5751L1154.23 27.6249Z" fill="#575756"/>
<path d="M1157.16 29.7654C1157.2 29.7654 1157.25 29.7529 1157.29 29.7342C1157.43 29.6655 1157.49 29.4908 1157.41 29.3473L1155.54 25.6344C1155.47 25.4909 1155.29 25.4347 1155.15 25.5096C1155 25.5783 1154.95 25.753 1155.02 25.8965L1156.9 29.6094C1156.96 29.703 1157.06 29.7592 1157.16 29.7654Z" fill="#3C3C3B"/>
<path d="M1163.8 42.3392L1164.71 42.3142L1166.91 41.6465C1167.34 41.5092 1167.67 41.2097 1167.86 40.829C1167.92 40.7167 1167.95 40.6044 1167.98 40.4858H1164.47V40.698C1164.45 41.2159 1164.38 41.7214 1164.24 42.2019L1163.9 42.3017L1163.8 42.3392Z" fill="#634E42"/>
<path d="M1110.03 40.4797H1152.05C1152.05 40.7668 1152.07 41.0538 1152.11 41.3222C1152.15 41.6841 1152.24 42.021 1152.34 42.3518L1147.29 42.3143L1146.25 42.3081L1110.01 42.0273L1110.03 40.4797Z" fill="#634E42"/>
<path d="M1096.62 40.4797C1096.85 41.0289 1097.32 41.4532 1097.91 41.6404L1098.75 41.89L1098.94 41.9524L1098.83 41.241L1098.77 40.4797H1096.62Z" fill="#634E42"/>
<path d="M1162.19 41.3845C1162.17 43.5498 1160.4 45.2908 1158.24 45.2721C1156.07 45.2533 1154.34 43.4811 1154.36 41.3221C1154.37 39.1567 1156.14 37.422 1158.31 37.4407C1160.47 37.4532 1162.2 39.2191 1162.19 41.3845Z" fill="#DADADA"/>
<path d="M1160.31 41.3656C1160.3 42.4888 1159.38 43.3998 1158.26 43.3873C1157.13 43.3749 1156.23 42.4576 1156.23 41.3281C1156.25 40.1987 1157.16 39.3001 1158.29 39.3063C1159.41 39.325 1160.32 40.2423 1160.31 41.3656Z" fill="#F6F6F6"/>
<path d="M1158.31 36.2363C1161.14 36.2612 1163.41 38.5701 1163.39 41.3969C1163.36 44.2236 1161.05 46.495 1158.22 46.4701C1155.4 46.4451 1153.13 44.1363 1153.15 41.3095C1153.18 38.4827 1155.49 36.2113 1158.31 36.2363ZM1158.24 44.8289C1160.15 44.8476 1161.73 43.3001 1161.74 41.3844C1161.76 39.4624 1160.22 37.8962 1158.3 37.8774C1156.38 37.8587 1154.81 39.4063 1154.79 41.322C1154.77 43.2439 1156.32 44.8102 1158.24 44.8289Z" fill="#3C3C3B"/>
<path d="M1108.31 41.3845C1108.29 43.5498 1106.53 45.2908 1104.36 45.2721C1102.19 45.2533 1100.46 43.4811 1100.48 41.3221C1100.5 39.1567 1102.26 37.422 1104.43 37.4407C1106.59 37.4532 1108.33 39.2191 1108.31 41.3845Z" fill="#DADADA"/>
<path d="M1106.43 41.3656C1106.42 42.4888 1105.5 43.3998 1104.38 43.3873C1103.26 43.3749 1102.35 42.4576 1102.36 41.3281C1102.37 40.1987 1103.29 39.3001 1104.41 39.3063C1105.54 39.325 1106.44 40.2423 1106.43 41.3656Z" fill="#F6F6F6"/>
<path d="M1104.44 36.2363C1107.26 36.2612 1109.53 38.5701 1109.51 41.3969C1109.48 44.2236 1107.17 46.495 1104.35 46.4701C1101.52 46.4451 1099.25 44.1363 1099.27 41.3095C1099.3 38.4827 1101.61 36.2113 1104.44 36.2363ZM1104.36 44.8289C1106.28 44.8476 1107.85 43.3001 1107.87 41.3844C1107.89 39.4624 1106.34 37.8962 1104.42 37.8774C1102.51 37.8587 1100.93 39.4063 1100.92 41.322C1100.9 43.2439 1102.44 44.8102 1104.36 44.8289Z" fill="#3C3C3B"/>
<path d="M1097.99 39.7122C1097.98 40.2613 1097.53 40.7043 1096.99 40.6981L1095.99 40.6856C1095.44 40.6794 1095 40.2301 1095 39.6872C1095.01 39.1381 1095.46 38.695 1096 38.7012L1097 38.7137C1097.55 38.7137 1098 39.163 1097.99 39.7122Z" fill="#EDEDED"/>
<path d="M1165.61 40.0552C1165.6 40.6043 1166.04 41.0536 1166.59 41.0536L1168.24 41.0661C1168.79 41.0723 1169.24 40.6293 1169.24 40.0802C1169.24 39.531 1168.8 39.0818 1168.25 39.0818L1166.61 39.0693C1166.06 39.063 1165.61 39.5061 1165.61 40.0552Z" fill="#EDEDED"/>
<path d="M1098.19 15.5255C1098.19 16.4178 1098.91 17.1354 1099.8 17.1354H1152.61C1153.5 17.1354 1154.22 16.4116 1154.22 15.5255C1154.22 14.6331 1153.49 13.9155 1152.61 13.9155H1099.8C1098.91 13.9155 1098.19 14.6394 1098.19 15.5255Z" fill="white"/>
</g>
<g opacity="0.1">
<path d="M619.454 2.96405C619.454 1.67235 620.259 0.468013 621.501 0.112327C621.769 0.0374456 622.05 0 622.337 0H684.339C686.86 0.0124802 688.894 2.05925 688.894 4.57401V15.8249C688.894 16.5925 688.27 17.2165 687.502 17.2165L681.119 18.3709L679.989 18.3646C679.496 18.3584 679.091 18.7515 679.091 19.257L679.028 26.7451C679.022 27.4877 679.615 28.0805 680.358 28.093L682.211 28.1117C682.304 28.2677 688.364 30.0212 688.364 30.0212C689.512 30.1585 690.435 31.0071 690.704 32.1241C690.935 33.0913 691.053 34.1459 691.047 34.7325V36.5858L691.041 37.3096V38.3829L691.034 40.1614C691.034 40.2737 691.028 40.386 690.997 40.4859C690.972 40.6044 690.935 40.7167 690.878 40.8291C690.691 41.2097 690.36 41.5092 689.93 41.6465L687.733 42.3142L683.659 42.4265L670.311 42.3267L669.269 42.3204L633.033 42.0396L622.075 42.0022L621.956 41.9648L621.763 41.9024L620.927 41.6528C620.334 41.4655 619.872 41.0412 619.635 40.4921C619.541 40.2862 619.485 40.074 619.467 39.8494V39.6746L619.504 30.302C619.492 29.7029 619.46 7.50062 619.454 2.96405Z" fill="#E6332A"/>
<path d="M622.418 12.3929L628.247 12.3991C628.952 12.3991 629.526 11.825 629.526 11.1199L629.532 4.58649C629.532 3.88135 628.958 3.30727 628.253 3.30727L622.424 3.30103C621.719 3.30103 621.145 3.87511 621.145 4.58024L621.139 11.1136C621.139 11.8188 621.713 12.3929 622.418 12.3929Z" fill="#76D9E3"/>
<path d="M622.418 12.68L628.246 12.6862C629.108 12.6862 629.813 11.9873 629.819 11.12L629.825 4.58656C629.825 3.72542 629.126 3.0203 628.259 3.01406L622.431 3.00781C621.57 3.00781 620.864 3.70671 620.858 4.57409L620.852 11.1075C620.852 11.9749 621.557 12.68 622.418 12.68ZM628.259 3.59438C628.808 3.59438 629.251 4.04367 629.251 4.58656L629.245 11.12C629.245 11.6691 628.796 12.1121 628.253 12.1121L622.424 12.1059C621.875 12.1059 621.432 11.6566 621.432 11.1137L621.438 4.58031C621.438 4.03118 621.888 3.58814 622.431 3.58814L628.259 3.59438Z" fill="#BF2A23"/>
<path d="M632.034 12.4053L637.862 12.4116C638.568 12.4116 639.142 11.8375 639.142 11.1323L639.148 4.59894C639.148 3.89381 638.574 3.31972 637.869 3.31972L632.04 3.31348C631.335 3.31348 630.761 3.88758 630.755 4.59271L630.749 11.1261C630.749 11.8312 631.323 12.4053 632.034 12.4053Z" fill="#76D9E3"/>
<path d="M632.028 12.6924L637.856 12.6987C638.717 12.6987 639.422 11.9998 639.422 11.1324L639.429 4.59901C639.429 3.73788 638.73 3.03275 637.862 3.02651L632.034 3.02026C631.173 3.02026 630.468 3.71916 630.462 4.58654L630.455 11.1199C630.462 11.9873 631.167 12.6924 632.028 12.6924ZM637.869 3.60684C638.418 3.60684 638.861 4.05612 638.861 4.59901L638.855 11.1324C638.855 11.6815 638.405 12.1246 637.862 12.1246L632.034 12.1184C631.485 12.1184 631.042 11.6691 631.042 11.1262L631.048 4.59278C631.048 4.04365 631.498 3.60059 632.04 3.60059L637.869 3.60684Z" fill="#BF2A23"/>
<path d="M641.625 12.499L647.453 12.5052C648.158 12.5052 648.733 11.9311 648.733 11.226L648.739 4.69257C648.739 3.98743 648.165 3.41335 647.46 3.41335L641.631 3.4071C640.926 3.4071 640.352 3.98121 640.352 4.68634L640.346 11.2197C640.346 11.9249 640.92 12.499 641.625 12.499Z" fill="#76D9E3"/>
<path d="M641.625 12.786L647.453 12.7923C648.314 12.7923 649.02 12.0934 649.026 11.226L649.032 4.69887C649.032 3.83773 648.333 3.1326 647.466 3.12636L641.637 3.12012C640.776 3.12012 640.071 3.81902 640.071 4.68639L640.065 11.2198C640.059 12.0809 640.764 12.786 641.625 12.786ZM647.466 3.70044C648.015 3.70044 648.458 4.14973 648.458 4.69262L648.452 11.226C648.452 11.7751 648.002 12.2182 647.459 12.2182L641.631 12.212C641.082 12.212 640.639 11.7627 640.639 11.2198L640.645 4.68639C640.645 4.13726 641.095 3.69422 641.637 3.69422L647.466 3.70044Z" fill="#BF2A23"/>
<path d="M651.235 12.5115L657.063 12.5178C657.768 12.5178 658.342 11.9437 658.349 11.2385L658.355 4.70514C658.355 4.00001 657.781 3.4259 657.076 3.4259L651.247 3.41968C650.542 3.41968 649.968 3.99376 649.968 4.69889L649.962 11.2323C649.956 11.9374 650.53 12.5115 651.235 12.5115Z" fill="#76D9E3"/>
<path d="M651.235 12.7985L657.063 12.8047C657.924 12.8047 658.63 12.1059 658.63 11.2385L658.636 4.70509C658.636 3.84395 657.937 3.13881 657.069 3.13257L651.241 3.12634C650.38 3.12634 649.675 3.82522 649.669 4.6926L649.662 11.226C649.669 12.0934 650.374 12.7985 651.235 12.7985ZM657.076 3.71291C657.625 3.71291 658.068 4.1622 658.068 4.70509L658.062 11.2385C658.062 11.7876 657.612 12.2307 657.069 12.2307L651.241 12.2244C650.692 12.2244 650.249 11.7751 650.249 11.2322L650.255 4.69884C650.255 4.14971 650.705 3.70667 651.247 3.70667L657.076 3.71291Z" fill="#BF2A23"/>
<path d="M660.845 12.5237L666.673 12.53C667.378 12.53 667.952 11.9559 667.952 11.2507L667.958 4.71735C667.958 4.01221 667.384 3.43813 666.679 3.43813L660.851 3.43188C660.146 3.43188 659.572 4.00599 659.572 4.71112L659.566 11.2445C659.566 11.9496 660.14 12.5237 660.845 12.5237Z" fill="#76D9E3"/>
<path d="M660.845 12.811L666.673 12.8172C667.534 12.8172 668.239 12.1183 668.239 11.2509L668.245 4.71754C668.245 3.85641 667.546 3.15128 666.679 3.14504L660.851 3.13879C659.99 3.13879 659.285 3.83769 659.278 4.70507L659.272 11.2385C659.278 12.1058 659.983 12.811 660.845 12.811ZM666.685 3.72537C667.234 3.72537 667.678 4.17465 667.678 4.71754L667.671 11.2509C667.671 11.8001 667.222 12.2431 666.679 12.2431L660.851 12.2369C660.302 12.2369 659.859 11.7876 659.859 11.2447L659.865 4.71131C659.865 4.16218 660.314 3.71912 660.857 3.71912L666.685 3.72537Z" fill="#BF2A23"/>
<path d="M670.467 12.4615L676.295 12.4677C677 12.4677 677.575 11.8936 677.575 11.1885L677.581 4.65509C677.581 3.94996 677.007 3.37587 676.302 3.36963L670.473 3.3634C669.768 3.3634 669.194 3.93749 669.194 4.64262L669.188 11.176C669.188 11.8812 669.762 12.4552 670.467 12.4615Z" fill="#76D9E3"/>
<path d="M670.467 12.7424L676.295 12.7486C677.156 12.7486 677.861 12.0497 677.861 11.1823L677.868 4.64894C677.868 3.7878 677.169 3.08266 676.301 3.07642L670.473 3.07019C669.612 3.07019 668.907 3.76907 668.901 4.63645L668.894 11.1698C668.901 12.0372 669.606 12.7424 670.467 12.7424ZM676.308 3.65676C676.857 3.65676 677.3 4.10605 677.3 4.64894L677.294 11.1823C677.294 11.7315 676.844 12.1745 676.301 12.1745L670.473 12.1683C669.924 12.1683 669.481 11.719 669.481 11.1761L669.487 4.64269C669.487 4.09356 669.936 3.65052 670.479 3.65052L676.308 3.65676Z" fill="#BF2A23"/>
<path d="M680.089 12.3928L685.917 12.399C686.623 12.399 687.197 11.8249 687.197 11.1198L687.203 4.58636C687.203 3.88123 686.629 3.30715 685.924 3.30715L680.095 3.3009C679.39 3.3009 678.816 3.87499 678.816 4.58012L678.81 11.1135C678.81 11.8124 679.384 12.3865 680.089 12.3928Z" fill="#76D9E3"/>
<path d="M680.089 12.6801L685.917 12.6864C686.779 12.6864 687.484 11.9875 687.484 11.1201L687.49 4.58668C687.49 3.72555 686.791 3.02042 685.924 3.01418L680.095 3.00793C679.234 3.00793 678.529 3.70683 678.523 4.57421L678.517 11.1076C678.523 11.9687 679.228 12.6739 680.089 12.6801ZM685.93 3.58826C686.479 3.58826 686.922 4.03755 686.922 4.58044L686.916 11.1138C686.916 11.663 686.467 12.106 685.924 12.106L680.095 12.0998C679.546 12.0998 679.103 11.6505 679.103 11.1076L679.11 4.57421C679.11 4.02508 679.559 3.58201 680.102 3.58201L685.93 3.58826Z" fill="#BF2A23"/>
<path d="M619.036 29.4659C618.175 29.4097 618.144 32.8418 618.992 32.8543C619.08 32.224 619.105 30.1086 619.036 29.4659Z" fill="#FF4515"/>
<path d="M619.025 29.4766L619.568 29.4813L619.539 32.8697L618.996 32.865L619.025 29.4766Z" fill="#B2B2B2"/>
<path d="M621.189 39.8618C621.189 40.1676 621.208 40.4671 621.245 40.7604C621.295 41.1161 621.37 41.4593 621.476 41.7963H621.769L632.671 41.8399L633.039 41.7276L633.37 41.6278C633.507 41.1473 633.588 40.6418 633.6 40.1239C633.607 40.0677 633.607 40.0178 633.607 39.9617C633.638 36.5296 630.88 33.7278 627.441 33.6966C624.022 33.6716 621.22 36.4298 621.189 39.8618Z" fill="#634E42"/>
<path d="M675.053 40.4297V40.4858C675.053 40.7729 675.072 41.0599 675.11 41.3283C675.153 41.6902 675.241 42.0272 675.341 42.3579V42.3641H675.64L677.275 42.3704L684.333 42.3953L686.797 42.3329L686.91 42.2955L687.247 42.1956C687.384 41.7151 687.459 41.2097 687.478 40.6918V40.4796C687.484 37.0725 684.732 34.2894 681.319 34.2645C677.886 34.2395 675.085 36.9914 675.053 40.4297Z" fill="#634E42"/>
<path d="M680.351 27.7685C679.79 27.7623 679.334 27.3005 679.34 26.7389C679.334 27.3005 679.79 27.7623 680.351 27.7685Z" fill="#F39200"/>
<path d="M680.351 27.7684C679.79 27.7621 679.334 27.3004 679.34 26.7388L679.403 19.2444C679.403 18.9199 679.671 18.6641 679.989 18.6641L680.9 18.6703C681.131 21.7404 681.431 24.3363 681.656 27.6311L680.351 27.7684Z" fill="#76D9E3"/>
<path d="M679.883 18.2897L681.094 18.3022C681.212 18.4894 681.144 18.764 680.988 18.8888L679.877 18.8763C679.702 18.8763 679.559 19.0074 679.559 19.1758L679.496 26.8075C679.49 27.2193 679.839 27.5563 680.276 27.5626L681.668 27.5875C681.662 27.5563 682.073 27.731 682.267 28.1928L680.27 28.1491C679.502 28.1429 678.878 27.5376 678.885 26.8075L678.947 19.1758C678.947 18.6829 679.371 18.2835 679.883 18.2897Z" fill="#BF2A23"/>
<path d="M675.734 41.0537L675.721 42.3642L686.991 42.2955L687.003 41.1661C687.028 38.071 684.538 35.5375 681.443 35.5125H681.375C678.28 35.4876 675.759 37.9711 675.734 41.0537Z" fill="#1D1D1B"/>
<path d="M621.763 40.4859L621.75 41.8961L622.062 41.9897L633.014 42.0334L633.026 40.5982C633.051 37.5031 630.561 34.9696 627.466 34.9446H627.398C624.315 34.9197 621.788 37.397 621.763 40.4859Z" fill="#1D1D1B"/>
<path d="M679.952 32.1302C679.946 33.2535 687.034 34.2456 689.418 34.2581C690.448 34.2644 691.103 34.1084 691.365 33.8275C691.715 33.4594 691.477 32.8728 691.484 32.2363C691.484 31.6061 691.715 31.007 691.378 30.6326C691.122 30.3393 690.479 30.202 689.437 30.202C687.053 30.1896 679.958 31.007 679.952 32.1302Z" fill="#BF2A23"/>
<path d="M691.365 30.6264C692.182 30.589 692.158 33.8276 691.353 33.8276C691.278 33.2285 691.284 31.2255 691.365 30.6264Z" fill="#FFE697"/>
<path d="M622.275 35.1256C622.268 35.7746 621.332 36.3112 619.91 36.2925C619.292 36.2863 618.662 36.1864 618.512 36.0179C618.306 35.7995 618.337 34.383 618.537 34.1646C618.693 33.9961 619.323 33.9275 619.947 33.9337C621.364 33.9587 622.281 34.4766 622.275 35.1256Z" fill="#634E42"/>
<path d="M670.941 27.9743L676.77 28.0243C677.631 28.0305 678.342 27.3316 678.348 26.4705L678.404 19.9371C678.411 19.0759 677.712 18.3646 676.851 18.3583L671.022 18.3084C670.161 18.3022 669.45 19.0011 669.444 19.8622L669.388 26.3956C669.381 27.2567 670.08 27.9681 670.941 27.9743ZM676.844 18.9262C677.394 18.9324 677.837 19.3817 677.83 19.9308L677.774 26.4642C677.768 27.0134 677.319 27.4564 676.77 27.4502L670.941 27.4002C670.392 27.394 669.949 26.9447 669.955 26.3956L670.012 19.8622C670.018 19.3131 670.467 18.87 671.016 18.8762L676.844 18.9262Z" fill="#FF9E00"/>
<path d="M669.119 38.6574C669.119 38.9882 669.25 39.3002 669.481 39.5373C669.712 39.7682 670.03 39.8992 670.361 39.8992L672.139 39.893C672.826 39.893 673.406 39.3688 673.469 38.6824C673.787 35.3876 675.958 34.1583 677.631 33.734C678.13 33.6092 678.473 33.1599 678.473 32.6482L678.454 19.8373C678.454 18.9512 677.731 18.2273 676.844 18.2273L670.81 18.2335C669.868 18.2335 669.101 19.0011 669.101 19.9496L669.119 38.6574Z" fill="#BF2A23"/>
<path d="M670.941 27.6436L676.77 27.6374C677.475 27.6374 678.049 27.0633 678.049 26.3519L678.036 19.8185C678.036 19.1134 677.462 18.5393 676.751 18.5393L670.923 18.5456C670.217 18.5456 669.643 19.1196 669.643 19.8248L669.656 26.3582C669.662 27.0695 670.236 27.6436 670.941 27.6436Z" fill="#76D9E3"/>
<path d="M622.449 27.6313L628.278 27.6251C628.983 27.6251 629.557 27.051 629.557 26.3396L629.544 19.8062C629.544 19.1011 628.97 18.527 628.259 18.527L622.431 18.5332C621.726 18.5332 621.151 19.1073 621.151 19.8187L621.164 26.3521C621.164 27.0635 621.738 27.6375 622.449 27.6313Z" fill="#76D9E3"/>
<path d="M622.449 27.9183L628.278 27.912C629.139 27.912 629.844 27.2069 629.844 26.3395L629.832 19.8061C629.832 18.945 629.126 18.2399 628.259 18.2399L622.431 18.2461C621.57 18.2461 620.864 18.9512 620.864 19.8186L620.877 26.352C620.883 27.2194 621.582 27.9245 622.449 27.9183ZM628.259 18.8202C628.808 18.8202 629.251 19.2632 629.251 19.8124L629.264 26.3458C629.264 26.8949 628.821 27.3379 628.271 27.3379L622.443 27.3442C621.894 27.3442 621.451 26.9011 621.451 26.352L621.439 19.8186C621.439 19.2695 621.882 18.8264 622.431 18.8264L628.259 18.8202Z" fill="#BF2A23"/>
<path d="M632.059 27.6187L637.887 27.6125C638.592 27.6125 639.167 27.0384 639.167 26.327L639.154 19.7936C639.154 19.0885 638.58 18.5144 637.869 18.5144L632.04 18.5206C631.335 18.5206 630.761 19.0947 630.761 19.8061L630.774 26.3395C630.78 27.0509 631.354 27.6187 632.059 27.6187Z" fill="#76D9E3"/>
<path d="M632.059 27.9057L637.887 27.8995C638.748 27.8995 639.454 27.1943 639.454 26.327L639.441 19.7936C639.441 18.9324 638.736 18.2273 637.869 18.2273L632.04 18.2335C631.179 18.2335 630.474 18.9387 630.474 19.806L630.487 26.3394C630.493 27.2068 631.192 27.9057 632.059 27.9057ZM637.875 18.8014C638.424 18.8014 638.867 19.2444 638.867 19.7936L638.88 26.327C638.88 26.8761 638.436 27.3191 637.887 27.3191L632.059 27.3254C631.51 27.3254 631.067 26.8823 631.067 26.3332L631.054 19.7998C631.054 19.2507 631.497 18.8076 632.047 18.8076L637.875 18.8014Z" fill="#BF2A23"/>
<path d="M641.656 27.6873L647.485 27.6811C648.19 27.6811 648.764 27.107 648.764 26.3956L648.751 19.8622C648.751 19.1571 648.177 18.583 647.466 18.583L641.638 18.5893C640.933 18.5893 640.358 19.1633 640.358 19.8747L640.371 26.4081C640.371 27.1132 640.945 27.6873 641.656 27.6873Z" fill="#76D9E3"/>
<path d="M641.656 27.9744L647.485 27.9682C648.346 27.9682 649.051 27.2631 649.051 26.3957L649.039 19.8623C649.039 19.0012 648.333 18.296 647.466 18.296L641.638 18.3023C640.777 18.3023 640.072 19.0074 640.072 19.8748L640.084 26.4082C640.084 27.2755 640.789 27.9744 641.656 27.9744ZM647.466 18.8701C648.015 18.8701 648.458 19.3132 648.458 19.8623L648.471 26.3957C648.471 26.9448 648.028 27.3879 647.479 27.3879L641.65 27.3941C641.101 27.3941 640.658 26.9511 640.658 26.4019L640.646 19.8685C640.646 19.3194 641.089 18.8763 641.638 18.8763L647.466 18.8701Z" fill="#BF2A23"/>
<path d="M651.266 27.675L657.095 27.6688C657.8 27.6688 658.374 27.0947 658.374 26.3833L658.361 19.8499C658.361 19.1448 657.787 18.5707 657.076 18.5707L651.248 18.5769C650.542 18.5769 649.968 19.151 649.968 19.8624L649.981 26.3958C649.981 27.1009 650.555 27.675 651.266 27.675Z" fill="#76D9E3"/>
<path d="M651.266 27.962L657.094 27.9557C657.956 27.9557 658.661 27.2506 658.661 26.3832L658.648 19.8498C658.648 18.9887 657.943 18.2836 657.076 18.2836L651.247 18.2898C650.386 18.2898 649.681 18.9949 649.681 19.8623L649.694 26.3957C649.694 27.2569 650.399 27.962 651.266 27.962ZM657.076 18.8576C657.625 18.8576 658.068 19.3007 658.068 19.8498L658.08 26.3832C658.08 26.9324 657.637 27.3754 657.088 27.3754L651.26 27.3816C650.711 27.3816 650.268 26.9386 650.268 26.3895L650.255 19.8561C650.255 19.3069 650.698 18.8639 651.247 18.8639L657.076 18.8576Z" fill="#BF2A23"/>
<path d="M660.876 27.6561L666.704 27.6498C667.409 27.6498 667.983 27.0757 667.983 26.3644L667.971 19.831C667.971 19.1258 667.397 18.5518 666.685 18.5518L660.857 18.558C660.152 18.558 659.578 19.1321 659.578 19.8435L659.59 26.3768C659.59 27.0882 660.165 27.6623 660.876 27.6561Z" fill="#76D9E3"/>
<path d="M660.876 27.9432L666.704 27.9369C667.565 27.9369 668.271 27.2318 668.271 26.3644L668.258 19.831C668.258 18.9699 667.553 18.2648 666.686 18.2648L660.857 18.271C659.996 18.271 659.291 18.9762 659.291 19.8435L659.303 26.3769C659.303 27.2443 660.009 27.9494 660.876 27.9432ZM666.686 18.8451C667.235 18.8451 667.678 19.2882 667.678 19.8373L667.69 26.3707C667.69 26.9198 667.247 27.3629 666.698 27.3629L660.87 27.3691C660.321 27.3691 659.878 26.926 659.878 26.3769L659.865 19.8435C659.865 19.2944 660.308 18.8513 660.857 18.8513L666.686 18.8451Z" fill="#BF2A23"/>
<path d="M670.124 29.6841C670.124 29.8401 670.854 29.9587 671.752 29.9587C672.651 29.9587 673.381 29.8339 673.381 29.6779C673.381 29.5219 672.651 29.4033 671.752 29.4033C670.854 29.4033 670.124 29.5344 670.124 29.6841Z" fill="#EDEDED"/>
<path d="M618.655 34.0959C618.15 34.0647 618.131 36.0741 618.63 36.0803C618.68 35.7121 618.699 34.4703 618.655 34.0959Z" fill="#FFE697"/>
<path d="M688.775 35.8495C688.775 36.0492 688.938 36.2177 689.137 36.2177L691.047 36.2364L691.053 35.5L689.144 35.4813C688.944 35.4813 688.775 35.6498 688.775 35.8495Z" fill="#634E42"/>
<path d="M688.763 36.9228C688.763 37.1225 688.925 37.2909 689.125 37.2909L691.041 37.3097V36.5796L689.125 36.5608C688.931 36.5546 688.763 36.7169 688.763 36.9228Z" fill="#634E42"/>
<path d="M688.757 37.9898C688.757 38.1958 688.919 38.358 689.119 38.358L691.041 38.3767L691.047 37.6466L689.131 37.6279C688.925 37.6279 688.757 37.7902 688.757 37.9898Z" fill="#634E42"/>
<path d="M677.225 27.6249C677.225 27.7061 677.256 27.7872 677.319 27.8496C677.375 27.912 677.456 27.9432 677.543 27.9432L678.567 27.9494C678.741 27.9494 678.891 27.8059 678.891 27.6312L678.922 23.6251C678.922 23.5003 678.872 23.3754 678.785 23.2818C678.698 23.1882 678.573 23.1383 678.448 23.1383L677.712 23.1321C677.468 23.1321 677.263 23.3255 677.263 23.5751L677.225 27.6249Z" fill="#575756"/>
<path d="M680.158 29.7654C680.201 29.7654 680.245 29.7529 680.289 29.7342C680.432 29.6655 680.488 29.4908 680.414 29.3473L678.535 25.6344C678.467 25.4909 678.292 25.4347 678.148 25.5096C678.005 25.5783 677.949 25.753 678.024 25.8965L679.902 29.6094C679.958 29.703 680.058 29.7592 680.158 29.7654Z" fill="#3C3C3B"/>
<path d="M686.797 42.3392L687.715 42.3142L689.911 41.6465C690.336 41.5092 690.673 41.2097 690.86 40.829C690.916 40.7167 690.953 40.6044 690.978 40.4858H687.471V40.698C687.453 41.2159 687.378 41.7214 687.24 42.2019L686.903 42.3017L686.797 42.3392Z" fill="#634E42"/>
<path d="M633.033 40.4797H675.054C675.054 40.7668 675.072 41.0538 675.11 41.3222C675.153 41.6841 675.241 42.021 675.341 42.3518L670.292 42.3143L669.25 42.3081L633.014 42.0273L633.033 40.4797Z" fill="#634E42"/>
<path d="M619.623 40.4797C619.853 41.0289 620.321 41.4532 620.914 41.6404L621.75 41.89L621.944 41.9524L621.825 41.241L621.769 40.4797H619.623Z" fill="#634E42"/>
<path d="M685.187 41.3845C685.169 43.5498 683.403 45.2908 681.237 45.2721C679.072 45.2533 677.337 43.4811 677.356 41.3221C677.375 39.1567 679.141 37.422 681.306 37.4407C683.471 37.4532 685.2 39.2191 685.187 41.3845Z" fill="#DADADA"/>
<path d="M683.309 41.3656C683.297 42.4888 682.379 43.3998 681.256 43.3873C680.133 43.3749 679.228 42.4576 679.234 41.3281C679.247 40.1987 680.164 39.3001 681.287 39.3063C682.41 39.325 683.315 40.2423 683.309 41.3656Z" fill="#F6F6F6"/>
<path d="M681.312 36.2363C684.139 36.2612 686.41 38.5701 686.385 41.3969C686.36 44.2236 684.051 46.495 681.225 46.4701C678.398 46.4451 676.127 44.1363 676.152 41.3095C676.176 38.4827 678.485 36.2113 681.312 36.2363ZM681.237 44.8289C683.153 44.8476 684.725 43.3001 684.744 41.3844C684.763 39.4624 683.215 37.8962 681.3 37.8774C679.384 37.8587 677.811 39.4063 677.793 41.322C677.774 43.2439 679.321 44.8102 681.237 44.8289Z" fill="#3C3C3B"/>
<path d="M631.31 41.3845C631.291 43.5498 629.525 45.2908 627.36 45.2721C625.195 45.2533 623.46 43.4811 623.479 41.3221C623.498 39.1567 625.263 37.422 627.429 37.4407C629.594 37.4532 631.329 39.2191 631.31 41.3845Z" fill="#DADADA"/>
<path d="M629.432 41.3656C629.42 42.4888 628.502 43.3998 627.379 43.3873C626.256 43.3749 625.351 42.4576 625.357 41.3281C625.37 40.1987 626.287 39.3001 627.41 39.3063C628.54 39.325 629.438 40.2423 629.432 41.3656Z" fill="#F6F6F6"/>
<path d="M627.435 36.2363C630.262 36.2612 632.533 38.5701 632.508 41.3969C632.483 44.2236 630.175 46.495 627.348 46.4701C624.521 46.4451 622.25 44.1363 622.275 41.3095C622.3 38.4827 624.608 36.2113 627.435 36.2363ZM627.36 44.8289C629.276 44.8476 630.848 43.3001 630.867 41.3844C630.886 39.4624 629.338 37.8962 627.423 37.8774C625.507 37.8587 623.934 39.4063 623.916 41.322C623.903 43.2439 625.445 44.8102 627.36 44.8289Z" fill="#3C3C3B"/>
<path d="M620.989 39.7122C620.983 40.2613 620.534 40.7043 619.991 40.6981L618.986 40.6856C618.437 40.6794 618 40.2301 618 39.6872C618.006 39.1381 618.456 38.695 618.999 38.7012L620.003 38.7137C620.552 38.7137 620.995 39.163 620.989 39.7122Z" fill="#EDEDED"/>
<path d="M688.607 40.0552C688.601 40.6043 689.044 41.0536 689.593 41.0536L691.24 41.0661C691.789 41.0723 692.239 40.6293 692.239 40.0802C692.245 39.531 691.802 39.0818 691.253 39.0818L689.605 39.0693C689.062 39.063 688.613 39.5061 688.607 40.0552Z" fill="#EDEDED"/>
<path d="M621.189 15.5255C621.189 16.4178 621.913 17.1354 622.799 17.1354H675.609C676.501 17.1354 677.219 16.4116 677.219 15.5255C677.219 14.6331 676.495 13.9155 675.609 13.9155H622.799C621.913 13.9155 621.189 14.6394 621.189 15.5255Z" fill="white"/>
</g>
</svg>
