<svg width="117" height="117" viewBox="0 0 117 117" fill="none" xmlns="http://www.w3.org/2000/svg">
<path d="M89.7845 30.7815L88.497 75.7154L87.8575 98.033C87.7694 101.106 88.3015 104.003 89.3734 106.459C91.7304 111.904 96.7876 115.107 102.802 114.33C105.678 113.956 108.369 112.627 110.107 110.252C110.893 109.184 111.455 107.97 111.756 106.661C112.056 105.404 112.112 104.07 111.869 102.71C111.508 100.609 110.329 98.8351 108.709 97.6991C107.09 96.5631 105.031 96.0297 102.912 96.3907C101.27 96.6775 99.9081 97.5875 99.0105 98.8622C98.1133 100.119 97.7159 101.725 98.0027 103.367C98.2128 104.621 98.9382 105.679 99.9024 106.374C100.867 107.07 102.106 107.369 103.377 107.159C104.331 106.993 105.137 106.454 105.668 105.713C105.869 105.438 106.019 105.126 106.133 104.795C105.796 104.926 105.442 105.004 105.056 104.993C103.616 104.952 102.49 103.76 102.532 102.32C102.573 100.88 103.765 99.7541 105.205 99.7954C106.293 99.8266 107.205 100.52 107.564 101.48L107.614 101.587C107.797 101.943 107.909 102.333 107.984 102.775C108.241 104.223 107.867 105.618 107.098 106.721C106.328 107.824 105.11 108.632 103.661 108.889C101.913 109.191 100.221 108.756 98.8773 107.803C97.5338 106.851 96.5562 105.4 96.2548 103.651C95.8937 101.532 96.4097 99.4731 97.5637 97.8366C98.7172 96.2178 100.491 95.0209 102.61 94.6599C105.189 94.2065 107.719 94.8589 109.7 96.2513C111.68 97.6612 113.148 99.8121 113.583 102.408C113.854 103.997 113.791 105.577 113.449 107.061C113.089 108.597 112.415 110.036 111.501 111.293C109.452 114.081 106.314 115.661 102.998 116.076C96.19 116.952 90.4073 113.307 87.7363 107.168C86.5661 104.463 85.9889 101.301 86.084 97.9822L86.7235 75.6645L88.0111 30.7307L43.0948 29.4437L20.7947 28.8046C17.4761 28.7095 14.3696 27.9527 11.7188 26.6291C5.72488 23.6104 2.43429 17.629 3.69961 10.8818C4.32098 7.5958 6.06009 4.55269 8.96103 2.66758C10.268 1.82636 11.7435 1.23599 13.2978 0.964204C14.7989 0.708467 16.3797 0.736192 17.951 1.09754C20.517 1.69828 22.5809 3.26874 23.8751 5.32678C25.1517 7.38432 25.6582 9.947 25.0574 12.5131C24.5756 14.6081 23.2791 16.3108 21.5969 17.3697C19.9146 18.4286 17.812 18.8253 15.717 18.3435C13.9887 17.9425 12.5956 16.8833 11.7218 15.4875C10.8655 14.0922 10.528 12.3779 10.929 10.6496C11.2688 9.21835 12.1453 8.06604 13.2907 7.3432C14.4361 6.62036 15.8675 6.34505 17.2812 6.68431C17.7001 6.78418 18.0824 6.93572 18.4461 7.12188L18.55 7.17758C19.4871 7.59105 20.1277 8.5408 20.0965 9.62947C20.0552 11.0693 18.8631 12.195 17.4233 12.1538C15.9834 12.1125 14.8577 10.9204 14.899 9.48053C14.91 9.09423 15.0079 8.74557 15.1579 8.41597C14.8213 8.51176 14.5012 8.64318 14.2147 8.82828C13.4451 9.31586 12.8605 10.0899 12.6402 11.0326C12.3582 12.2898 12.5863 13.5265 13.2249 14.5465C13.8464 15.5484 14.8608 16.3331 16.118 16.6152C17.7414 16.9956 19.3674 16.6731 20.6734 15.867C21.9799 15.0434 22.9839 13.7365 23.3467 12.1126C23.8285 10.0176 23.4313 7.93253 22.3724 6.25027C21.3135 4.56802 19.6284 3.27201 17.551 2.79071C16.207 2.47102 14.872 2.45034 13.6002 2.6775C12.2757 2.90315 11.0309 3.41227 9.92114 4.11855C7.45017 5.71723 5.95191 8.32791 5.43091 11.1775C4.31064 17.1555 7.21902 22.3703 12.5202 25.0353C14.9282 26.2465 17.7727 26.9431 20.8456 27.0312L43.1456 27.6702L88.0794 28.9578L88.4971 14.3837L88.5222 13.5057L89.4002 13.5309L104.852 13.9737L105.73 13.9988L105.705 14.8768L105.262 30.3288L105.237 31.2068L104.359 31.1816L89.785 30.764L89.7845 30.7815ZM89.8349 29.0256L103.531 29.4181L103.923 15.722L90.2273 15.3295L89.8349 29.0256ZM80.0812 38.2359L79.4543 60.1145L79.3441 63.96C79.3189 64.8379 79.3284 65.7345 78.8492 66.5115C78.6095 65.6787 77.9598 65.045 76.9239 65.0153C75.8879 64.9856 74.8252 65.8866 74.7925 67.0279C74.7729 67.7127 75.0894 68.3193 75.5875 68.7202C76.2748 69.2671 77.2561 69.3655 78.1421 69.1097C79.5594 68.711 80.431 67.7343 80.8399 66.3401C81.0929 65.4863 81.0974 64.7132 81.1216 63.8703L81.2278 60.1653L81.8799 37.4087L81.905 36.5308L81.0271 36.5056L58.2529 35.853L54.5479 35.7468C53.6875 35.7222 52.933 35.683 52.066 35.8866C50.6507 36.2151 49.6252 37.0468 49.146 38.439C48.8399 39.3089 48.8824 40.2766 49.3891 40.9941C49.7432 41.5139 50.3482 41.8651 51.033 41.8847C52.1919 41.9179 53.1347 40.9081 53.1644 39.8721C53.1941 38.8361 52.6162 38.1518 51.7814 37.8467C52.5846 37.4128 53.4792 37.4736 54.3571 37.4987L58.2025 37.6089L80.0812 38.2359ZM49.1259 20.1268L45.2805 20.0166C44.4025 19.9914 43.506 20.0009 42.7289 19.5217C43.5617 19.2819 44.1989 18.5094 44.2251 17.5963C44.2578 16.455 43.3539 15.4977 42.195 15.4645C41.5102 15.4448 40.9036 15.7614 40.5027 16.2595C39.9558 16.9468 39.8749 17.9286 40.1137 18.7965C40.5124 20.2138 41.4891 21.0854 42.8828 21.5119C43.7366 21.7648 44.5097 21.7694 45.3526 21.7936L49.0575 21.8997L81.4014 22.8265L81.4518 21.0706L49.1254 20.1443L49.1259 20.1268ZM96.388 70.1773L97.3143 37.851L95.5584 37.8007L94.6321 70.127L94.5259 73.832C94.5013 74.6924 94.4621 75.4469 94.6657 76.3139C94.9942 77.7292 95.8259 78.7547 97.2005 79.2334C98.0704 79.5395 99.0382 79.497 99.7556 78.9903C100.276 78.6186 100.627 78.0312 100.646 77.3464C100.679 76.205 99.775 75.2477 98.6337 75.215C97.703 75.1883 96.9133 75.7632 96.6082 76.598C96.1743 75.7947 96.2351 74.9003 96.2603 74.0223L96.3705 70.1768L96.388 70.1773Z" fill="#B93538"/>
</svg>
