<svg width="115" height="115" viewBox="0 0 115 115" fill="none" xmlns="http://www.w3.org/2000/svg">
<path d="M88.0377 29.101L87.3857 74.0486L87.0619 96.373C87.0173 99.4468 87.5903 102.336 88.6968 104.777C91.1305 110.188 96.2326 113.319 102.236 112.457C105.105 112.042 107.778 110.675 109.482 108.276C110.253 107.198 110.798 105.976 111.08 104.662C111.362 103.401 111.399 102.067 111.138 100.71C110.746 98.6139 109.542 96.8572 107.907 95.7443C106.272 94.6313 104.206 94.127 102.092 94.518C100.454 94.828 99.105 95.7571 98.2255 97.0444C97.3462 98.3142 96.9715 99.925 97.2815 101.563C97.5094 102.814 98.2496 103.861 99.2235 104.543C100.197 105.225 101.441 105.506 102.709 105.279C103.66 105.099 104.459 104.549 104.979 103.801C105.176 103.523 105.321 103.208 105.432 102.876C105.096 103.012 104.743 103.095 104.357 103.089C102.917 103.068 101.774 101.892 101.795 100.452C101.816 99.0114 102.992 97.869 104.432 97.8899C105.521 97.9057 106.443 98.5867 106.815 99.5407L106.866 99.6469C107.055 100.001 107.172 100.389 107.253 100.83C107.531 102.274 107.177 103.675 106.423 104.788C105.669 105.901 104.462 106.727 103.018 107.005C101.274 107.331 99.5755 106.92 98.2188 105.987C96.862 105.053 95.8639 103.616 95.5378 101.872C95.1468 99.758 95.6336 97.692 96.7643 96.0394C97.8949 94.4044 99.6518 93.1825 101.766 92.7916C104.338 92.3018 106.876 92.9184 108.877 94.2826C110.877 95.6644 112.375 97.7943 112.846 100.384C113.14 101.969 113.099 103.55 112.779 105.038C112.44 106.579 111.787 108.028 110.89 109.297C108.882 112.114 105.766 113.738 102.457 114.2C95.6611 115.173 89.8274 111.61 87.0699 105.509C85.8615 102.821 85.2397 99.667 85.2879 96.3473L85.6117 74.0228L86.2637 29.0753L41.3337 28.4235L19.0268 28.1C15.7072 28.0518 12.5904 27.339 9.92107 26.0529C3.88504 23.1193 0.510186 17.185 1.67997 10.4207C2.25481 7.12621 3.95071 4.05881 6.8247 2.13287C8.11965 1.27324 9.58667 0.662068 11.1369 0.368328C12.6342 0.0913889 14.2153 0.0967553 15.7915 0.435847C18.3659 1.00024 20.4517 2.54136 21.7748 4.58089C23.0804 6.62017 23.6231 9.17543 23.0587 11.7498C22.6066 13.8514 21.3343 15.5722 19.6672 16.6548C18.0001 17.7374 15.9033 18.1638 13.8017 17.7116C12.0679 17.3351 10.6599 16.2958 9.76645 14.9125C8.89054 13.5294 8.52883 11.8201 8.90535 10.0863C9.22484 8.65034 10.085 7.48575 11.2201 6.74678C12.3552 6.00782 13.7825 5.7123 15.2009 6.03153C15.6212 6.12547 16.0055 6.27159 16.3718 6.45258L16.4765 6.50681C17.4193 6.90699 18.0733 7.84758 18.0575 8.93658C18.0366 10.3769 16.8605 11.5193 15.4202 11.4984C13.9799 11.4775 12.8375 10.3015 12.8584 8.86116C12.864 8.47475 12.9569 8.12473 13.1023 7.79304C12.767 7.89359 12.4488 8.02952 12.165 8.21865C11.4023 8.71706 10.8288 9.49931 10.6218 10.445C10.3576 11.7061 10.6032 12.9394 11.2561 13.9503C11.8918 14.9433 12.9171 15.7136 14.1782 15.9779C15.8068 16.3353 17.4281 15.9899 18.7226 15.1654C20.0172 14.3233 21.0027 13.0024 21.3425 11.3735C21.7946 9.27188 21.368 7.19265 20.2854 5.52554C19.2028 3.85842 17.4996 2.58637 15.4155 2.13451C14.0671 1.83385 12.732 1.83206 11.4635 2.07718C10.1423 2.32154 8.90493 2.8482 7.80523 3.57011C5.35712 5.20358 3.89592 7.83518 3.41528 10.6918C2.37966 16.6851 5.36149 21.8583 10.6998 24.448C13.1247 25.6251 15.9788 26.2814 19.0526 26.326L41.3595 26.6495L86.307 27.3015L86.5185 12.723L86.5312 11.8448L87.4094 11.8575L102.866 12.0817L103.744 12.0945L103.732 12.9727L103.507 28.4295L103.495 29.3077L102.616 29.2949L88.038 29.0835L88.0377 29.101ZM88.0632 27.3446L101.763 27.5433L101.962 13.843L88.2619 13.6443L88.0632 27.3446ZM47.2325 19.0223L43.3859 18.9665C42.5076 18.9538 41.6113 18.9759 40.8275 18.5077C41.6569 18.2563 42.2831 17.4748 42.2964 16.5614C42.3129 15.4197 41.3955 14.4753 40.2363 14.4585C39.5513 14.4486 38.9492 14.7736 38.5554 15.2774C38.0183 15.9723 37.9513 16.9552 38.2023 17.8196C38.621 19.2312 39.61 20.0888 41.0095 20.4956C41.8669 20.7364 42.64 20.7301 43.4831 20.7423L47.1892 20.796L79.543 21.2654L79.5684 19.5089L47.2322 19.0399L47.2325 19.0223ZM95.1977 68.3995L95.6667 36.0633L93.9103 36.0378L93.4412 68.374L93.3874 72.0801C93.375 72.9408 93.3464 73.6958 93.5623 74.5598C93.9108 75.9703 94.7569 76.984 96.1381 77.4432C97.0123 77.737 97.9793 77.6807 98.6896 77.164C99.2045 76.785 99.5469 76.1926 99.5569 75.5076C99.5734 74.3659 98.656 73.4215 97.5143 73.4049C96.5834 73.3914 95.8019 73.9774 95.5086 74.8164C95.0634 74.0194 95.1115 73.1241 95.1243 72.2459L95.1801 68.3992L95.1977 68.3995Z" fill="#B93538"/>
</svg>
