<svg width="175" height="20" viewBox="0 0 175 20" fill="none" xmlns="http://www.w3.org/2000/svg">
<path d="M5.63187 7.18994C5.84187 7.18994 6.03186 7.34994 6.06186 7.56994C6.19186 8.62994 5.91187 9.66994 5.25187 10.5099C4.60187 11.3499 3.66187 11.8899 2.60187 12.0199C1.98187 12.0999 1.38187 11.9299 0.891866 11.5499C0.401866 11.1699 0.0918764 10.6199 0.0118764 9.99994C-0.0381236 9.61994 0.0718697 9.23994 0.30187 8.93994C0.54187 8.63994 0.881876 8.43994 1.26188 8.39994C1.50188 8.36994 1.71187 8.53994 1.74187 8.76994C1.77187 9.00994 1.60188 9.21994 1.37188 9.24994C1.22188 9.26994 1.08187 9.34994 0.991872 9.46994C0.901872 9.58994 0.851877 9.73994 0.871877 9.89994C0.921877 10.2899 1.12186 10.6299 1.42186 10.8699C1.73186 11.1099 2.11187 11.2199 2.50187 11.1699C3.33187 11.0699 4.07187 10.6499 4.58187 9.98994C5.09187 9.32994 5.32187 8.50994 5.21187 7.67994C5.18187 7.43994 5.35187 7.22994 5.58187 7.19994C5.60187 7.18994 5.62187 7.18994 5.63187 7.18994Z" fill="#B93538"/>
<path d="M78.4818 0C80.5818 0 82.6518 0.570002 84.5018 1.69C85.5818 2.34 86.5318 3.15 87.3318 4.08C90.1618 0.840002 94.5518 -0.720002 98.8918 0.349998C103.342 1.45 106.062 5.96 104.962 10.41C104.582 11.95 103.622 13.25 102.262 14.07C100.902 14.89 99.3018 15.13 97.7618 14.75C96.6518 14.48 95.7118 13.78 95.1218 12.8C94.5318 11.82 94.3518 10.67 94.6318 9.56C95.0418 7.89 96.7418 6.86 98.4218 7.28C98.6518 7.34 98.7918 7.57 98.7318 7.8C98.6718 8.03 98.4418 8.17 98.2118 8.11C97.6218 7.96 97.0118 8.06 96.4918 8.37C95.9718 8.68 95.6118 9.18 95.4618 9.77C95.2418 10.66 95.3818 11.58 95.8518 12.36C96.3218 13.14 97.0718 13.7 97.9618 13.92C99.2818 14.25 100.642 14.04 101.812 13.34C102.972 12.64 103.792 11.53 104.122 10.21C105.112 6.22 102.662 2.18 98.6818 1.19C94.6018 0.180002 90.4918 1.68 87.8718 4.77C88.7718 5.99 89.4318 7.39 89.8018 8.9C89.8518 9.06 91.2518 13.64 87.8418 18.99L87.5218 19.49L87.1418 19.03C86.9818 18.83 83.2118 14.19 84.7218 8.89C85.1618 7.35 85.8618 5.96 86.7618 4.77C86.0018 3.86 85.0818 3.07 84.0318 2.44C81.5518 0.940002 78.6418 0.499997 75.8318 1.2C71.8418 2.19 69.4018 6.23 70.3918 10.22C70.7218 11.54 71.5418 12.65 72.7018 13.35C73.8618 14.05 75.2318 14.26 76.5518 13.93C77.4418 13.71 78.1918 13.16 78.6618 12.37C79.1318 11.59 79.2718 10.67 79.0518 9.78C78.7518 8.57 77.5218 7.82 76.3018 8.12C76.0718 8.18 75.8418 8.04 75.7818 7.81C75.7218 7.58 75.8618 7.35 76.0918 7.29C77.7618 6.88 79.4618 7.9 79.8818 9.57C80.1518 10.68 79.9818 11.83 79.3918 12.81C78.8018 13.79 77.8618 14.48 76.7518 14.76C75.2118 15.14 73.6118 14.9 72.2518 14.08C70.8918 13.26 69.9318 11.96 69.5518 10.42C68.4518 5.97 71.1718 1.46 75.6218 0.360001C76.5918 0.120001 77.5418 0 78.4818 0ZM87.4618 17.98C90.2318 13.2 89.0018 9.17 88.9918 9.13C88.6618 7.79 88.0918 6.56 87.3318 5.47C86.5618 6.54 85.9518 7.76 85.5718 9.12C84.4518 13.03 86.5718 16.68 87.4618 17.98Z" fill="#B93538"/>
<path d="M5.63165 7.18994H69.8017C70.0417 7.18994 70.2317 7.37994 70.2317 7.61994C70.2317 7.85994 70.0417 8.04994 69.8017 8.04994H5.63165C5.39165 8.04994 5.20166 7.85994 5.20166 7.61994C5.20166 7.37994 5.40165 7.18994 5.63165 7.18994Z" fill="#B93538"/>
<path d="M104.742 7.18994H169.302L169.242 7.66994C169.142 8.48994 169.382 9.30994 169.912 9.96994C170.452 10.6299 171.202 11.0499 172.042 11.1599C172.432 11.2099 172.812 11.0999 173.122 10.8599C173.432 10.6199 173.632 10.2699 173.672 9.88994C173.692 9.73994 173.652 9.57994 173.552 9.45994C173.462 9.33994 173.322 9.25994 173.172 9.23994C172.932 9.20994 172.772 8.99994 172.802 8.75994C172.832 8.51994 173.042 8.35994 173.282 8.38994C173.662 8.43994 174.002 8.62994 174.242 8.92994C174.482 9.22994 174.582 9.60994 174.532 9.98994C174.452 10.6099 174.142 11.1499 173.652 11.5399C173.162 11.9199 172.552 12.0899 171.942 12.0099C170.882 11.8799 169.932 11.3399 169.252 10.5099C168.672 9.78994 168.362 8.92994 168.362 8.04994H104.742C104.502 8.04994 104.312 7.85994 104.312 7.61994C104.312 7.37994 104.512 7.18994 104.742 7.18994Z" fill="#B93538"/>
</svg>
