<svg width="431" height="40" viewBox="0 0 431 40" fill="none" xmlns="http://www.w3.org/2000/svg">
<path d="M193.394 0C198.569 0 203.67 1.15347 208.228 3.41994C210.89 4.7353 213.231 6.37443 215.202 8.25641C222.176 1.69985 232.994 -1.45702 243.688 0.708267C254.654 2.93426 261.356 12.0608 258.646 21.066C257.709 24.1824 255.344 26.8131 251.993 28.4725C248.641 30.1318 244.699 30.6175 240.904 29.8485C238.168 29.3021 235.852 27.8856 234.398 25.9025C232.944 23.9193 232.501 21.5921 233.191 19.3459C234.201 15.9664 238.39 13.8821 242.53 14.732C243.097 14.8534 243.442 15.3189 243.294 15.7843C243.146 16.2497 242.579 16.533 242.013 16.4116C240.559 16.1081 239.056 16.3105 237.774 16.9378C236.493 17.5651 235.606 18.5769 235.236 19.7708C234.694 21.5719 235.039 23.4336 236.197 25.012C237.355 26.5905 239.203 27.7237 241.396 28.1689C244.649 28.8367 248.001 28.4117 250.884 26.9952C253.742 25.5787 255.763 23.3324 256.576 20.6612C259.015 12.587 252.978 4.41152 243.171 2.40812C233.117 0.364258 222.989 3.39969 216.533 9.6527C218.751 12.1215 220.377 14.9546 221.289 18.0103C221.412 18.3341 224.862 27.6023 216.459 38.4287L215.67 39.4405L214.734 38.5096C214.34 38.1049 205.05 28.7153 208.771 17.9901C209.855 14.8737 211.58 12.0608 213.798 9.6527C211.925 7.8112 209.658 6.21254 207.07 4.93766C200.959 1.90222 193.788 1.01181 186.864 2.42835C177.032 4.43174 171.019 12.6072 173.459 20.6815C174.272 23.3527 176.293 25.5989 179.151 27.0154C182.01 28.432 185.385 28.8569 188.638 28.1891C190.831 27.7439 192.679 26.631 193.838 25.0323C194.996 23.4539 195.341 21.5921 194.799 19.7911C194.059 17.3425 191.028 15.8248 188.022 16.4319C187.455 16.5533 186.889 16.27 186.741 15.8045C186.593 15.3391 186.938 14.8737 187.505 14.7523C191.62 13.9226 195.809 15.9867 196.844 19.3661C197.509 21.6124 197.09 23.9395 195.637 25.9227C194.183 27.9058 191.866 29.3021 189.131 29.8688C185.336 30.6377 181.393 30.1521 178.042 28.4927C174.691 26.8333 172.325 24.2026 171.389 21.0862C168.678 12.0811 175.381 2.9545 186.346 0.728507C188.737 0.242837 191.078 0 193.394 0ZM215.522 36.3848C222.348 26.7119 219.317 18.5567 219.293 18.4757C218.48 15.7641 217.075 13.275 215.202 11.0693C213.305 13.2345 211.802 15.7034 210.865 18.4555C208.105 26.3679 213.329 33.7541 215.522 36.3848Z" fill="#B93538"/>
<path d="M13.8777 14.5498H172.005C172.596 14.5498 173.064 14.9343 173.064 15.42C173.064 15.9056 172.596 16.2901 172.005 16.2901H13.8777C13.2863 16.2901 12.8181 15.9056 12.8181 15.42C12.8181 14.9343 13.3109 14.5498 13.8777 14.5498Z" fill="#B93538"/>
<path d="M13.878 14.5498C14.3955 14.5498 14.8637 14.8736 14.9376 15.3188C15.2579 17.4638 14.568 19.5684 12.9416 21.2682C11.3399 22.9681 9.02355 24.0608 6.41151 24.3239C4.88371 24.4858 3.40518 24.1418 2.19773 23.3728C0.990275 22.6038 0.226401 21.4908 0.0292658 20.2362C-0.0939437 19.4672 0.177101 18.6982 0.743865 18.0912C1.33527 17.4841 2.17311 17.0793 3.10951 16.9984C3.70091 16.9377 4.21838 17.2817 4.29231 17.7471C4.36623 18.2328 3.94733 18.6578 3.38057 18.7185C3.01094 18.7589 2.66594 18.9208 2.44416 19.1637C2.22239 19.4065 2.09919 19.7101 2.14847 20.0338C2.27168 20.8231 2.76449 21.5111 3.50375 21.9968C4.26765 22.4824 5.20404 22.705 6.16508 22.6038C8.21036 22.4015 10.0339 21.5515 11.2906 20.216C12.5473 18.8804 13.1141 17.221 12.8431 15.5414C12.7691 15.0557 13.188 14.6307 13.7548 14.57C13.8041 14.5498 13.8534 14.5498 13.878 14.5498Z" fill="#B93538"/>
<path d="M258.104 14.5498H417.193L417.045 15.5211C416.798 17.1805 417.39 18.8399 418.696 20.1755C420.026 21.5111 421.874 22.361 423.944 22.5836C424.905 22.6848 425.842 22.4622 426.606 21.9765C427.37 21.4908 427.862 20.7826 427.961 20.0136C428.01 19.7101 427.912 19.3863 427.665 19.1434C427.444 18.9006 427.099 18.7387 426.729 18.6982C426.138 18.6375 425.743 18.2126 425.817 17.7269C425.891 17.2412 426.409 16.9174 427 16.9782C427.936 17.0793 428.774 17.4638 429.366 18.0709C429.957 18.678 430.203 19.447 430.08 20.216C429.883 21.4706 429.119 22.5634 427.912 23.3526C426.704 24.1216 425.201 24.4656 423.698 24.3037C421.086 24.0406 418.745 22.9479 417.069 21.2683C415.64 19.8112 414.876 18.0709 414.876 16.2901H258.104C257.513 16.2901 257.045 15.9056 257.045 15.42C257.045 14.9343 257.537 14.5498 258.104 14.5498Z" fill="#B93538"/>
</svg>
