<svg width="163" height="125" viewBox="0 0 163 125" fill="none" xmlns="http://www.w3.org/2000/svg">
<g opacity="0.06">
<path d="M28.0677 22.2487L26.0371 23.9827L129.596 112.413L131.627 110.679L28.0677 22.2487Z" fill="#9D9D9C"/>
<path d="M158.73 121.352C153.034 126.216 143.742 126.216 138.045 121.352L128.543 113.238C127.422 112.281 127.422 110.726 128.543 109.769C129.663 108.812 131.484 108.812 132.605 109.769L142.107 117.883C145.563 120.833 151.189 120.833 154.645 117.883C158.1 114.932 158.1 110.127 154.645 107.177L151.773 104.725C150.652 103.768 150.652 102.213 151.773 101.256C152.894 100.299 154.715 100.299 155.835 101.256L158.707 103.708C164.427 108.553 164.427 116.467 158.73 121.352Z" fill="#7B6A58"/>
<path d="M18.2046 15.5493L26.0025 23.9425L28.0337 22.2081L18.2046 15.5493Z" fill="#9D9D9C"/>
<path d="M27.4735 23.4643C-2.80754 49.6607 -8.9945 86.4632 13.6054 106.061C15.3097 98.744 22.127 94.5972 30.6487 91.5071C34.3842 81.4193 42.6958 75.3786 53.7856 71.7502C56.9841 66.0484 60.9064 60.825 65.9493 56.2995C71.2491 51.9932 77.366 48.6439 84.0433 45.9126C88.2924 36.4428 95.3666 29.3455 107.18 26.1557C110.799 18.8789 115.655 13.0575 124.224 11.6021C101.25 -7.67636 58.1515 -2.39322 27.4735 23.4643Z" fill="#3C3C3B"/>
<path d="M27.4735 23.4642C-2.80754 49.6606 -8.9945 86.4632 13.6054 106.061C15.3097 98.744 22.127 94.5972 30.6487 91.5071C8.04879 71.9894 6.67135 41.7259 27.4735 23.4642C48.8594 5.70092 84.3235 6.87716 107.157 26.1756C110.776 18.8988 115.632 13.0774 124.2 11.622C101.25 -7.67639 58.1515 -2.39325 27.4735 23.4642Z" fill="#3C3C3B"/>
<path d="M27.4734 23.4647C6.67125 41.7264 8.04869 72.0097 30.6486 91.5075C34.3841 81.4197 42.6957 75.379 53.7855 71.7506C31.3724 52.5319 19.839 31.2399 27.4734 23.4647C36.5788 16.9455 61.5367 26.794 84.0199 45.913C88.269 36.4432 95.3432 29.3459 107.157 26.1561C84.3234 6.85766 48.8826 5.68142 27.4734 23.4647Z" fill="#2E2E2D"/>
<path d="M27.497 23.4645C19.8392 31.2197 31.3726 52.5317 53.7857 71.7504C56.9843 66.0486 60.9065 60.8253 65.9495 56.2997C71.2493 51.9934 77.3662 48.6441 84.0434 45.9128C61.5369 26.7939 36.579 16.9453 27.497 23.4645Z" fill="#3C3C3B"/>
</g>
</svg>
